<svg height="398pt" viewBox="0 0 398 398.68522" width="398pt" xmlns="http://www.w3.org/2000/svg"><path d="m112.40625 228.570312c1.1875 3.78125 6.101562 5.125 9.9375 5.125 4.273438 0 8.949219-1.597656 9.769531-5.167968l4.285157-19.546875 4.289062 19.550781c.816406 3.566406 5.492188 5.164062 9.765625 5.164062 4.96875 0 8.871094-2.007812 9.933594-5.113281l18.285156-56.039062c.136719-.4375.207031-.894531.210937-1.351563 0-3.433594-5.351562-6.203125-9.78125-6.203125-2.710937 0-4.515624 1.078125-5.070312 3.023438l-13.429688 45.316406-6.824218-29.207031c-.632813-2.855469-4.269532-4.15625-7.378906-4.15625-3.105469 0-6.742188 1.300781-7.375 4.152344l-6.828126 29.210937-13.425781-45.3125c-.558593-1.949219-2.359375-3.027344-5.074219-3.027344-4.429687 0-9.777343 2.765625-9.777343 6.203125 0 .457032.070312.910156.207031 1.347656zm0 0"/><path d="m200.1875 233.144531c3.691406 0 7.5-1.539062 7.5-4.910156v-58.425781c0-3.558594-3.964844-4.820313-7.5-4.820313s-7.5 1.261719-7.5 4.820313v58.425781c0 3.375 3.808594 4.910156 7.5 4.910156zm0 0"/><path d="m233.1875 233.144531c3.691406 0 7.5-1.539062 7.5-4.910156v-29.285156l16.707031 30.078125c1.96875 3.628906 5.464844 4.117187 8.527344 4.117187 3.691406 0 7.765625-1.535156 7.765625-4.910156v-58.425781c0-3.558594-3.964844-4.820313-7.5-4.820313s-7.5 1.261719-7.5 4.820313v29.199218l-14.109375-26.585937c-3.570313-6.859375-5.722656-7.4375-11.113281-7.4375-3.816406 0-7.777344 1.519531-7.777344 4.914063v58.332031c0 3.378906 3.808594 4.914062 7.5 4.914062zm0 0"/><path d="m297.976562 233.695312c4.113282-.128906 7.402344-3.460937 7.480469-7.574218-.027343-4.136719-3.347656-7.492188-7.480469-7.574219-2.015624-.019531-3.953124.769531-5.378906 2.195313-1.425781 1.425781-2.214844 3.363281-2.195312 5.378906.003906 4.179687 3.394531 7.570312 7.574218 7.574218zm0 0"/><path d="m291.964844 208.667969c0 2.800781 2.269531 4.539062 5.921875 4.539062 2.25 0 5.824219-1.230469 5.824219-4.539062 0-5.453125.328124-12.21875.644531-18.761719.316406-6.542969.644531-13.335938.644531-18.8125 0-3.59375-2.925781-6.101562-7.113281-6.101562-4.3125 0-7.207031 2.457031-7.207031 6.101562 0 5.476562.328124 12.257812.644531 18.8125.316406 6.554688.640625 13.308594.640625 18.761719zm0 0"/><path d="m11.828125 235.046875c5.292969 8.070313 7.871094 17.613281 7.359375 27.246094l-.160156 2.921875c-1.332032 24.191406 11.777344 46.875 33.402344 57.800781l2.460937 1.242187c8.589844 4.316407 15.558594 11.285157 19.875 19.878907l1.242187 2.457031c10.921876 21.625 33.609376 34.734375 57.800782 33.402344l2.921875-.164063c9.632812-.507812 19.179687 2.074219 27.246093 7.367188l2.125 1.398437c20.367188 13.449219 46.792969 13.449219 67.15625 0l2.128907-1.398437c8.066406-5.292969 17.609375-7.871094 27.242187-7.363281l2.925782.160156c24.1875 1.332031 46.875-11.777344 57.796874-33.398438l1.246094-2.460937c4.3125-8.589844 11.285156-15.5625 19.875-19.875l2.460938-1.246094c21.621094-10.921875 34.730468-33.609375 33.398437-57.796875l-.160156-2.929688c-.507813-9.632812 2.070313-19.175781 7.363281-27.242187l1.402344-2.128906c13.445312-20.363281 13.445312-46.789063 0-67.152344l-1.402344-2.128906c-5.292968-8.066407-7.871094-17.613281-7.359375-27.246094l.15625-2.921875c1.335938-24.191406-11.773437-46.875-33.398437-57.800781l-2.460938-1.242188c-8.589844-4.316406-15.5625-11.285156-19.875-19.875l-1.242187-2.460937c-10.925781-21.625-33.609375-34.734375-57.800781-33.398438l-2.921876.160156c-9.636718.511719-19.179687-2.070312-27.246093-7.363281l-2.128907-1.402343c-20.363281-13.449219-46.789062-13.449219-67.152343 0l-2.128907 1.402343c-8.0625 5.292969-17.609374 7.871094-27.242187 7.363281l-2.925781-.164062c-24.191406-1.335938-46.878906 11.773438-57.800782 33.402344l-1.242187 2.457031c-4.316406 8.59375-11.285156 15.5625-19.875 19.878906l-2.460937 1.242188c-21.625 10.925781-34.734376 33.609375-33.402344 57.800781l.160156 2.925781c.511719 9.632813-2.066406 19.179688-7.359375 27.25l-1.398437 2.125c-13.449219 20.367188-13.449219 46.789063 0 67.15625zm11.960937-60.476563 1.398438-2.125c7.175781-10.933593 10.671875-23.871093 9.980469-36.929687l-.160157-2.925781c-.980468-17.84375 8.691407-34.582032 24.644532-42.640625l2.460937-1.242188c11.644531-5.847656 21.089844-15.296875 26.941407-26.941406l1.242187-2.460937c8.0625-15.949219 24.792969-25.621094 42.640625-24.644532l2.921875.164063c13.058594.6875 25.996094-2.808594 36.929687-9.980469l2.125-1.402344c15.023438-9.917968 34.519532-9.917968 49.542969 0l2.125 1.402344c10.9375 7.171875 23.875 10.667969 36.9375 9.980469l2.921875-.164063c17.84375-.980468 34.578125 8.691406 42.636719 24.644532l1.246094 2.460937c5.847656 11.644531 15.296875 21.09375 26.941406 26.941406l2.460937 1.242188c15.953126 8.058593 25.625 24.796875 24.640626 42.644531l-.160157 2.921875c-.6875 13.058594 2.808594 25.996094 9.980469 36.929687l1.402344 2.125c9.921875 15.023438 9.921875 34.519532 0 49.542969l-1.402344 2.128907c-7.171875 10.933593-10.671875 23.871093-9.980469 36.925781l.160157 2.925781c.980468 17.847656-8.6875 34.582031-24.640626 42.640625l-2.460937 1.242187c-11.644531 5.851563-21.09375 15.300782-26.945313 26.945313l-1.242187 2.460937c-8.058594 15.953126-24.792969 25.625-42.636719 24.640626l-2.925781-.160157c-13.058594-.691406-25.996094 2.804688-36.925781 9.980469l-2.128906 1.398438c-15.023438 9.921874-34.519532 9.921874-49.542969 0l-2.125-1.398438c-10-6.558594-21.691407-10.058594-33.648438-10.074219-1.09375 0-2.191406.03125-3.285156.09375l-2.921875.160157c-17.84375.980468-34.582031-8.691407-42.640625-24.644532l-1.242187-2.460937c-5.847657-11.644531-15.296876-21.089844-26.941407-26.941407l-2.460937-1.242187c-15.953125-8.058594-25.628906-24.796875-24.644532-42.640625l.160157-2.921875c.691406-13.058594-2.804688-25.996094-9.980469-36.929687l-1.398438-2.128907c-9.925781-15.023437-9.925781-34.519531 0-49.542969zm0 0"/></svg>