<?xml version="1.0" encoding="UTF-8" standalone="no"?>
<!DOCTYPE svg PUBLIC "-//W3C//DTD SVG 1.1//EN" "http://www.w3.org/Graphics/SVG/1.1/DTD/svg11.dtd">
<svg width="100%" height="100%" viewBox="0 0 512 512" version="1.1" xmlns="http://www.w3.org/2000/svg" xmlns:xlink="http://www.w3.org/1999/xlink" xml:space="preserve" xmlns:serif="http://www.serif.com/" style="fill-rule:evenodd;clip-rule:evenodd;stroke-linecap:round;stroke-miterlimit:10;">
    <g>
        <rect id="canvas_background" x="-1" y="-1" width="582" height="402" style="fill:none;"/>
    </g>
    <g>
        <path id="svg_1" d="M87.49,380C88.68,375.62 86.05,369.53 83.54,365.14C82.758,363.831 81.911,362.563 81,361.34C59.475,328.696 47.999,290.441 48,251.34C47.65,139.09 140.73,48 255.83,48C356.21,48 440,117.54 459.58,209.85C462.514,223.536 463.995,237.493 464,251.49C464,363.9 374.51,456.42 259.41,456.42C241.11,456.42 216.41,451.82 202.94,448.05C189.47,444.28 176.02,439.28 172.55,437.94C169.001,436.576 165.232,435.874 161.43,435.87C157.277,435.854 153.164,436.681 149.34,438.3L81.51,462.78C80.024,463.42 78.449,463.832 76.84,464C71.585,463.984 67.269,459.655 67.269,454.4C67.269,454.353 67.269,454.307 67.27,454.26C67.353,453.145 67.555,452.042 67.87,450.97L87.49,380Z" style="fill:none;fill-rule:nonzero;stroke:rgb(229,124,14);stroke-width:32px;"/>
        <g transform="matrix(449.44,0,0,343.544,187.095,363.303)">
            <g id="svg_2">
                <g>
                    <path d="M0.082,-0.669L0.171,-0.669L0.171,-0.523L0.254,-0.523L0.254,-0.451L0.171,-0.451L0.171,-0.11C0.171,-0.092 0.177,-0.079 0.189,-0.073C0.196,-0.07 0.208,-0.068 0.224,-0.068L0.237,-0.068C0.242,-0.068 0.248,-0.069 0.254,-0.069L0.254,-0C0.244,0.003 0.234,0.005 0.223,0.006C0.212,0.008 0.2,0.008 0.188,0.008C0.146,0.008 0.119,-0.002 0.104,-0.023C0.089,-0.044 0.082,-0.071 0.082,-0.105L0.082,-0.451L0.011,-0.451L0.011,-0.523L0.082,-0.523L0.082,-0.669Z" style="fill:rgb(229,124,14);fill-rule:nonzero;"/>
                </g>
            </g>
        </g>
    </g>
    <g transform="matrix(1.0013,1.0644,-2.07052,1.94777,136.688,-214.451)">
        <rect x="91.363" y="71.791" width="395.123" height="17.104" style="fill:rgb(229,124,14);stroke:rgb(229,124,14);stroke-width:0.44px;stroke-linejoin:round;stroke-miterlimit:1.5;"/>
    </g>
</svg>
