<?xml version="1.0" encoding="UTF-8" standalone="no"?>
<!DOCTYPE svg PUBLIC "-//W3C//DTD SVG 1.1//EN" "http://www.w3.org/Graphics/SVG/1.1/DTD/svg11.dtd">
<svg width="100%" height="100%" viewBox="0 0 200 200" version="1.1" xmlns="http://www.w3.org/2000/svg" xmlns:xlink="http://www.w3.org/1999/xlink" xml:space="preserve" xmlns:serif="http://www.serif.com/" style="fill-rule:evenodd;clip-rule:evenodd;stroke-linejoin:round;stroke-miterlimit:2;">
    <g transform="matrix(0.828869,0,0,0.828869,18.188,20.0541)">
        <g id="Layer3">
            <g transform="matrix(1,0,0,1,53.8213,129.007)">
                <path d="M0,-20.475C0.502,-20.607 1.003,-20.739 1.505,-20.871C4.816,-21.658 8.087,-21.353 11.386,-21.695C13.859,-21.951 16.024,-22.751 18.086,-24.194C18.903,-24.764 19.715,-25.422 20.759,-25.532C22.82,-25.546 24.88,-25.555 26.941,-25.577C27.731,-25.584 28.524,-25.618 29.316,-25.64C29.556,-25.686 29.726,-25.612 29.827,-25.419C29.589,-24.285 31.013,-23.81 30.744,-22.661C30.596,-22.469 30.41,-22.326 30.186,-22.226C28.47,-21.897 26.884,-22.34 25.278,-22.514C22.894,-22.772 20.826,-21.924 18.741,-20.799C17.695,-20.235 17.094,-19.447 17.429,-18.408C18.821,-14.091 17.423,-9.729 15.923,-5.396C14.993,-2.71 15.041,-3.066 17.517,-2.171C22.078,-0.524 27.085,-1.232 31.875,-0.825C34.86,-0.571 37.49,-1.664 39.827,-3.577C38.68,-4.226 36.754,-4.288 36.899,-6.334C37.264,-6.617 37.699,-6.755 38.075,-6.627C40.493,-5.801 42.916,-4.971 44.69,-3.181C42.097,0.171 38.608,2.296 34.561,2.758C29.018,3.391 23.527,3.263 18.33,1.838C16.541,1.347 14.592,1.372 12.714,1.211C5.611,0.601 -1.284,-0.859 -8.512,-0.959C-10.021,-0.98 -11.519,-0.857 -13.03,-0.609C-13.451,-0.539 -13.95,-0.471 -14.154,-0.078C-14.436,0.468 -13.938,0.756 -13.651,1.091C-13.133,1.698 -12.367,1.905 -11.583,2.123C-10.844,2.329 -9.898,2.473 -10.351,3.638C-13.423,5.211 -14.973,3.141 -16.844,1.878C-17.848,1.2 -18.062,-0.194 -19.324,-0.654C-19.537,-0.774 -19.707,-0.936 -19.838,-1.134C-20.143,-1.696 -20,-2.296 -19.779,-2.906C-19.572,-3.384 -19.227,-3.751 -18.739,-3.999C-13.929,-4.937 -9.232,-4.481 -4.491,-4.589C-0.058,-4.69 4.21,-4.096 8.351,-3.041C9.599,-2.724 10.684,-3.086 11.399,-4.297C13.552,-7.941 14.489,-11.781 14.437,-15.662C14.406,-17.964 12.471,-19.06 10.032,-18.563C7.007,-17.947 4,-17.626 1.015,-17.876C-0.115,-18.169 -1.263,-17.662 -2.401,-17.557C-3.29,-17.474 -4.238,-17.293 -4.914,-17.954C-4.853,-19.386 -3.597,-19.458 -2.631,-19.718C-1.75,-19.955 -0.86,-20.13 0,-20.475" style="fill:rgb(109,99,19);fill-rule:nonzero;"/>
            </g>
            <g transform="matrix(1,0,0,1,61.7173,142.349)">
                <path d="M0,20.563C0.197,19.545 0.394,18.529 0.59,17.511C2.816,13.855 6.68,12.098 10.17,9.988C12.014,8.873 13.109,8.049 12.592,5.837C12.191,4.124 12.435,2.124 13.395,0.278C14.184,-1.24 13.917,-2.327 12.315,-2.872L10.87,-3.581C10.547,-4.81 11.283,-5.384 12.472,-5.682C13.664,-5.874 14.942,-5.993 15.867,-5.436C17.613,-4.385 19.221,-4.97 21.04,-5.831C26.027,-8.189 30.94,-7.777 35.808,-6.969C36.392,-6.873 36.798,-6.51 37.046,-6.01C37.123,-5.813 37.16,-5.602 37.168,-5.388C39.064,-3.833 41.115,-2.454 42.487,-0.374C44.276,2.337 45.597,5.13 44.509,8.701C44.274,9.473 44.137,10.275 43.415,10.875C42.826,11.138 42.475,10.9 42.207,10.486C41.865,9.591 42.16,8.625 42.229,7.682C42.551,3.284 40.745,0.392 36.874,-1.846C31.425,-4.997 25.934,-3.724 20.142,-1.429C18.112,-0.624 16.124,2.242 15.978,4.507C15.763,7.862 19.742,10.997 23.255,10.222C26.152,9.584 28.917,8.699 30.681,5.978C31.071,5.375 31.627,4.916 32.386,5.144C33.241,5.401 33.3,6.122 33.127,6.868C32.476,9.68 30.093,11.295 27.79,12.725C24.104,15.013 20.45,14.333 16.896,13.302C15.709,12.958 14.729,11.862 13.219,12.582C10.739,13.764 8.026,14.381 5.899,16.414C2.642,19.522 2.9,22.644 4.241,25.869C4.1,26.828 6.624,27.916 3.721,28.752C3.001,28.698 2.674,28.222 2.402,27.69C1.106,25.513 0.138,23.205 0,20.563" style="fill:rgb(117,38,30);fill-rule:nonzero;"/>
            </g>
            <g transform="matrix(1,0,0,1,53.8213,134.369)">
                <path d="M0,-25.837C-0.535,-24.879 -1.254,-24.411 -2.426,-24.442C-3.242,-24.465 -4.284,-24.553 -4.763,-23.434C-5.546,-22.259 -7.055,-22.465 -8.018,-21.63C-8.257,-21.536 -8.503,-21.475 -8.751,-21.432C-11.693,-21.785 -14.052,-19.737 -16.615,-18.724C-22.795,-16.278 -27.359,-11.996 -30.359,-6.275C-29.135,-4.451 -28.961,-2.964 -32.035,-2.203C-32.656,-2.049 -32.599,-1.047 -33.041,-0.525C-33.574,0.104 -34.254,0.547 -35.041,0.277C-35.85,-0.001 -35.856,-0.708 -35.689,-1.482C-34.475,-7.126 -31.187,-11.64 -26.545,-15.681C-24.097,-17.812 -21.402,-19.334 -18.679,-20.93C-17.434,-21.241 -15.987,-20.95 -15.118,-22.397C-15.03,-22.544 -14.647,-22.649 -14.43,-22.634C-11.287,-22.423 -8.494,-24.971 -5.341,-24.695C-5.04,-24.669 -4.569,-24.72 -4.396,-24.908C-3.036,-26.384 -1.509,-25.965 0,-25.837" style="fill:rgb(109,99,19);fill-rule:nonzero;"/>
            </g>
            <g transform="matrix(1,0,0,1,65.5986,161.347)">
                <path d="M0,9.429C0.454,9.274 0.993,9.172 0.583,8.557C0.299,8.13 0.039,7.687 -0.232,7.251C0.246,6.825 0.737,6.957 1.167,7.129C2.321,7.59 2.746,6.949 3.239,5.997C5.407,1.816 9.277,-0.505 13.623,-1.063C19.694,-1.843 25.78,-1.339 31.842,-3.469C32.17,-3.585 32.5,-3.491 32.791,-3.355C33.14,-0.693 30.603,-0.42 28.99,0.618C28.255,0.749 27.521,0.88 26.786,1.011C22.354,1.601 18.016,1 13.612,1.555C11.559,1.813 9.479,2.648 8.021,4.61C6.828,6.213 6.661,7.56 7.72,8.937C8.424,9.854 8.749,10.877 7.761,11.944C6.77,13.014 5.556,12.782 4.556,12.335C2.88,11.587 0.374,11.85 0,9.429" style="fill:rgb(117,38,30);fill-rule:nonzero;"/>
            </g>
            <g transform="matrix(1,0,0,1,36.395,135.162)">
                <path d="M0,-4.056C-0.641,-5.113 -1.281,-6.17 -1.922,-7.227C-0.953,-7.661 -0.467,-7.12 -0.232,-6.476C0.404,-4.73 2.037,-3.858 3.481,-2.994C4.355,-2.472 5.942,-2.909 7.209,-2.914C8.314,-3.464 9.497,-3.324 10.356,-2.979C13.122,-1.87 16.172,-2.175 19.128,-2.301C24.899,-2.547 30.217,-1.383 35.482,0.02C36.544,0.303 37.633,0.734 37.647,2.082C37.162,2.59 36.676,3.097 36.191,3.605C32.698,2.754 29.628,0.833 25.724,1.015C21.527,0.01 17.042,0.423 12.691,0.18C11.292,0.102 9.866,0.148 8.647,-0.492C5.155,-0.598 2.339,-1.905 0,-4.056" style="fill:rgb(109,99,19);fill-rule:nonzero;"/>
            </g>
            <g transform="matrix(0.879676,-0.475573,-0.475573,-0.879676,65.8642,168.691)">
                <path d="M-1.828,-0.307C-2.379,1.139 -2.152,2.608 -1.937,4.086C-1.842,4.747 -1.861,5.419 -1.828,6.088C-1.518,6.411 -1.21,6.733 -0.9,7.057C-0.845,4.574 -1.386,2.137 -1.828,-0.307" style="fill:rgb(141,72,78);fill-rule:nonzero;"/>
            </g>
            <g transform="matrix(1,0,0,1,163.54,95.0419)">
                <path d="M0,-70.892C-0.86,-71.493 -1.714,-72.088 -2.567,-72.683C-3.805,-73.618 -5.045,-74.548 -6.276,-75.488C-7.335,-76.296 -8.419,-76.987 -9.979,-75.996C-9.681,-74.763 -9.151,-73.559 -9.138,-72.289C-9.119,-70.431 -9.415,-68.524 -9.68,-66.639C-9.888,-65.154 -10.352,-63.659 -9.085,-62.526C-8.912,-62.371 -8.953,-61.941 -9.003,-61.642C-9.513,-58.579 -10.011,-55.515 -10.58,-52.455C-11.035,-50.004 -12.527,-49.249 -14.646,-50.366C-15.045,-50.576 -15.316,-50.975 -15.647,-51.288C-17.946,-50.376 -18.039,-50.274 -18.021,-48.157C-18.011,-47.023 -17.895,-45.902 -17.895,-44.767C-17.895,-43.689 -18.256,-42.618 -18.305,-41.5C-18.446,-38.25 -19.083,-34.956 -19.607,-31.682C-19.899,-29.861 -21.587,-29.151 -23.053,-30.183C-23.354,-30.394 -23.457,-30.833 -23.748,-31.062C-24.599,-31.732 -25.935,-31.512 -26.952,-30.587C-27.544,-27.39 -28.257,-24.193 -28.673,-20.997C-28.816,-19.894 -29.782,-18.904 -29.942,-17.826C-29.937,-17.64 -29.941,-17.455 -29.946,-17.271C-29.92,-17.086 -29.864,-16.897 -29.77,-16.704C-29.767,-16.697 -29.866,-16.638 -29.99,-16.565C-30.087,-15.538 -30.325,-14.522 -30.721,-13.492C-30.747,-13.424 -30.78,-13.359 -30.808,-13.292C-30.802,-12.904 -30.831,-12.527 -30.897,-12.177C-30.926,-12.029 -30.974,-11.898 -31.013,-11.759C-30.955,-11.695 -30.913,-11.641 -30.93,-11.618C-31.056,-11.437 -31.148,-11.248 -31.261,-11.064C-31.406,-10.738 -31.579,-10.433 -31.783,-10.15C-32.423,-8.851 -32.83,-7.49 -33.29,-6.142C-33.421,-5.758 -33.489,-5.17 -33.756,-5.035C-35.642,-4.071 -35.153,-2.456 -35.537,-1.084C-36.018,0.188 -35.508,0.983 -34.467,1.596C-32.539,2.733 -30.215,2.74 -27.99,3.079C-24.422,3.623 -20.646,3.578 -17.413,5.116C-16.895,5.453 -16.298,5.574 -15.628,5.488C-14.234,5.354 -12.903,5.373 -11.554,5.671C-9.638,6.095 -7.682,5.906 -6.218,4.001C-5.267,2.093 -5.961,0.609 -7.048,-0.74C-8.016,-1.942 -7.934,-3.345 -6.69,-4.364C-4.988,-5.759 -3.174,-7.07 -1.332,-8.287C-1.333,-8.288 -1.335,-8.289 -1.336,-8.29C-1.487,-8.43 -1.615,-8.581 -1.746,-8.731C-2.661,-8.991 -3.559,-9.49 -4.211,-10.095C-5.334,-11.136 -5.999,-12.63 -6.137,-14.125C-6.257,-15.434 -5.998,-16.725 -5.433,-17.843C-5.614,-18.129 -5.782,-18.423 -5.919,-18.732C-6.671,-18.973 -7.423,-19.214 -8.174,-19.455C-8.734,-19.624 -8.851,-20.282 -9.434,-20.425C-10.548,-20.695 -11.375,-21.358 -11.194,-22.485C-11,-23.707 -9.737,-24.001 -8.665,-24.278C-7.845,-24.49 -6.996,-24.644 -6.217,-24.968C-4.697,-25.597 -4.277,-26.722 -4.951,-28.021C-6.339,-27.815 -6.928,-28.829 -7.774,-29.448C-8.205,-29.619 -8.718,-29.702 -9.05,-29.975C-10.12,-30.857 -9.634,-33.676 -8.234,-34.32C-7.02,-34.879 -5.704,-35.202 -4.423,-35.581C-3.125,-35.965 -2.833,-36.386 -3.44,-37.271C-3.686,-37.629 -4.135,-37.85 -4.491,-38.134C-4.658,-38.377 -4.885,-38.595 -4.983,-38.867C-5.777,-41.068 -5.151,-42.058 -2.619,-42.787C-1.738,-43.04 -0.867,-43.393 -0.024,-43.78C1.276,-44.378 1.339,-44.662 0.664,-46.135C0.114,-46.257 -0.471,-46.312 -0.978,-46.512C-2.604,-47.154 -3.606,-49.574 -2.406,-50.812C-1.297,-51.955 -0.246,-53.69 1.846,-53.574C2.186,-53.556 2.577,-53.809 2.944,-53.937C2.753,-54.222 2.636,-54.608 2.356,-54.774C1.012,-55.573 -0.378,-56.312 -1.752,-57.073C-3.433,-59.487 -3.433,-59.487 -0.486,-61.354C-0.343,-61.446 -0.095,-61.489 -0.047,-61.599C0.163,-62.075 0.508,-62.617 0.44,-63.042C0.362,-63.531 -0.1,-63.921 -0.394,-64.354C-4.121,-65.88 -4.038,-67.463 0,-70.892" style="fill:rgb(35,36,41);fill-rule:nonzero;"/>
            </g>
            <g transform="matrix(1,0,0,1,45.1348,124.571)">
                <path d="M0,-12.144C0.123,-12.206 0.249,-12.261 0.378,-12.307C3.552,-12.744 6.711,-13.37 9.868,-14.034C13.001,-13.931 16.144,-14.338 19.303,-14.891C20.231,-15.053 21.734,-15.172 22.019,-14.713C22.728,-13.572 24.289,-12.891 23.951,-11.07C23.612,-9.242 23.73,-7.478 22.989,-5.558C22.445,-4.149 22.095,-2.551 21.575,-1.045C20.608,1.754 18.261,2.924 15.646,1.916C15.104,1.707 14.482,1.64 13.894,1.516C12.833,1.293 11.776,1.051 10.703,0.862C9.904,0.721 9.093,0.561 8.268,0.565C2.221,0.589 -3.831,0.654 -9.881,0.706C-12.84,1.404 -15.821,1.917 -18.775,2.641C-20.348,3.028 -20.581,2.145 -20.258,1.124C-19.882,-0.069 -19.212,-1.341 -18.27,-2.203C-14.458,-5.689 -10.259,-8.659 -5.338,-10.415C-3.575,-11.045 -1.871,-11.95 0,-12.144" style="fill:rgb(227,206,13);fill-rule:nonzero;"/>
            </g>
            <g transform="matrix(1,0,0,1,74.042,126.858)">
                <path d="M0,10.386C-1.163,9.331 -2.559,8.708 -4.277,8.621C-4.848,8.593 -5.445,8.512 -5.939,8.3C-9.737,6.669 -13.965,6.767 -18.209,6.852C-20.619,6.901 -23.047,6.923 -25.396,6.671C-27.136,6.484 -28.761,5.835 -30.437,5.391C-30.881,5.235 -31.363,4.856 -31.761,4.962C-33.895,5.532 -34.14,3.383 -35.565,2.942C-35.753,2.883 -35.796,1.994 -35.571,1.682C-35.288,1.289 -34.646,0.878 -34.184,0.85C-31.611,0.692 -29.033,0.558 -26.481,0.589C-24.088,0.617 -21.718,0.822 -19.356,1.032C-18.486,1.11 -17.625,1.345 -16.846,1.661C-16.241,1.907 -15.131,0.951 -14.977,2.178C-13.446,1.338 -12.148,2.166 -10.762,2.257C-7.817,2.452 -4.716,2.395 -2.03,3.212C0.931,4.115 3.997,4.161 7.068,4.348C9.439,4.491 11.859,4.506 14.268,4.3C15.541,4.192 16.922,3.658 18.1,3.019C20.226,1.864 22.235,0.484 24.293,-0.802C26.276,-1.552 26.903,0.06 28.046,0.779C29.426,2.417 30.105,4.312 29.612,6.585C28.995,9.426 27.003,10.665 24.316,9.927C23.724,9.631 23.179,9.2 22.529,9.063C19.178,8.352 15.646,8.603 12.165,9.07C10.507,9.292 8.818,10.328 7.234,11.174C5.934,11.868 5.078,11.938 3.878,11.158C2.89,10.517 1.315,10.615 0,10.386" style="fill:rgb(225,204,16);fill-rule:nonzero;"/>
            </g>
            <g transform="matrix(1,0,0,1,90.6714,112.122)">
                <path d="M0,10.748C1.349,11.598 2.699,12.447 4.053,13.301C3.191,14.586 1.339,14.759 0.426,16.111C0.281,16.326 -0.338,16.314 -0.739,16.368C-6.285,17.107 -11.656,16.587 -17.051,16.248C-17.368,16.227 -17.833,16.207 -17.944,16.017C-18.514,15.038 -19.523,15.205 -20.527,15.258C-22.377,15.355 -23.294,14.253 -22.349,12.686C-20.235,9.185 -20.051,5.508 -19.546,1.86C-19.419,0.947 -19.36,0.016 -20.181,-0.86C-21.191,-1.939 -20.017,-4.009 -18.368,-4.698C-17.596,-5.021 -16.884,-5.539 -16.103,-5.795C-15.23,-6.082 -14.273,-6.359 -13.417,-6.312C-11.132,-6.183 -8.881,-5.877 -6.616,-5.642C-5.621,-5.054 -5.86,-4.05 -6.072,-3.133C-7.122,1.422 -5.401,4.868 -2.502,7.863C-1.613,8.781 -0.549,9.557 0,10.748" style="fill:rgb(225,204,16);fill-rule:nonzero;"/>
            </g>
            <g transform="matrix(1,0,0,1,128.003,107.918)">
                <path d="M0,-13.961C0.078,-12.974 0.548,-12.308 1.481,-11.857C3.458,-10.904 5.56,-10.52 7.914,-10.586C9.522,-10.632 11.084,-10.174 12.656,-9.909C14.245,-9.642 15.835,-9.37 17.396,-9.023C17.825,-8.928 18.153,-8.559 18.528,-8.315C17.647,-6.972 16.421,-7.48 15.328,-7.464C10.892,-7.403 6.793,-8.577 2.535,-9.176C-0.706,-9.632 -4.026,-9.77 -7.373,-9.515C-12.027,-9.159 -16.406,-9.893 -20.891,-10.355C-26.47,-10.928 -36.677,-8.518 -39.74,-1.577C-40.082,-0.8 -40.655,-0.148 -41.597,0.081C-43.003,0.254 -43.567,-0.412 -43.561,-1.646C-43.942,-1.978 -44.349,-2.29 -44.701,-2.649C-45.157,-3.113 -45.312,-3.633 -44.627,-4.2C-44,-3.664 -43.352,-3.847 -42.74,-4.417C-42.323,-4.803 -41.96,-5.244 -41.574,-5.66C-40.009,-7.904 -38.222,-9.684 -35.401,-10.733C-31.902,-12.034 -28.57,-13.889 -24.824,-14.125C-21.756,-14.215 -18.786,-14.012 -15.933,-13.141C-14.629,-12.743 -13.065,-12.899 -11.611,-12.855C-9.243,-12.783 -6.874,-12.711 -4.494,-12.723C-2.944,-12.73 -1.326,-12.623 0,-13.961" style="fill:rgb(14,82,52);fill-rule:nonzero;"/>
            </g>
            <g transform="matrix(1,0,0,1,84.4424,128.154)">
                <path d="M0,-21.881C0.458,-21.118 1.005,-20.476 2.132,-20.621C2.99,-19.57 2.581,-18.243 2.492,-17.01C2.33,-14.741 3.103,-12.856 4.656,-11.434C6.995,-9.293 9.375,-7.282 12.707,-6.216C15.118,-5.444 17.209,-4.896 19.737,-6.222C21.231,-5.694 20.729,-4.665 19.9,-3.853C18.854,-2.825 18.398,-1.702 18.213,-0.433C17.75,0 17.346,-0.126 16.957,-0.402C15.937,-0.967 14.915,-1.532 13.894,-2.097C11.173,-2.868 9.245,-5.035 6.229,-5.283C4.605,-5.206 4.295,-6.675 3.414,-7.416C-0.248,-10.498 -1.826,-14.488 -0.544,-19.571C-0.371,-20.258 -0.433,-20.971 -0.387,-21.672C-0.249,-21.725 -0.12,-21.794 0,-21.881" style="fill:rgb(14,82,52);fill-rule:nonzero;"/>
            </g>
            <g transform="matrix(1,0,0,1,26.9077,126.511)">
                <path d="M0,0.957C1.689,0.707 3.379,0.476 5.067,0.2C5.936,0.058 6.8,-0.163 7.666,-0.349C7.553,0.189 7.44,0.728 7.328,1.268C5.285,1.277 3.239,1.306 1.201,1.281C0.786,1.275 0.4,1.07 0,0.957" style="fill:rgb(96,99,75);fill-rule:nonzero;"/>
            </g>
            <g transform="matrix(1,0,0,1,102.532,134.388)">
                <path d="M0,-6.736C-0.214,-7.116 -0.503,-7.468 -0.615,-7.883C-0.681,-8.127 -0.543,-8.516 -0.36,-8.757C0.503,-9.895 2.222,-10.561 2.062,-12.259C1.804,-12.56 1.61,-12.927 1.763,-13.326C2.42,-15.052 1.311,-15.401 -0.04,-15.485C-2.434,-15.632 -4.356,-16.697 -6.262,-17.743C-8.486,-18.964 -8.061,-22.385 -5.61,-23.641C-4.697,-23.315 -4.501,-22.508 -4.22,-21.72C-3.833,-20.634 -3.271,-19.664 -1.787,-19.689C-0.516,-19.559 0.669,-18.946 2.056,-19.538C2.664,-21.257 3.414,-22.989 1.627,-24.225C1.349,-24.416 1.109,-24.638 0.934,-24.92C0.709,-26.769 2.155,-26.547 3.248,-26.632C6.463,-26.882 9.533,-26.451 12.564,-25.854C15.503,-25.337 17.983,-24.096 19.716,-21.919C21.651,-19.485 22.907,-16.686 23.166,-13.458C23.412,-10.718 23.651,-10.473 26.576,-10.641C28.772,-10.766 31.068,-10.404 33.034,-12.227C33.202,-12.383 33.529,-12.416 33.765,-12.382C38.777,-11.68 42.877,-15.124 47.413,-16.574C48.127,-16.802 48.769,-17.336 49.561,-17.292C52.174,-16.411 52.42,-15.411 50.686,-13.202C49.646,-11.878 48.47,-10.867 46.764,-10.511C45.926,-10.338 45.129,-9.953 44.535,-9.298C43.581,-8.244 43.313,-7.271 44.779,-6.69C46.307,-6.085 47.835,-5.468 49.634,-5.571C49.871,-5.571 50.099,-5.539 50.318,-5.478C52.063,-4.411 51.04,-3.612 49.643,-3.069C47.557,-2.258 45.547,-1.337 43.787,0.08C42.497,1.118 42.298,2.05 43.87,2.698C44.748,2.973 45.815,3.007 46.061,4.091C44.84,7.61 41.607,9.007 38.5,10.272C37.04,10.866 35.619,11.042 34.941,12.688C34.612,13.485 33.76,13.887 32.971,14.252C31.999,14.701 31.179,15.284 30.8,16.291C30.12,16.479 29.292,16.37 29.169,17.432C28.901,19.744 28.235,20.146 26.007,19.431C24.932,17.785 25.657,15.89 25.897,14.067C26.019,13.153 26.647,12.063 25.676,11.473C24.593,10.816 23.423,11.368 22.427,12.156C19.646,14.356 16.714,16.293 13.524,17.874C11.256,18.999 8.952,19.685 6.522,19.838C5.97,19.652 5.417,19.465 4.864,19.28C3.851,19.615 3.007,19.535 2.484,18.665C2.678,17.807 2.828,16.942 3.073,16.091C4.004,12.856 2.61,10.419 0.981,8.061C0.855,7.877 0.638,7.751 0.528,7.561C-0.736,5.346 -2.625,3.822 -5.214,2.921C-4.766,2.921 -4.316,2.921 -3.868,2.92C-1.612,2.227 0.4,2.461 2.095,3.912C-0.088,0.457 -0.001,-0.922 2.555,-2.505C4.475,-2.654 6.37,-2.804 7.701,-1.318C8.179,-0.784 8.961,-0.726 9.749,-1.051C10.105,-1.198 10.308,-1.5 10.219,-1.832C9.983,-2.718 9.131,-2.975 8.332,-2.883C6.436,-2.666 4.565,-2.856 2.667,-2.482C1.568,-2.599 0.623,-2.77 0.797,-4.212C0.908,-5.135 -0.053,-5.764 0,-6.736" style="fill:rgb(34,34,38);fill-rule:nonzero;"/>
            </g>
            <g transform="matrix(1,0,0,1,98.5371,149.222)">
                <path d="M0,9.151C-1.625,9.562 -3.35,9.734 -4.849,10.442C-6.865,11.393 -8.82,11.026 -10.779,11.312C-13.512,11.712 -16.26,11.532 -19.006,11.661C-19.82,11.7 -20.76,11.742 -21.453,12.132C-23.569,13.325 -25.687,14.572 -27.606,16.043C-28.371,16.628 -28.763,17.83 -29.064,18.795C-29.62,20.571 -30.48,20.999 -31.99,20.067C-32.377,19.829 -32.776,19.607 -33.17,19.378C-34.478,17.539 -34.297,15.305 -34.217,13.109C-34.2,12.652 -34.09,12.06 -33.779,11.726C-32.459,10.306 -31.218,8.702 -29.624,7.654C-27.736,6.413 -25.537,5.605 -23.422,4.763C-22.829,4.527 -21.957,4.667 -21.379,4.919C-17.663,6.54 -13.991,7.84 -9.518,5.237C-8.658,4.737 -7.716,4.699 -7.376,3.559C-7.276,3.224 -6.661,2.887 -6.226,2.7C-4.517,1.963 -4.602,0.477 -4.21,-0.792C-4.16,-0.956 -4.526,-1.327 -4.763,-1.355C-4.948,-1.377 -5.372,-1.043 -5.452,-0.819C-6.327,1.643 -8.53,2.554 -10.74,3.381C-12.012,3.856 -13.344,4.222 -14.659,4.438C-16.653,4.765 -18.064,3.775 -19.333,2.671C-19.838,2.231 -20.168,1.615 -20.564,1.069C-21.8,-0.637 -22.024,-2.412 -20.996,-4.653C-19.809,-7.239 -18.134,-8.637 -15.267,-9.591C-12.872,-10.388 -10.52,-10.941 -8.109,-11.37C-5.429,-11.848 -3.038,-11.554 -1.161,-9.831C-0.954,-9.642 -0.573,-9.622 -0.274,-9.522C4.539,-7.9 7.001,-3.72 6.068,1.26C5.937,1.959 5.767,2.655 5.614,3.352C4.707,6.096 2.466,7.718 0,9.152L0,9.151Z" style="fill:rgb(223,42,53);fill-rule:nonzero;"/>
            </g>
            <g transform="matrix(1,0,0,1,105.215,135.002)">
                <path d="M0,-3.105C-0.278,-2.75 -0.852,-2.28 -0.781,-2.06C-0.569,-1.401 -0.746,-1.218 -1.396,-0.788C-1.782,-0.532 -1.762,0.453 -1.757,1.088C-1.756,1.245 -1.113,1.415 -0.744,1.414C0.058,1.413 0.833,1.431 0.718,2.415C0.649,3.004 0.386,4.058 0.147,4.103C-0.619,4.245 -2.023,4.21 -2.099,3.896C-2.534,2.072 -4.043,2.555 -5.382,2.554C-5.783,2.554 -6.162,2.393 -6.551,2.306C-6.652,2.132 -6.753,1.958 -6.856,1.784C-2.971,1.34 -0.951,-1.9 -2.567,-5.129C-2.935,-5.862 -3.396,-6.544 -3.814,-7.251C-3.438,-7.285 -3.06,-7.317 -2.683,-7.35C-2.292,-6.834 -1.618,-6.37 -1.57,-5.789C-1.472,-4.575 -0.679,-3.886 -0.004,-3.078L0,-3.105Z" style="fill:rgb(34,34,38);fill-rule:nonzero;"/>
            </g>
            <g transform="matrix(1,0,0,1,98.5371,152.909)">
                <path d="M0,5.465C1.871,3.531 3.743,1.599 5.614,-0.335C5.903,-0.175 6.191,-0.014 6.479,0.146C7.272,0.35 8.066,0.555 8.859,0.759C8.635,1.004 8.301,1.489 8.202,1.459C6.616,0.975 5.858,2.238 4.781,3.025C3.337,4.08 2.125,5.8 0,5.465" style="fill:rgb(117,38,30);fill-rule:nonzero;"/>
            </g>
            <g transform="matrix(1,0,0,1,125.189,99.4471)">
                <path d="M0,21.8C-0.551,20.19 -1.044,18.554 -1.667,16.975C-2.769,14.183 -4.248,11.776 -7.585,10.817C-8.482,10.559 -9.449,10.075 -10.338,9.621C-13.864,6.775 -18.232,6.962 -22.687,8.385C-24.703,9.029 -26.225,11.12 -28.533,11.459C-29.854,12.695 -29.521,14.138 -29.547,15.504C-29.554,15.874 -29.183,16.361 -28.824,16.512C-26.348,17.554 -23.988,18.822 -21.119,19.093C-19.507,19.244 -19.402,19.61 -20.037,21.108C-20.255,21.623 -20.412,22.156 -20.596,22.681C-23.185,24.955 -25.609,24.734 -28.009,23.19C-28.503,22.871 -29.213,22.834 -29.808,22.633C-31.6,22.028 -33.464,21.516 -34.353,19.738C-34.481,19.482 -34.733,19.257 -34.993,19.108C-38.207,17.254 -39.579,14.481 -38.945,10.676C-38.801,9.814 -38.723,8.95 -38.615,8.086C-38.338,7.773 -37.915,7.486 -37.807,7.144C-37.135,5.006 -35.408,3.502 -33.891,1.902C-33.283,1.26 -32.346,0.88 -31.542,0.409C-28.892,-1.146 -26.004,-1.72 -23.118,-2.376C-19.695,-3.155 -16.607,-2.625 -13.446,-1.911C-11.366,-1.441 -9.035,-1.463 -6.799,-1.632C-2.969,-1.921 0.779,-1.818 4.525,-1.56C6.905,-1.397 9.063,-0.724 11.308,-0.207C14.158,0.448 17.328,0.266 20.365,0.417C20.672,0.432 21.016,0.247 21.342,0.155C21.815,0.217 22.29,0.279 22.764,0.342C25.604,1.556 28.752,1.499 31.939,1.243C33.202,1.142 34.457,1.061 35.688,1.193C38.392,1.484 38.673,2.701 37.249,5.114C34.34,10.049 29.798,13.272 25.072,16.376C22.35,17.642 19.842,19.318 17.224,20.758C13.619,22.741 9.619,22.934 5.733,22.965C3.703,22.982 1.525,23.283 0,21.8" style="fill:rgb(14,154,60);fill-rule:nonzero;"/>
            </g>
            <g transform="matrix(1,0,0,1,149.819,97.5006)">
                <path d="M0,17.806C2.677,15.9 5.365,14.009 8.02,12.073C8.492,11.728 8.938,11.238 9.195,10.742C10.04,9.108 10.991,7.577 12.311,6.17C13.557,4.841 13.143,3.982 11.421,3.941C7.889,3.856 4.357,3.764 0.813,3.767C-0.497,3.769 -1.389,3.374 -1.866,2.287C-0.32,2.205 1.275,1.772 2.646,2.672C3.008,2.91 3.768,2.738 4.328,2.615C5.323,2.396 6.305,2.07 7.294,1.788C8.509,1.536 9.721,1.285 10.934,1.034C11.663,0.242 12.58,-0.261 13.563,-0.667C13.939,-0.786 14.318,-0.835 14.697,-0.827C19.82,-0.678 20.477,0.782 17.214,5.059C15.463,7.354 13.313,9.365 11.839,11.887C11.016,13.295 8.771,13.397 7.67,14.81C5.734,16.015 3.981,17.59 1.651,18.013C1.052,18.121 0.346,18.641 0,17.806" style="fill:rgb(14,82,52);fill-rule:nonzero;"/>
            </g>
            <g transform="matrix(1,0,0,1,148.489,149.979)">
                <path d="M0,-11.72C2.053,-12.421 3.29,-11.082 4.772,-10.441C5.41,-10.165 5.021,-9.501 4.43,-9.126C3.125,-8.299 1.802,-7.501 0.498,-6.672C-0.567,-5.994 -1.675,-5.358 -2.652,-4.574C-3.531,-3.871 -3.774,-2.945 -3.286,-2.018C-4.052,-2.199 -4.809,-2.407 -5.586,-2.557C-6.428,-2.719 -7.287,-2.826 -8.503,-3.013C-8.046,-1.806 -7.956,-0.733 -9.453,-0.808C-11.172,-0.894 -12.6,0.044 -14.162,0.492C-14.489,0.586 -14.825,0.633 -15.157,0.701C-15.847,-0.776 -15.847,-0.776 -14.391,-1.475C-13.925,-1.699 -13.472,-2.016 -12.992,-2.125C-12.006,-2.352 -11.679,-2.877 -11.396,-3.784C-10.854,-5.53 -10.467,-5.684 -8.477,-5.799C-7.119,-5.876 -5.833,-6.141 -4.862,-7.358C-4.56,-7.738 -4.074,-8.031 -3.627,-8.28C-2.096,-9.132 -0.78,-10.17 0,-11.72" style="fill:rgb(32,28,30);fill-rule:nonzero;"/>
            </g>
            <g transform="matrix(1,0,0,1,157.063,124.541)">
                <path d="M0,-12.312C-0.369,-10.678 -1.954,-9.692 -3.132,-9.033C-4.216,-8.426 -4.309,-7.49 -5.097,-6.937C-5.552,-6.753 -6.02,-6.599 -6.457,-6.377C-7.111,-6.045 -7.718,-5.562 -8.395,-5.333C-9.258,-5.041 -10.455,-5.503 -10.719,-4.065C-12.94,-4.104 -14.608,-2.157 -16.745,-1.92C-17.814,-1.802 -18.882,-1.801 -19.951,-1.703C-20.594,-1.644 -21.823,-2.75 -21.65,-0.85C-21.643,-0.773 -22.024,-0.535 -22.224,-0.514C-24.779,-0.243 -27.342,0.094 -29.885,0.197C-30.598,0.226 -31.552,-0.287 -31.848,-0.852C-32.181,-1.488 -31.893,-2.464 -31.874,-3.293C-30.207,-3.177 -28.552,-2.977 -26.871,-2.963C-24.736,-2.947 -22.536,-2.751 -20.443,-3.236C-17.915,-3.821 -15.12,-4.143 -13.062,-6.143C-11.821,-7.348 -10.437,-7.99 -8.856,-8.431C-8.298,-8.587 -7.781,-8.96 -7.245,-9.235C-5.064,-10.114 -2.488,-10.153 -0.957,-12.449C-0.897,-12.538 -0.33,-12.363 0,-12.312" style="fill:rgb(14,82,52);fill-rule:nonzero;"/>
            </g>
            <g transform="matrix(1,0,0,1,96.6567,110.626)">
                <path d="M0,0.28C0.062,0.129 0.08,-0.095 0.191,-0.163C2.158,-1.364 4.043,-2.821 6.136,-3.656C8.24,-4.494 10.521,-4.682 12.752,-4.34C14.263,-4.109 15.795,-4.069 17.119,-3.317C17.849,-2.901 18.422,-2.51 18.194,-1.558C14.887,-1.854 11.634,-2.408 8.213,-2.163C7.346,-2.102 6.873,-1.965 7.199,-1.067C6.743,-0.165 5.958,0.165 4.999,0.407C2.617,1.007 2.449,1.389 3.677,3.06C4.032,3.542 4.467,3.975 4.039,4.687C2.043,4.962 1.459,3.607 0.838,2.323C0.519,1.663 0.277,0.962 0,0.28" style="fill:rgb(34,34,38);fill-rule:nonzero;"/>
            </g>
            <g transform="matrix(1,0,0,1,114.633,135.46)">
                <path d="M0,8.247C-1.754,9.319 -1.754,9.319 -5.196,8.41C-5.197,7.409 -3.794,6.576 -4.496,5.374C-5.091,4.355 -5.921,3.903 -7.22,3.918C-6.713,2.084 -5.729,1.215 -4.004,1.098C-3.423,1.058 -2.695,1.063 -2.271,0.746C0.152,-1.072 1.27,0.632 2.629,1.727L2.638,1.703C1.874,2.387 0.088,1.802 0.195,3.567C-0.226,3.498 -0.937,3.552 -1.014,3.339C-1.284,2.59 -1.429,1.84 -2.64,2.022C-2.913,2.575 -0.724,3.044 -2.786,3.752C-3.684,4.06 -3.671,4.954 -2.849,4.976C-0.506,5.04 -0.382,6.729 -0.006,8.283L0,8.247Z" style="fill:rgb(78,80,86);fill-rule:nonzero;"/>
            </g>
            <g transform="matrix(1,0,0,1,100.695,110.748)">
                <path d="M0,4.566C-0.458,4.086 -0.857,3.539 -1.385,3.135C-2.776,2.073 -2.704,0.968 -0.948,0.253C-0.333,0.002 -0.038,-1.399 1.089,-0.538C1.383,-0.313 2.449,-0.948 3.16,-1.188C3.421,-1.171 3.682,-1.154 3.943,-1.137C5.348,0.501 4.03,2.65 4.397,4.482C2.771,5.965 1.448,4.699 0,4.566" style="fill:rgb(202,207,217);fill-rule:nonzero;"/>
            </g>
            <g transform="matrix(1,0,0,1,113.41,111.792)">
                <path d="M0,5.936C-0.561,3.978 -0.675,2.235 -0.088,0.446C0.279,-0.67 2.655,-1.244 3.816,-0.328C5.417,0.935 6.804,2.443 8.161,3.948C8.505,4.329 8.466,5.085 8.464,5.685C8.461,6.643 7.886,7.168 6.851,7.149C5.214,7.118 3.55,7.18 1.957,6.981C1.211,6.888 0.604,6.276 0,5.936" style="fill:rgb(202,207,217);fill-rule:nonzero;"/>
            </g>
            <g transform="matrix(1,0,0,1,120.988,130.542)">
                <path d="M0,-3.382C1.82,-3.514 3.409,-3.387 4.888,-3.814C6.048,-4.148 6.843,-4.045 7.628,-3.509C8.368,-3.004 9.047,-2.423 9.763,-1.868C9.953,-1.119 7.683,-1.409 8.793,-0.227C8.818,-0.2 8.568,0.164 8.396,0.24C7.212,0.766 5.391,0.413 4.695,-0.612C4.078,-1.524 3.524,-2.204 2.165,-1.335C1.912,-1.174 1.509,-1.255 1.176,-1.21C-0.823,-0.946 -1.117,-1.379 -0.137,-3.161C-0.023,-3.367 0.114,-3.565 0,-3.382" style="fill:rgb(77,83,86);fill-rule:nonzero;"/>
            </g>
            <g transform="matrix(1,0,0,1,114.627,143.11)">
                <path d="M0,0.633C0.994,-1.758 2.423,-2.603 4.249,-1.59C5.325,-0.992 6.055,0.123 6.156,1.47C6.232,2.469 5.725,2.821 4.633,2.955C2.329,3.236 0.821,2.486 0.006,0.597L0,0.633Z" style="fill:rgb(78,80,86);fill-rule:nonzero;"/>
            </g>
            <g transform="matrix(1,0,0,1,117.262,135.149)">
                <path d="M0,2.038C0.114,1.912 0.323,1.78 0.329,1.662C0.396,0.442 0.868,-0.395 2.475,-0.52C2,-0.807 1.524,-1.095 1.018,-1.403C3.038,-2.471 3.409,-2.3 3.694,-0.467C3.784,0.11 4.207,0.599 4.437,1.146C4.665,1.689 4.965,2.233 5.015,2.818C5.132,4.182 4.745,4.509 3.302,4.371C1.679,4.216 -0.127,4.241 0.009,2.014L0,2.038Z" style="fill:rgb(78,80,86);fill-rule:nonzero;"/>
            </g>
            <g transform="matrix(1,0,0,1,105.211,132.804)">
                <path d="M0,-0.879C0.604,-1.481 0.909,-2.82 2.163,-1.725C2.447,-1.477 3.323,-1.588 3.806,-1.817C5.132,-2.448 6.252,-2.131 7.382,-1.769C8.696,-1.347 9.036,-0.538 8.466,0.738C8.373,0.947 8.211,1.189 8.016,1.306C6.949,1.941 4.673,1.39 4.012,0.47C3.753,0.109 3.25,-0.145 2.785,-0.283C1.886,-0.552 0.935,-0.705 0.004,-0.906L0,-0.879Z" style="fill:rgb(78,80,86);fill-rule:nonzero;"/>
            </g>
            <g transform="matrix(1,0,0,1,127.897,134.706)">
                <path d="M0,-0.879C0.584,0.202 -0.188,1.415 -1.565,1.407C-2.435,1.402 -3.972,1.182 -3.978,0.892C-3.996,-0.083 -4.267,-0.676 -5.137,-1.045C-5.161,-1.056 -5.035,-1.514 -4.88,-1.619C-3.886,-2.294 -0.474,-1.757 0,-0.879" style="fill:rgb(91,92,99);fill-rule:nonzero;"/>
            </g>
            <g transform="matrix(0.665842,-0.746093,-0.746093,-0.665842,121.001,123.917)">
                <path d="M-1.739,-0.904C-2.876,0.366 -4.227,1.545 -3.151,3.301C-2.782,3.904 -2.342,3.957 -1.739,3.544C-1.536,3.406 -1.389,3.2 -1.212,3.028C0.8,1.063 0.747,0.612 -1.739,-0.904" style="fill:rgb(144,146,152);fill-rule:nonzero;"/>
            </g>
        </g>
    </g>
</svg>
