<?xml version="1.0" encoding="UTF-8" standalone="no"?>
<!DOCTYPE svg PUBLIC "-//W3C//DTD SVG 1.1//EN" "http://www.w3.org/Graphics/SVG/1.1/DTD/svg11.dtd">
<svg width="100%" height="100%" viewBox="0 0 192 192" version="1.1" xmlns="http://www.w3.org/2000/svg" xmlns:xlink="http://www.w3.org/1999/xlink" xml:space="preserve" xmlns:serif="http://www.serif.com/" style="fill-rule:evenodd;clip-rule:evenodd;stroke-linejoin:round;stroke-miterlimit:2;">
    <g>
        <g id="bomb0" transform="matrix(1.01296,0,0,1.01435,-17.0257,-4.41266)">
            <rect id="svg_1" x="162.324" y="18.36" width="15.997" height="11.312" style="fill:white;"/>
            <rect id="svg_2" x="176" y="32" width="16" height="16" style="fill:white;"/>
            <path id="svg_4" d="M150.845,36.422C149.96,38.191 148.455,40 144,40C140.638,40 138.439,36.861 134.225,29.7C128.835,20.542 121.455,8 104,8C94.48,8 89.4,12.559 86.806,16.383C82.411,22.874 82.219,31.875 83.406,40L99.664,40C98.488,33.87 98.25,28.019 100.055,25.354C100.329,24.948 100.972,24 104,24C111.92,24 115.243,28.992 120.436,37.814C125.2,45.917 131.137,56 144,56C161.608,56 168,41.647 168,32L152,32C151.894,33.533 151.502,35.033 150.845,36.422Z" style="fill:white;fill-rule:nonzero;"/>
            <g id="svg_3" transform="matrix(0.987204,0,0,0.985848,16.8078,4.35022)">
                <path d="M104.53,65.244L104.53,52.391C104.53,47.939 100.872,44.276 96.426,44.276L64.011,44.276C59.565,44.276 55.908,47.939 55.908,52.391L55.908,65.244C31.469,75.143 15.389,99.027 15.389,125.426C15.389,161.039 44.655,190.344 80.219,190.344C115.783,190.344 145.048,161.039 145.048,125.426C145.048,99.027 128.969,75.143 104.53,65.244ZM80.717,74.476C108.986,74.476 131.938,97.45 131.938,125.748C131.938,154.046 108.986,177.02 80.717,177.02C52.447,177.02 29.496,154.046 29.496,125.748C29.496,97.45 52.447,74.476 80.717,74.476Z" style="fill:white;fill-rule:nonzero;"/>
            </g>
        </g>
        <g id="bomb01" serif:id="bomb0" transform="matrix(1.01296,0,0,1.01435,-17.0257,-4.41266)">
            <rect id="svg_11" serif:id="svg_1" x="162.324" y="18.36" width="15.997" height="11.312" style="fill:rgb(235,113,27);"/>
            <rect id="svg_21" serif:id="svg_2" x="176" y="32" width="16" height="16" style="fill:rgb(235,113,27);"/>
            <path id="svg_41" serif:id="svg_4" d="M150.845,36.422C149.96,38.191 148.455,40 144,40C140.638,40 138.439,36.861 134.225,29.7C128.835,20.542 121.455,8 104,8C94.48,8 89.4,12.559 86.806,16.383C82.411,22.874 82.219,31.875 83.406,40L99.664,40C98.488,33.87 98.25,28.019 100.055,25.354C100.329,24.948 100.972,24 104,24C111.92,24 115.243,28.992 120.436,37.814C125.2,45.917 131.137,56 144,56C161.608,56 168,41.647 168,32L152,32C151.894,33.533 151.502,35.033 150.845,36.422Z" style="fill:rgb(235,113,27);fill-rule:nonzero;"/>
            <g id="svg_31" serif:id="svg_3" transform="matrix(0.987204,0,0,0.985848,16.8078,4.35022)">
                <path d="M104.53,65.244L104.53,52.391C104.53,47.939 100.872,44.276 96.426,44.276L64.011,44.276C59.565,44.276 55.908,47.939 55.908,52.391L55.908,65.244C31.469,75.143 15.389,99.027 15.389,125.426C15.389,161.039 44.655,190.344 80.219,190.344C115.783,190.344 145.048,161.039 145.048,125.426C145.048,99.027 128.969,75.143 104.53,65.244ZM80.717,74.476C108.986,74.476 131.938,97.45 131.938,125.748C131.938,154.046 108.986,177.02 80.717,177.02C52.447,177.02 29.496,154.046 29.496,125.748C29.496,97.45 52.447,74.476 80.717,74.476Z" style="fill:rgb(235,113,27);fill-rule:nonzero;"/>
            </g>
        </g>
        <g id="_4" serif:id="4" transform="matrix(1.13731,0,0,1.13116,-36.1461,266.175)">
            <path d="M103.454,-89.579L103.454,-104.335L74.537,-104.335L74.537,-116.12L107.713,-158.704L116.725,-158.704L116.725,-116.219L125.439,-116.219L125.439,-104.335L116.725,-104.335L116.725,-89.579L103.454,-89.579ZM87.807,-116.219L104.94,-116.219L104.94,-138.6L87.807,-116.219Z" style="fill:rgb(235,113,27);fill-rule:nonzero;stroke:rgb(235,113,27);stroke-opacity:0;stroke-width:0.88px;"/>
        </g>
    </g>
</svg>
