<?xml version="1.0" encoding="UTF-8" standalone="no"?>
<!DOCTYPE svg PUBLIC "-//W3C//DTD SVG 1.1//EN" "http://www.w3.org/Graphics/SVG/1.1/DTD/svg11.dtd">
<svg width="100%" height="100%" viewBox="0 0 192 192" version="1.1" xmlns="http://www.w3.org/2000/svg" xmlns:xlink="http://www.w3.org/1999/xlink" xml:space="preserve" xmlns:serif="http://www.serif.com/" style="fill-rule:evenodd;clip-rule:evenodd;stroke-linejoin:round;stroke-miterlimit:2;">
    <g>
        <g id="bomb0" transform="matrix(1.01296,0,0,1.01435,-17.0257,-4.41266)">
            <rect id="svg_1" x="162.324" y="18.36" width="15.997" height="11.312" style="fill:white;"/>
            <rect id="svg_2" x="176" y="32" width="16" height="16" style="fill:white;"/>
            <path id="svg_4" d="M150.845,36.422C149.96,38.191 148.455,40 144,40C140.638,40 138.439,36.861 134.225,29.7C128.835,20.542 121.455,8 104,8C94.48,8 89.4,12.559 86.806,16.383C82.411,22.874 82.219,31.875 83.406,40L99.664,40C98.488,33.87 98.25,28.019 100.055,25.354C100.329,24.948 100.972,24 104,24C111.92,24 115.243,28.992 120.436,37.814C125.2,45.917 131.137,56 144,56C161.608,56 168,41.647 168,32L152,32C151.894,33.533 151.502,35.033 150.845,36.422Z" style="fill:white;fill-rule:nonzero;"/>
            <g id="svg_3" transform="matrix(0.987204,0,0,0.985848,16.8078,4.35022)">
                <path d="M104.53,65.244L104.53,52.391C104.53,47.939 100.872,44.276 96.426,44.276L64.011,44.276C59.565,44.276 55.908,47.939 55.908,52.391L55.908,65.244C31.469,75.143 15.389,99.027 15.389,125.426C15.389,161.039 44.655,190.344 80.219,190.344C115.783,190.344 145.048,161.039 145.048,125.426C145.048,99.027 128.969,75.143 104.53,65.244ZM80.717,74.476C108.986,74.476 131.938,97.45 131.938,125.748C131.938,154.046 108.986,177.02 80.717,177.02C52.447,177.02 29.496,154.046 29.496,125.748C29.496,97.45 52.447,74.476 80.717,74.476Z" style="fill:white;fill-rule:nonzero;"/>
            </g>
        </g>
        <g id="bomb01" serif:id="bomb0" transform="matrix(1.01296,0,0,1.01435,-17.0257,-4.41266)">
            <rect id="svg_11" serif:id="svg_1" x="162.324" y="18.36" width="15.997" height="11.312" style="fill:rgb(235,113,27);"/>
            <rect id="svg_21" serif:id="svg_2" x="176" y="32" width="16" height="16" style="fill:rgb(235,113,27);"/>
            <path id="svg_41" serif:id="svg_4" d="M150.845,36.422C149.96,38.191 148.455,40 144,40C140.638,40 138.439,36.861 134.225,29.7C128.835,20.542 121.455,8 104,8C94.48,8 89.4,12.559 86.806,16.383C82.411,22.874 82.219,31.875 83.406,40L99.664,40C98.488,33.87 98.25,28.019 100.055,25.354C100.329,24.948 100.972,24 104,24C111.92,24 115.243,28.992 120.436,37.814C125.2,45.917 131.137,56 144,56C161.608,56 168,41.647 168,32L152,32C151.894,33.533 151.502,35.033 150.845,36.422Z" style="fill:rgb(235,113,27);fill-rule:nonzero;"/>
            <g id="svg_31" serif:id="svg_3" transform="matrix(0.987204,0,0,0.985848,16.8078,4.35022)">
                <path d="M104.53,65.244L104.53,52.391C104.53,47.939 100.872,44.276 96.426,44.276L64.011,44.276C59.565,44.276 55.908,47.939 55.908,52.391L55.908,65.244C31.469,75.143 15.389,99.027 15.389,125.426C15.389,161.039 44.655,190.344 80.219,190.344C115.783,190.344 145.048,161.039 145.048,125.426C145.048,99.027 128.969,75.143 104.53,65.244ZM80.717,74.476C108.986,74.476 131.938,97.45 131.938,125.748C131.938,154.046 108.986,177.02 80.717,177.02C52.447,177.02 29.496,154.046 29.496,125.748C29.496,97.45 52.447,74.476 80.717,74.476Z" style="fill:rgb(235,113,27);fill-rule:nonzero;"/>
            </g>
        </g>
        <g id="_3" serif:id="3" transform="matrix(1.13731,0,0,1.13116,-29.3071,266.615)">
            <path d="M108.307,-125.528C112.4,-124.802 115.718,-122.838 118.26,-119.636C120.801,-116.434 122.072,-112.522 122.072,-107.9C122.072,-104.797 121.462,-101.991 120.24,-99.483C119.019,-96.974 117.302,-94.845 115.091,-93.095C112.879,-91.346 110.189,-89.992 107.02,-89.035C103.851,-88.077 100.285,-87.599 96.324,-87.599C91.306,-87.599 86.867,-88.408 83.004,-90.025C79.142,-91.643 75.923,-94.003 73.349,-97.106L80.875,-106.514C82.592,-104.335 84.638,-102.652 87.015,-101.463C89.392,-100.275 92.363,-99.681 95.928,-99.681C99.955,-99.681 103.025,-100.473 105.138,-102.057C107.251,-103.642 108.307,-106.085 108.307,-109.386C108.307,-112.819 107.086,-115.46 104.643,-117.308C102.2,-119.157 98.503,-120.081 93.551,-120.081L90.778,-120.081L90.778,-129.985L93.848,-129.985C97.942,-129.985 101.111,-130.892 103.355,-132.708C105.6,-134.523 106.722,-136.851 106.722,-139.69C106.722,-142.397 105.798,-144.41 103.95,-145.731C102.101,-147.051 99.691,-147.711 96.72,-147.711C93.683,-147.711 90.96,-147.018 88.55,-145.632C86.14,-144.245 84.176,-142.297 82.658,-139.789L74.339,-149.098C75.329,-150.616 76.65,-151.986 78.3,-153.208C79.951,-154.429 81.816,-155.485 83.896,-156.377C85.975,-157.268 88.236,-157.961 90.679,-158.456C93.122,-158.951 95.631,-159.199 98.206,-159.199C101.573,-159.199 104.643,-158.77 107.416,-157.912C110.189,-157.053 112.582,-155.865 114.595,-154.346C116.609,-152.828 118.161,-150.996 119.25,-148.85C120.339,-146.704 120.884,-144.311 120.884,-141.67C120.884,-139.69 120.587,-137.808 119.993,-136.025C119.399,-134.243 118.54,-132.625 117.418,-131.173C116.296,-129.72 114.959,-128.499 113.407,-127.509C111.856,-126.518 110.156,-125.858 108.307,-125.528Z" style="fill:rgb(235,113,27);fill-rule:nonzero;stroke:rgb(235,113,27);stroke-opacity:0;stroke-width:0.88px;"/>
        </g>
    </g>
</svg>
