<?xml version="1.0" encoding="UTF-8" standalone="no"?>
<!DOCTYPE svg PUBLIC "-//W3C//DTD SVG 1.1//EN" "http://www.w3.org/Graphics/SVG/1.1/DTD/svg11.dtd">
<svg width="100%" height="100%" viewBox="0 0 512 512" version="1.1" xmlns="http://www.w3.org/2000/svg" xmlns:xlink="http://www.w3.org/1999/xlink" xml:space="preserve" xmlns:serif="http://www.serif.com/" style="fill-rule:evenodd;clip-rule:evenodd;stroke-linejoin:round;stroke-miterlimit:2;">
    <g>
        <g id="_3" serif:id="3" transform="matrix(0.826658,0,0,0.826658,213.804,233.039)">
            <path d="M95.25,-59C105.583,-57.167 113.958,-52.208 120.375,-44.125C126.792,-36.042 130,-26.167 130,-14.5C130,-6.667 128.458,0.417 125.375,6.75C122.292,13.083 117.958,18.458 112.375,22.875C106.792,27.292 100,30.708 92,33.125C84,35.542 75,36.75 65,36.75C52.333,36.75 41.125,34.708 31.375,30.625C21.625,26.542 13.5,20.583 7,12.75L26,-11C30.333,-5.5 35.5,-1.25 41.5,1.75C47.5,4.75 55,6.25 64,6.25C74.167,6.25 81.917,4.25 87.25,0.25C92.583,-3.75 95.25,-9.917 95.25,-18.25C95.25,-26.917 92.167,-33.583 86,-38.25C79.833,-42.917 70.5,-45.25 58,-45.25L51,-45.25L51,-70.25L58.75,-70.25C69.083,-70.25 77.083,-72.542 82.75,-77.125C88.417,-81.708 91.25,-87.583 91.25,-94.75C91.25,-101.583 88.917,-106.667 84.25,-110C79.583,-113.333 73.5,-115 66,-115C58.333,-115 51.458,-113.25 45.375,-109.75C39.292,-106.25 34.333,-101.333 30.5,-95L9.5,-118.5C12,-122.333 15.333,-125.792 19.5,-128.875C23.667,-131.958 28.375,-134.625 33.625,-136.875C38.875,-139.125 44.583,-140.875 50.75,-142.125C56.917,-143.375 63.25,-144 69.75,-144C78.25,-144 86,-142.917 93,-140.75C100,-138.583 106.042,-135.583 111.125,-131.75C116.208,-127.917 120.125,-123.292 122.875,-117.875C125.625,-112.458 127,-106.417 127,-99.75C127,-94.75 126.25,-90 124.75,-85.5C123.25,-81 121.083,-76.917 118.25,-73.25C115.417,-69.583 112.042,-66.5 108.125,-64C104.208,-61.5 99.917,-59.833 95.25,-59Z" style="fill:rgb(235,113,27);fill-rule:nonzero;stroke:black;stroke-opacity:0;stroke-width:1.21px;"/>
        </g>
        <path id="flag0" d="M80,464L80,68.14C80.01,65.295 81.537,62.662 84,61.24C91.81,56.66 112.92,48 160,48C224,48 305,96 352,96C378.535,95.931 404.792,90.57 429.23,80.23C429.474,80.128 429.736,80.076 430,80.076C431.097,80.076 432,80.979 432,82.076C432,82.077 432,82.079 432,82.08L432,301.44C431.995,303.019 431.056,304.454 429.61,305.09C421.37,308.7 392.33,320 352,320C304,320 224,288 160,288C96,288 80,304 80,304" style="fill:none;fill-rule:nonzero;stroke:rgb(235,113,27);stroke-width:32px;stroke-linecap:round;stroke-linejoin:miter;stroke-miterlimit:10;"/>
    </g>
</svg>
