<?xml version="1.0" encoding="iso-8859-1"?>
<!-- Generator: Adobe Illustrator 19.0.0, SVG Export Plug-In . SVG Version: 6.00 Build 0)  -->
<svg xmlns="http://www.w3.org/2000/svg" xmlns:xlink="http://www.w3.org/1999/xlink" version="1.1" id="Capa_1" x="0px" y="0px" viewBox="0 0 512 512" style="enable-background:new 0 0 512 512;" xml:space="preserve" width="512" height="512">
<path d="M444.999,467h-9.644l-9.942-39.767C422.576,415.888,411.194,407,399.499,407h-7.5v-22.5c0-6.866-3.095-13.02-7.959-17.15  c49.052-38.969,77.961-98.291,77.961-161.35c0-113.589-92.411-206-206-206s-206,92.411-206,206  c0,63.058,28.909,122.38,77.96,161.349c-4.865,4.13-7.96,10.285-7.96,17.151V407h-7.5c-11.695,0-23.077,8.888-25.914,20.233  L76.645,467h-9.144c-12.407,0-22.5,10.093-22.5,22.5s10.093,22.5,22.5,22.5h376.998c12.407,0,22.5-10.093,22.5-22.5  S457.13,467,444.999,467z M65.001,206c0-105.318,85.682-191,191-191s191,85.682,191,191c0,62.034-30.181,120.166-80.829,156H145.83  C95.182,326.166,65.001,268.034,65.001,206z M101.139,430.871c1.161-4.643,6.576-8.871,11.362-8.871h45c4.142,0,7.5-3.358,7.5-7.5  s-3.358-7.5-7.5-7.5h-22.5v-22.5c0-4.136,3.364-7.5,7.5-7.5h0.842c0.024,0,225.225,0,225.225,0c0.015,0,0.93,0,0.93,0  c4.136,0,7.5,3.364,7.5,7.5V407H187.5c-4.142,0-7.5,3.358-7.5,7.5s3.358,7.5,7.5,7.5h211.999c4.786,0,10.201,4.229,11.362,8.871  L419.893,467H92.107L101.139,430.871z M444.499,497H67.501c-4.135,0-7.5-3.364-7.5-7.5s3.365-7.5,7.5-7.5h14.974  c0.055,0,346.995,0,346.995,0c0.055,0,15.529,0,15.529,0c3.729,0,7,3.505,7,7.5C451.999,493.636,448.634,497,444.499,497z"/>















</svg>
