<svg height="512" viewBox="0 0 128 128" width="512" xmlns="http://www.w3.org/2000/svg"><path d="m125.958 14.7-12.658-12.659a6.974 6.974 0 0 0 -9.849 0l-.585.586a6.973 6.973 0 0 0 0 9.849l1.946 1.945-10.512 10.51-10.892-10.889a6.974 6.974 0 0 0 -9.849 0l-.585.586a6.964 6.964 0 0 0 0 9.849l.583.582-44.944 44.941a6.758 6.758 0 0 0 0 9.546l2.6 2.6-17.58 17.582a1.75 1.75 0 0 0 0 2.474l4.845 4.845-17.964 17.964a1.75 1.75 0 1 0 2.475 2.474l17.963-17.963 4.846 4.845a1.748 1.748 0 0 0 2.474 0l17.581-17.58 2.6 2.6a6.76 6.76 0 0 0 9.546 0l5.3-5.3 24.033-24.035 15.608-15.609.583.583a6.971 6.971 0 0 0 9.849 0l.585-.586a6.97 6.97 0 0 0 0-9.848l-10.888-10.892 10.51-10.511 1.945 1.946a6.973 6.973 0 0 0 9.849 0l.585-.586a6.97 6.97 0 0 0 0-9.849zm-82.58 79.613-16.343 16.342-4.844-4.844-4.844-4.843 16.341-16.346 4.845 4.845zm50.729-35.986-6.779-6.778a1.75 1.75 0 1 0 -2.475 2.474l6.78 6.779-5.533 5.538-3.917-3.917a1.749 1.749 0 0 0 -2.483 2.477l3.916 3.917-5.537 5.538-6.779-6.782a1.75 1.75 0 1 0 -2.475 2.475l6.779 6.778-5.537 5.538-3.917-3.917a1.75 1.75 0 0 0 -2.475 2.475l3.925 3.917-5.538 5.538-6.783-6.777a1.749 1.749 0 0 0 -2.474 2.474l6.779 6.78-4.061 4.06a3.256 3.256 0 0 1 -4.6 0l-19.834-19.841a3.255 3.255 0 0 1 0-4.6l44.942-44.939 24.434 24.435zm17.376-6.361-.586.586a3.471 3.471 0 0 1 -4.9 0l-30.548-30.552a3.463 3.463 0 0 1 0-4.9l.585-.586a3.469 3.469 0 0 1 4.9 0l12.122 12.125 6.3 6.3 12.125 12.125a3.47 3.47 0 0 1 .002 4.902zm-10.889-20.738-3.822-3.822 10.51-10.51 3.822 3.822zm22.889-9.151-.585.586a3.469 3.469 0 0 1 -4.9 0l-3.183-3.183-6.3-6.3-3.178-3.18a3.467 3.467 0 0 1 0-4.9l.585-.586a3.469 3.469 0 0 1 4.9 0l12.662 12.663a3.467 3.467 0 0 1 -.001 4.9z"/></svg>