<?xml version="1.0" encoding="UTF-8" standalone="no"?>
<!DOCTYPE svg PUBLIC "-//W3C//DTD SVG 1.1//EN" "http://www.w3.org/Graphics/SVG/1.1/DTD/svg11.dtd">
<svg width="100%" height="100%" viewBox="0 0 512 512" version="1.1" xmlns="http://www.w3.org/2000/svg" xmlns:xlink="http://www.w3.org/1999/xlink" xml:space="preserve" xmlns:serif="http://www.serif.com/" style="fill-rule:evenodd;clip-rule:evenodd;stroke-linejoin:round;stroke-miterlimit:2;">
    <path d="M414.025,180.775C447.329,153.572 435.825,99.776 394.21,88.627C383.337,85.714 372.08,86.32 361.761,90.251L328.695,32.979C315.24,9.673 281.868,9.055 267.541,31.779C226.871,96.286 172.689,151.15 108.363,192.785C104.7,195.15 103.342,200.04 105.51,204.02C105.858,204.657 160.628,299.51 160.991,300.139C163.346,304.218 168.562,305.619 172.648,303.262C176.729,300.906 178.127,295.686 175.771,291.605L124.41,202.643C185.745,161.639 240.068,107.354 281.978,40.881C289.474,28.991 306.897,29.36 313.914,41.513L432.313,246.585C439.338,258.754 430.915,274.012 416.891,274.558C338.215,277.624 261.186,297.747 190.76,333.767C190.46,333.92 110.612,380.028 105.113,383.202C90.84,391.443 72.524,386.536 64.285,372.262L21.062,297.394C12.822,283.122 17.73,264.807 32.002,256.566L84.023,226.532C88.105,224.175 89.503,218.956 87.147,214.875C84.79,210.792 79.57,209.395 75.49,211.751L23.468,241.786C1.046,254.731 -6.664,283.505 6.282,305.928L49.506,380.795C62.453,403.219 91.227,410.927 113.649,397.981L115.617,396.845L168.982,489.277C176.648,502.554 193.597,507.102 206.882,499.433L225.599,488.627C238.88,480.959 243.422,464.008 235.754,450.727L197.932,385.218C195.576,381.137 190.357,379.739 186.276,382.095C182.194,384.451 180.796,389.671 183.152,393.752L220.974,459.261C223.925,464.371 222.177,470.895 217.066,473.845L198.348,484.652C193.238,487.603 186.714,485.854 183.764,480.744L130.398,388.312L198.725,348.862C265.586,314.7 339.969,294.633 417.557,291.612C444.446,290.563 460.529,261.319 447.093,238.051L414.025,180.775ZM411.588,121.836C420.013,136.428 416.986,154.536 405.324,165.703L370.459,105.315C385.744,100.831 403.028,107.007 411.588,121.836ZM495.052,83.896L472.973,96.645C468.889,99.002 463.671,97.601 461.316,93.521C458.959,89.44 460.358,84.221 464.439,81.864L486.519,69.116C490.603,66.759 495.82,68.16 498.176,72.24C500.532,76.321 499.134,81.54 495.052,83.896ZM400.097,35.26L405.482,15.167C406.702,10.615 411.379,7.915 415.935,9.133C420.487,10.353 423.188,15.033 421.968,19.584L416.583,39.677C415.366,44.218 410.698,46.931 406.131,45.711C401.579,44.491 398.878,39.812 400.097,35.26ZM511.707,175.017C510.685,178.829 507.237,181.343 503.469,181.343C501.924,181.343 503.005,181.519 481.162,175.666C476.609,174.446 473.907,169.767 475.128,165.215C476.348,160.662 481.027,157.963 485.579,159.181L505.672,164.564C510.224,165.784 512.927,170.464 511.707,175.017Z" style="fill:white;fill-rule:nonzero;"/>
</svg>
