<?xml version="1.0" encoding="UTF-8" standalone="no"?>
<!DOCTYPE svg PUBLIC "-//W3C//DTD SVG 1.1//EN" "http://www.w3.org/Graphics/SVG/1.1/DTD/svg11.dtd">
<svg width="100%" height="100%" viewBox="0 0 200 200" version="1.1" xmlns="http://www.w3.org/2000/svg" xmlns:xlink="http://www.w3.org/1999/xlink" xml:space="preserve" xmlns:serif="http://www.serif.com/" style="fill-rule:evenodd;clip-rule:evenodd;stroke-linejoin:round;stroke-miterlimit:2;">
    <g transform="matrix(1.00195,0,0,1.26129,-2.97786,-25.1578)">
        <g id="Layer2">
            <g>
                <g transform="matrix(1,0,0,1,183.85,131.169)">
                    <path d="M0,-26.577C1.148,-26.952 2.339,-27.224 3.555,-27.454C4.201,-27.577 4.856,-27.652 5.512,-27.723C5.725,-28.272 5.85,-28.85 5.864,-29.449C5.876,-29.946 6.103,-30.308 6.424,-30.544C6.816,-31.915 7.11,-33.238 7.209,-34.584C7.254,-35.197 6.851,-35.656 6.141,-35.872C5.407,-36.096 4.693,-36.039 4.062,-35.629C3.66,-35.368 3.383,-35.011 3.076,-34.679C2.022,-33.54 0.7,-32.724 -1.01,-32.365C-3.145,-33.204 -3.145,-33.204 -2.787,-35.634C-2.714,-35.864 -2.514,-36.035 -2.377,-36.236C-1.558,-37.432 -1.942,-37.987 -3.578,-37.956C-4.373,-37.941 -5.13,-37.76 -5.887,-37.558C-6.959,-37.271 -7.987,-36.872 -9.104,-36.704C-9.512,-36.643 -9.904,-36.646 -10.159,-36.973C-10.415,-37.3 -10.221,-37.592 -10.022,-37.881C-9.34,-38.872 -8.141,-39.317 -6.75,-39.102C-5.038,-38.838 -3.333,-38.34 -1.574,-38.707C-0.435,-38.946 1.284,-38.579 1.376,-40.174C1.439,-41.289 0.349,-41.856 -1.863,-42.009C-1.975,-42.016 -2.086,-41.987 -2.193,-41.957C-3.09,-41.74 -2.063,-40.644 -3.054,-40.574C-4.159,-40.495 -5.367,-40.158 -6.334,-40.97C-6.606,-41.148 -6.914,-41.267 -7.26,-41.313C-8.79,-41.475 -10.107,-41.278 -10.751,-39.927C-10.86,-39.819 -10.955,-39.705 -11.032,-39.579C-11.196,-39.136 -11.816,-39.041 -12.064,-38.707C-12.756,-37.779 -14.356,-37.426 -14.456,-36.136C-13.946,-35.624 -13.11,-36.195 -12.578,-35.756C-11.456,-33.681 -11.192,-31.437 -11.15,-29.235C-11.118,-27.5 -11.629,-25.69 -12.564,-24.115C-14.424,-20.981 -17.684,-19.144 -21.643,-18.048C-24.435,-17.276 -27.345,-16.935 -30.18,-16.356C-35.087,-15.353 -40.07,-14.726 -45.01,-13.895C-48.438,-13.318 -51.922,-13.024 -55.386,-12.627C-61.633,-11.91 -67.873,-11.127 -74.147,-10.618C-79.264,-10.202 -84.322,-9.486 -89.421,-8.989C-97.561,-8.196 -105.456,-6.407 -113.419,-4.888C-118.641,-3.891 -123.859,-2.886 -129.066,-1.837C-131.736,-1.299 -134.235,-0.195 -137.095,-0.248C-139.025,-0.284 -140.576,0.475 -141.778,1.688C-143.847,3.775 -146.233,5.626 -148.323,7.704C-149.14,8.517 -149.286,9.603 -150.246,10.28C-151.291,11.018 -152.102,11.901 -152.828,12.848C-153.267,13.334 -153.956,13.648 -154.24,14.239C-154.427,14.827 -154.598,15.406 -153.483,15.439C-151.589,13.788 -150.307,13.241 -147.686,12.984C-147.368,12.953 -147.223,12.748 -147.002,12.618C-145.731,12.42 -144.553,11.99 -143.487,11.43C-142.289,10.799 -142.419,10.041 -143.729,9.576C-144.13,9.434 -144.537,9.344 -144.265,8.925C-143.997,8.513 -143.648,8.683 -143.31,8.929C-141.798,10.026 -140.112,9.341 -138.494,9.203C-138.084,9.168 -137.839,8.843 -138.184,8.468L-138.188,8.461C-139.584,6.977 -138.864,5.618 -137.823,4.278C-137.375,3.586 -136.515,3.96 -135.879,3.763C-134.299,3.275 -132.987,3.766 -131.75,4.494C-130.957,4.962 -130.216,5.489 -129.452,5.989C-129.295,6.065 -129.108,6.084 -128.982,5.99C-128.096,5.333 -128.225,4.715 -129.124,4.147C-130.206,3.464 -129.679,2.616 -129.392,1.858C-129.035,0.914 -128.302,1.653 -127.739,1.724C-126.919,1.826 -126.287,1.558 -125.807,1.065C-125.325,0.571 -124.722,0.286 -124.01,0.085C-120.599,-0.877 -117.067,-1.327 -113.492,-1.56C-112.483,-1.625 -111.462,-1.596 -110.458,-1.733C-109.074,-1.923 -107.952,-2.415 -107.525,-3.673C-106.908,-2.91 -106.908,-2.91 -106.945,-2.652C-107.2,-0.87 -106.75,-0.534 -104.604,-0.903C-102.59,-1.251 -102.59,-1.251 -102.357,0.405C-101.584,1.347 -100.401,1.94 -99.443,2.725C-97.64,4.205 -95.766,5.42 -93.069,5.891C-90.266,6.38 -88.114,5.744 -86.005,4.471C-85.559,4.202 -85.013,3.906 -85.138,3.363C-85.277,2.753 -85.943,2.654 -86.564,2.553C-88.238,2.28 -89.563,1.453 -90.77,0.561C-92.171,-0.475 -91.722,-2.277 -90.078,-2.754C-87.626,-3.466 -83.527,-2.457 -82.175,-0.678C-81.249,0.539 -79.911,1.365 -78.712,2.342C-75.792,4.723 -71.391,3.706 -68.992,2.515C-68.353,2.198 -67.73,1.748 -67.927,1.063C-68.117,0.399 -68.908,0.392 -69.591,0.351C-71.126,0.258 -72.197,-0.475 -73.05,-1.433C-73.689,-2.152 -73.929,-2.92 -73.109,-3.723C-72.315,-4.502 -71.412,-4.503 -70.362,-4.177C-68.578,-3.623 -67.051,-2.794 -65.846,-1.56C-64.085,0.244 -61.798,1.437 -59.075,1.922C-56.519,2.378 -53.912,2.59 -51.534,1.289C-50.819,0.898 -50.013,0.518 -50.259,-0.332C-50.485,-1.115 -51.271,-1.427 -52.178,-1.476C-53.989,-1.577 -55.314,-2.32 -56.473,-3.426C-57.305,-4.22 -57.472,-5.029 -56.752,-5.826C-55.952,-6.71 -54.809,-6.554 -53.873,-6.003C-52.271,-5.061 -50.504,-4.263 -49.261,-2.961C-47.959,-1.598 -46.134,-0.798 -44.353,-0.045C-43.041,0.509 -41.483,1.091 -40.015,0.964C-36.572,0.665 -33.607,-0.507 -31.783,-3.119C-31.496,-3.532 -31.25,-3.962 -31.583,-4.431C-31.923,-4.909 -32.492,-4.922 -33.076,-4.868C-33.47,-4.831 -33.883,-4.814 -34.24,-4.687C-35.793,-4.133 -36.986,-4.643 -38.037,-5.536C-38.837,-6.216 -39.665,-6.985 -39.166,-7.99C-38.702,-8.924 -37.514,-9.013 -36.426,-9.092C-35.632,-9.15 -34.846,-9.138 -34.086,-8.892C-32.298,-8.316 -30.559,-7.515 -29.094,-6.616C-24.769,-3.963 -20.294,-3.519 -15.382,-5.084C-13.866,-5.567 -12.551,-6.284 -11.754,-7.479C-11.16,-8.369 -11.578,-9.063 -12.737,-8.972C-14.071,-8.868 -15.15,-9.333 -16.319,-9.645C-17.53,-9.968 -18.063,-10.752 -18,-11.668C-17.934,-12.619 -17.053,-13.045 -15.891,-13.151C-14.183,-13.306 -12.499,-13.138 -10.817,-12.991C-4.8,-12.464 -1.974,-14.729 0.817,-18.49C1.586,-19.526 2.244,-20.862 1.182,-22.158C0.805,-22.43 0.424,-22.696 -0.102,-22.754C-0.801,-22.795 -1.428,-22.589 -2.046,-22.367C-2.741,-22.117 -3.46,-22.078 -4.191,-22.196C-4.757,-22.286 -5.329,-22.422 -5.382,-23.003C-5.437,-23.599 -4.928,-23.789 -4.327,-23.878C-4.105,-23.91 -3.881,-23.922 -3.66,-23.952C-2.883,-24.056 -1.45,-23.501 -1.664,-24.721C-1.89,-26.008 -0.971,-26.26 0,-26.577" style="fill:rgb(23,19,16);fill-rule:nonzero;"/>
                </g>
                <g transform="matrix(1,0,0,1,83.1377,131.992)">
                    <path d="M0,4.995C-0.214,4.505 -0.681,4.281 -1.277,4.218C-1.78,4.164 -2.285,4.182 -2.791,4.212C-4.341,4.721 -4.699,3.704 -5.242,2.923C-5.324,2.814 -5.415,2.711 -5.522,2.619C-6.871,1.032 -6.518,-0.258 -4.666,-0.529C-3.618,-0.714 -2.566,-0.123 -1.518,-0.542C-1.111,-0.795 -0.575,-1.04 -1.134,-1.517C-1.469,-1.802 -1.542,-2.172 -1.76,-2.493C-2.008,-2.856 -2.369,-2.979 -2.696,-2.651C-3.381,-1.965 -4.38,-2.233 -5.209,-2.005C-5.608,-1.894 -5.843,-2.048 -6.023,-2.323C-6.212,-2.609 -6.111,-2.824 -5.894,-3.081C-5.16,-3.943 -5.179,-3.947 -6.187,-4.625C-6.401,-4.77 -6.581,-4.951 -6.766,-5.124C-6.938,-5.284 -7.141,-5.341 -7.355,-5.217C-7.584,-5.085 -7.872,-4.907 -7.615,-4.66C-7.017,-4.084 -7.587,-3.863 -8.038,-3.579C-8.637,-3.202 -9.285,-3.008 -10.053,-2.942C-11.111,-2.852 -12.184,-2.986 -13.215,-2.843C-14.065,-2.725 -14.888,-2.593 -15.714,-2.811C-16.776,-3.09 -17.196,-1.999 -18.156,-2.081C-18.373,-2.099 -18.6,-2.016 -18.821,-2.018C-20.454,-2.038 -22.041,-1.915 -23.437,-1.113C-23.523,-1.063 -23.65,-1.036 -23.758,-1.037C-24.58,-1.045 -25.04,-0.761 -25.406,-0.103C-25.842,0.683 -26.532,0.7 -27.533,0.113C-27.94,-0.126 -28.335,-0.248 -28.773,-0.011C-29.449,0.356 -29.938,2.89 -29.439,3.404C-29.338,3.508 -29.187,3.584 -29.045,3.655C-27.903,4.228 -27.902,4.227 -28.74,5.166C-28.139,5.379 -28.813,5.961 -28.238,6.24C-27.798,6.453 -27.557,6.748 -27.423,7.076C-25.531,9.089 -22.483,9.207 -19.893,10.201C-19.751,10.095 -19.547,10.035 -19.243,10.027C-17.289,10.336 -15.78,9.353 -14.17,8.761C-13.319,8.449 -13.505,7.768 -14.162,7.271C-14.724,6.848 -15.45,6.709 -16.157,6.553C-17.53,6.249 -18.591,5.586 -19.362,4.628C-20.069,3.75 -19.955,2.802 -19.206,2.032C-18.475,1.281 -17.532,1.831 -16.72,2.073C-15.921,2.311 -15.342,2.874 -14.571,3.171C-13.85,3.263 -13.165,3.36 -13.188,4.178C-13.203,4.756 -12.732,5.214 -12.464,5.719C-10.337,8.675 -6.889,9.512 -3.308,7.924C-2.317,7.485 -1.482,6.856 -0.567,6.326C-0.032,6.016 0.248,5.561 0,4.995" style="fill:rgb(31,25,22);fill-rule:nonzero;"/>
                </g>
                <g transform="matrix(1,0,0,1,84.2862,90.9353)">
                    <path d="M0,-10.18C0.593,-10.609 1.302,-10.848 2.044,-11.035C2.823,-11.569 3.807,-11.7 4.738,-11.818C5.429,-11.905 5.988,-12.098 6.522,-12.422C6.807,-12.539 7.103,-12.631 7.423,-12.653C8.057,-12.749 8.694,-12.18 9.324,-12.664C10.669,-15.385 13.479,-16.021 16.643,-16.163C18.981,-15.583 21.437,-15.519 23.812,-15.086C25.067,-14.559 26.357,-14.051 27.437,-13.308C28.213,-12.774 29.14,-12.884 29.972,-12.636C32.252,-11.956 34.547,-11.313 36.867,-10.725C37.942,-10.452 38.842,-10.473 39.687,-11.116C40.557,-11.779 41.672,-12.188 42.47,-12.927C43.261,-13.481 43.975,-14.095 44.89,-14.822C43.465,-15.013 42.396,-14.492 41.268,-14.522C39.313,-14.617 38.615,-15.006 38.11,-16.502C37.644,-17.883 36.97,-19.222 36.782,-20.663C36.657,-21.626 36.073,-21.709 35.175,-21.256C34.503,-20.918 33.835,-20.57 33.113,-20.305C30.074,-19.189 28.733,-19.684 27.624,-22.319C27.569,-22.449 27.552,-22.591 27.484,-22.713C26.536,-24.425 26.571,-24.478 28.799,-24.619C28.935,-25.059 29.329,-25.322 29.783,-25.506C31.74,-26.299 33.669,-27.142 35.623,-27.936C37.846,-28.839 40.251,-29.049 42.5,-29.74C43.194,-29.953 43.948,-29.488 44.537,-29.998C45.548,-31.091 46.774,-30.162 47.895,-30.243C48.053,-30.245 48.209,-30.229 48.363,-30.201C50.229,-29.95 52.095,-29.586 53.961,-30.193C54.139,-30.326 54.341,-30.421 54.571,-30.476C55.129,-30.528 55.657,-30.432 56.173,-30.266C56.77,-29.753 57.583,-29.735 58.35,-29.665C61.941,-29.336 65.403,-28.545 68.86,-27.725C69.54,-27.564 69.951,-27.098 70.578,-26.882C71.243,-26.652 71.854,-26.291 72.611,-26.637C72.881,-26.992 73.243,-27.271 73.66,-27.506C74.013,-27.701 74.329,-27.638 74.429,-27.314C74.578,-26.83 74.362,-26.377 73.848,-26.136C72.954,-25.718 72.306,-25.128 71.785,-24.422C71.694,-24.314 71.589,-24.216 71.478,-24.122C70.135,-22.957 68.259,-22.332 66.975,-21.106C65.577,-20.321 64.139,-19.596 62.573,-19.053C61.028,-18.942 59.952,-18.063 58.714,-17.451C56.947,-15.471 56.951,-14.207 58.738,-12.271C59.044,-11.711 58.792,-11.3 58.247,-10.942C57.056,-10.16 55.816,-9.434 54.373,-9.013C53.828,-8.854 53.342,-8.678 52.918,-8.356C51.349,-7.166 49.577,-6.188 47.8,-5.237C46.527,-4.555 45.744,-3.544 44.759,-2.669C44.15,-2.128 44.419,-1.66 45.023,-1.253C48.495,2.363 50.951,6.413 52.518,10.822C53.116,12.507 53.564,12.923 55.711,12.756C57.305,12.631 58.861,12.66 60.427,12.888C61.7,12.925 62.979,12.993 64.2,12.598C64.714,12.432 65.177,12.456 65.606,12.751C66.401,13.645 65.549,13.72 64.795,13.873C61.992,14.445 59.172,14.896 56.262,14.815C55.755,14.801 55.247,14.856 54.74,14.903C53.921,14.98 53.475,15.193 53.88,15.98C54.418,17.027 54.335,18.173 54.454,19.278C54.528,19.97 54.499,20.82 53.343,20.868C52.282,20.911 52.052,20.195 51.896,19.44C51.195,16.019 50.687,12.516 49.263,9.278C47.42,5.088 44.875,1.028 40.649,-1.891C37.197,-4.278 33.108,-5.888 28.637,-6.839C24.496,-7.719 20.378,-7.597 16.211,-7.323C15.41,-7.27 14.662,-7.102 13.913,-6.88C11.936,-6.291 10.532,-6.88 9.804,-8.525C9.529,-9.145 9.825,-10.097 8.796,-10.303C7.664,-10.529 6.496,-10.505 5.296,-10.237C3.278,-9.786 1.317,-9.31 -0.386,-8.254C-1.037,-7.851 -1.799,-7.986 -2.454,-8.355C-3.254,-8.805 -4.224,-9.003 -5.014,-9.41C-7.636,-10.763 -10.585,-10.911 -13.497,-11.033C-15.796,-11.129 -18.107,-10.743 -20.279,-10.098C-21.642,-9.694 -22.753,-9.749 -23.949,-10.395C-26.275,-11.653 -28.774,-12.595 -31.532,-13.054C-34.582,-13.561 -36.338,-12.82 -37.94,-10.652C-39.324,-8.779 -40.05,-6.882 -39.478,-4.711C-38.669,-2.707 -37.611,-0.881 -34.858,-0.236C-33.471,0.598 -31.888,1.037 -30.243,1.401C-29.108,1.652 -28.213,1.523 -27.611,0.675C-25.324,-2.545 -21.481,-2.534 -17.687,-2.534C-13.394,-2.534 -10.929,0.127 -8.047,2.142C-7.602,2.453 -7.16,2.972 -8.063,3.372C-8.82,3.429 -9.316,3.032 -9.826,2.671C-11.233,1.674 -12.745,0.772 -14.328,0.002C-16.257,-0.938 -18.479,-0.635 -20.58,-0.453C-21.605,-0.365 -22.628,-0.075 -23.618,0.293C-24.654,0.678 -25.314,1.062 -25.215,2.1C-25.145,2.833 -25.827,3.248 -26.563,3.558C-27.089,3.771 -27.647,3.8 -28.214,3.736C-32.141,3.29 -35.935,2.379 -38.66,-0.066C-41.262,-2.4 -43.041,-5.097 -41.482,-8.543C-40.688,-10.299 -39.613,-11.909 -38.515,-13.518C-37.991,-14.284 -37.221,-14.92 -36.192,-15.283C-35.667,-15.419 -35.145,-15.431 -34.628,-15.253C-33.539,-14.564 -32.257,-14.882 -31.052,-14.782C-28.384,-14.561 -26.015,-13.599 -23.659,-12.654C-22.755,-12.29 -21.855,-11.918 -20.936,-11.577C-20.498,-11.421 -20.293,-11.781 -19.967,-11.872C-15.563,-12.769 -11.143,-12.873 -6.727,-11.981C-5.152,-11.663 -3.666,-11.099 -2.4,-10.25C-1.573,-9.695 -0.828,-9.582 0,-10.18" style="fill:rgb(15,39,10);fill-rule:nonzero;"/>
                </g>
                <g transform="matrix(1,0,0,1,51.3428,98.015)">
                    <path d="M0,10.379C-0.946,9.696 -1.79,8.911 -2.919,8.412C-3.614,8.165 -4.158,8.834 -4.849,8.631C-5.276,8.547 -5.632,8.272 -6.131,8.366C-7.701,8.665 -9.276,8.308 -10.836,8.361C-13.065,8.438 -15.064,7.912 -17.043,7.201C-18.336,7.15 -19.581,6.91 -20.824,6.627C-21.252,6.53 -21.523,6.397 -21.705,6.092C-21.937,5.367 -22.589,4.946 -23.313,4.563C-25.103,3.615 -27.017,2.809 -28.42,1.427C-28.844,1.01 -29.439,0.865 -30.102,1.054C-30.668,1.108 -31.623,1.888 -31.468,0.572C-31.25,0.307 -31.074,0.01 -30.808,-0.216C-29.945,-0.946 -30.273,-1.761 -30.571,-2.541C-30.898,-3.397 -30.964,-4.282 -30.825,-5.129C-30.616,-6.397 -30.399,-7.71 -29.065,-8.631C-28.78,-8.828 -28.624,-9.152 -28.409,-9.417C-28.111,-9.935 -27.693,-9.875 -27.225,-9.586C-26.989,-9.399 -26.804,-9.181 -26.624,-8.958C-25.691,-7.741 -25.217,-6.335 -24.289,-5.116C-21.463,-0.933 -17.112,1.446 -11.431,2.26C-11.154,2.299 -10.886,2.364 -10.634,2.475C-7.937,3.201 -5.198,3.07 -2.448,2.782C-1.506,2.684 -0.546,2.504 0.343,2.978C0.551,3.977 -0.584,3.683 -1.094,3.993C-6.399,4.491 -11.643,4.669 -16.778,2.975C-21.015,1.577 -24.21,-0.658 -26.301,-3.985C-26.887,-4.917 -27.373,-5.907 -28.33,-6.854C-29.109,-5.515 -29.198,-4.226 -28.83,-3.053C-28.043,-0.539 -26.556,1.613 -23.237,2.442C-22.25,2.688 -21.403,3.169 -20.545,3.61C-15.385,6.268 -9.771,6.765 -3.917,5.93C-1.743,5.621 0.431,5.351 2.618,5.136C4.248,4.976 5.854,4.761 7.396,4.257C10.5,3.241 13.813,2.806 16.988,1.975C18.612,1.55 20.056,0.811 21.698,0.443C24.251,-0.129 26.776,-0.717 29.429,-1.001C31.095,-1.18 32.669,-1.922 34.405,-2.123C40.761,-2.859 47.11,-3.931 53.466,-2.161C56.277,-1.378 58.796,-0.221 60.927,1.547C62.589,2.928 64.342,4.21 65.717,5.821C66.735,7.015 66.736,7.59 65.294,8.47C63.526,9.549 61.273,9.651 59.382,10.494C58.778,10.762 58.158,10.949 57.779,11.45C57.365,11.996 57.154,12.613 57.598,13.157C58.11,13.787 58.813,13.358 59.427,13.18C62.311,12.343 64.786,10.781 67.713,10.016C68.295,9.864 68.824,9.533 69.491,9.674C70.114,10.164 70.017,10.653 69.489,11.143C67.571,12.265 65.503,13.157 63.283,13.809C61.513,14.264 60.076,15.311 58.279,15.721C57.39,15.924 57.192,16.497 57.328,17.134C57.448,17.701 57.377,18.236 57.234,18.782C57.123,19.55 56.731,20.132 55.734,20.314C55.556,20.309 55.394,20.265 55.247,20.183C54.926,19.912 54.784,19.6 54.933,19.225C55.694,18.678 55.472,18.092 55.237,17.375C54.597,15.407 54.59,13.426 55.646,11.516C55.948,11.244 56.143,10.954 56.122,10.555C56.064,9.398 56.718,8.888 58.139,9.136C58.918,9.109 59.452,8.743 59.908,8.268C60.178,8.041 60.452,7.82 60.805,7.681C61.58,7.399 62.862,7.822 63.137,6.983C63.411,6.142 62.419,5.534 61.758,4.93C61.609,4.795 61.431,4.686 61.263,4.568C60.757,4.055 59.521,4.639 59.299,3.693C58.252,1.354 55.573,0.734 53.188,-0.135C52.398,-0.423 51.438,-0.476 50.547,-0.609C49.553,-0.758 48.894,-0.495 48.591,0.315C47.852,1.345 47.163,1.002 46.488,0.263C46.417,0.14 46.377,0.01 46.365,-0.125C46.593,-1.025 46.045,-1.52 45.033,-1.423C43.89,-1.313 42.677,-1.492 41.603,-0.991C39.36,-0.632 37.133,-0.252 34.818,-0.271C33.355,-0.283 31.979,0.164 30.785,0.906C30.268,1.203 30.104,1.959 29.188,1.74C29.027,1.746 28.865,1.752 28.703,1.757C28.226,2.209 27.804,2.134 27.572,1.604C27.238,0.84 26.525,0.932 25.904,1.135C22.818,2.142 19.539,2.708 16.557,3.94C15.883,4.085 15.285,4.298 15.164,4.958C15.081,5.295 14.925,5.592 14.537,5.769C13.99,5.965 13.405,5.802 12.846,5.892C12.52,5.908 12.192,5.934 11.888,5.798C11.51,5.668 11.309,5.221 10.73,5.446C7.4,6.745 3.787,7.125 0.207,7.61C-0.012,7.64 -0.234,7.688 -0.392,7.898C-0.257,8.53 0.693,8.795 0.787,9.477C0.747,9.909 0.908,10.462 0,10.379" style="fill:rgb(47,15,10);fill-rule:nonzero;"/>
                </g>
                <g transform="matrix(1,0,0,1,165.698,48.6662)">
                    <path d="M0,21.718C-0.039,20.906 1.428,19.286 1.57,18.997C1.927,18.275 2.747,17.735 2.951,16.964C3.39,15.305 4.512,13.76 4.214,11.975C5.13,10.792 4.661,9.446 4.863,8.179C5.13,6.502 4.271,5.015 3.413,3.598C3.031,2.968 2.071,2.517 1.63,1.86C0.993,0.913 -0.187,0.7 -1.18,0.318C-2.733,-0.282 -4.098,-1.269 -6.008,-1.249C-6.714,-1.241 -7.368,-1.085 -8.06,-1.059C-10.868,-0.955 -13.604,-0.506 -15.938,0.879C-16.992,1.504 -18.372,1.905 -18.636,3.218C-18.711,3.588 -18.794,3.792 -18.375,4.013C-17.883,4.272 -17.5,4.695 -16.783,4.439C-13.98,3.439 -11.121,2.953 -8.133,3.884C-7.877,3.963 -6.68,4.008 -6.448,4.227C-5.513,5.113 -4.682,6.022 -4.285,7.208C-3.875,8.431 -4.213,9.504 -4.768,10.593C-4.275,11.218 -3.906,10.901 -3.532,10.492C-3.063,9.98 -3.019,9.303 -2.547,8.796C-1.972,6.749 -4.04,3.501 -6.421,2.749C-9.557,1.759 -12.729,1.905 -15.979,2.674C-14.513,1.45 -12.721,1.07 -10.893,0.708C-7.589,0.055 -4.451,0.279 -1.47,1.682C-0.222,2.27 0.814,3.003 1.566,4.037C3.43,6.599 3.348,9.437 2.647,12.111C1.813,15.298 0.553,18.458 -1.872,21.166C-2.177,21.505 -2.352,21.905 -2.192,22.346C-2.012,22.68 -1.726,22.911 -1.277,22.987C-0.828,22.665 0.009,21.912 0,21.718" style="fill:rgb(18,23,16);fill-rule:nonzero;"/>
                </g>
                <g transform="matrix(1,0,0,1,106.402,146.491)">
                    <path d="M0,-29.12C0.161,-28.877 0.365,-28.647 0.326,-28.347C-0.04,-27.645 -0.545,-27.537 -1.197,-28.113C-1.429,-28.317 -1.616,-28.552 -1.811,-28.78C-4.195,-31.582 -3.388,-31.11 -7.259,-30.343C-9.235,-29.952 -11.086,-29.216 -13.097,-28.895C-17.746,-28.154 -22.312,-27.11 -26.937,-26.267C-31.616,-25.414 -36.287,-24.477 -40.999,-23.809C-46.799,-22.988 -52.418,-21.582 -58.173,-20.632C-61.475,-20.086 -64.631,-19.012 -67.542,-17.532C-69.847,-16.36 -72.082,-15.095 -74.432,-13.981C-75.293,-13.573 -75.851,-12.929 -76.452,-12.316C-79.909,-8.531 -77.91,-4.774 -76.363,-1.015C-76.63,-0.564 -76.731,-0.145 -76.036,0.117C-76.067,0.975 -75.607,1.709 -75.035,2.365C-74.293,3.213 -74.377,4.158 -74.516,5.063C-74.63,5.817 -75.966,6.261 -76.762,5.805C-78.161,5.003 -79.592,4.197 -80.501,2.948C-79.697,2.192 -79.697,2.192 -78.112,3.152C-77.7,3.337 -77.372,3.942 -76.859,3.595C-76.39,3.276 -76.86,2.798 -77.104,2.471C-79.096,-0.203 -79.885,-3.189 -80.461,-6.224C-81.087,-9.528 -79.745,-13.608 -75.486,-16.06C-69.829,-19.317 -63.546,-21.276 -57.002,-22.715C-53.023,-23.59 -49.17,-24.849 -45.096,-25.416C-40.146,-26.104 -35.22,-26.888 -30.312,-27.756C-26.565,-28.418 -22.858,-29.212 -19.179,-30.091C-15.225,-31.035 -11.12,-31.503 -7.237,-32.676C-6.176,-32.997 -5.322,-33.267 -5.363,-34.452C-5.396,-35.381 -4.61,-35.322 -3.854,-34.877C-2.4,-33.036 -0.614,-31.343 0,-29.12" style="fill:rgb(31,25,22);fill-rule:nonzero;"/>
                </g>
                <g transform="matrix(1,0,0,1,40.2412,133.191)">
                    <path d="M0,-13.337C0.227,-13.055 0.61,-13.213 0.904,-13.121C1.786,-13.379 1.906,-12.446 2.591,-12.399C3.164,-12.253 3.704,-12.365 4.244,-12.519C7.376,-13.413 10.586,-14.075 13.816,-14.675C15.423,-14.973 15.451,-15.065 14.457,-16.26C14.116,-16.826 13.505,-17.252 13.232,-17.847C13.083,-18.174 12.65,-18.63 13.583,-18.661C14.428,-18.164 15.182,-17.592 15.752,-16.871C16.191,-16.316 16.776,-16.081 17.573,-16.282C17.877,-16.263 18.073,-16.073 18.326,-15.971C18.459,-15.92 18.585,-15.861 18.71,-15.8C20.583,-15.648 22.165,-16.539 23.928,-16.776C25.476,-17.071 26.987,-17.494 28.566,-17.673C29.469,-17.737 30.528,-17.43 30.996,-18.463C31.141,-18.783 31.501,-18.753 31.84,-18.576C32.316,-18.328 32.794,-18.338 33.244,-18.636C33.694,-18.707 33.873,-19.06 34.2,-19.258C35.642,-18.736 37.016,-18.861 38.328,-19.555C42.567,-19.857 46.555,-21.159 50.734,-21.689C51.141,-22.332 52.085,-22.368 52.644,-22.839C52.73,-22.861 52.819,-22.873 52.909,-22.874C54.345,-22.389 55.662,-22.85 57.005,-23.196C57.658,-23.363 58.351,-23.828 59.013,-23.185C59.581,-22.29 59.144,-21.764 58.067,-21.514C56.062,-21.048 54.139,-20.341 52.019,-20.196C50.435,-20.088 49.027,-19.418 47.489,-19.101C43.006,-18.178 38.506,-17.291 33.998,-16.479C28.655,-15.517 23.389,-14.264 17.952,-13.619C15.92,-13.378 13.835,-12.924 11.926,-12.37C7.147,-10.984 2.006,-10.489 -2.475,-8.34C-3.803,-7.703 -5.397,-7.423 -6.832,-6.858C-9.102,-5.963 -11.143,-4.789 -13.018,-3.487C-16.213,-1.269 -18.614,1.358 -17.702,5.17C-17.354,6.622 -17.091,8.095 -16.951,9.58C-17.146,9.999 -17.266,10.491 -18.041,10.367C-19.193,8.291 -19.542,6.049 -19.783,3.827C-20.021,1.618 -18.954,-0.326 -17.211,-2.011C-16.38,-2.815 -15.568,-3.632 -14.748,-4.443C-14.447,-5.233 -13.916,-5.835 -12.864,-6.014C-9.555,-8.161 -5.764,-9.552 -1.802,-10.607C-0.273,-11.014 -0.126,-11.634 -0.694,-12.663C-0.62,-12.997 -0.699,-13.44 0,-13.337" style="fill:rgb(47,15,10);fill-rule:nonzero;"/>
                </g>
                <g transform="matrix(1,0,0,1,51.7608,73.2315)">
                    <path d="M0,27.893C-2.682,27.974 -5.354,28.339 -8.042,28.146C-9.223,28.061 -10.513,28.22 -11.482,27.417C-11.081,26.791 -10.326,26.874 -9.69,26.904C-6.914,27.031 -4.167,26.73 -1.406,26.618C-0.421,26.579 0.473,26.33 1.385,26.093C1.768,25.994 2.188,25.894 2.117,25.464C2.058,25.102 1.716,24.846 1.317,24.829C-1.387,24.715 -3.43,23.172 -5.928,22.597C-7.479,22.24 -8.653,21.286 -9.749,20.355C-13.354,17.293 -14.122,13.438 -14.01,9.402C-13.975,8.156 -13.356,6.957 -12.76,5.807C-12.31,4.939 -12.507,4.423 -13.577,4.048C-18.239,2.415 -23.104,1.497 -28.159,1.451C-29.762,1.436 -31.38,1.946 -32.81,2.626C-33.822,3.108 -34.602,3.811 -34.474,4.875C-34.337,6.003 -33.301,6.261 -32.154,6.583C-31.033,6.897 -29.601,6.685 -28.825,7.71C-28.685,8.213 -28.66,8.711 -29.298,8.985C-29.696,9.156 -30.012,8.953 -30.214,8.648C-31.013,8.444 -31.744,8.135 -32.593,7.968C-34.248,7.643 -35.571,6.604 -36.362,5.345C-36.598,4.97 -36.61,4.252 -36.239,3.659C-34.961,1.614 -32.905,0.518 -30.217,0.201C-29.816,0.154 -29.476,0.122 -29.157,-0.067C-23.914,-0.665 -18.961,0.226 -14.213,2C-13.557,2.245 -12.708,1.988 -12.23,2.58C-11.994,2.736 -10.378,2.952 -10.141,3.107C-7.946,3.535 -9.364,3.781 -10.331,5.52C-11.166,7.022 -10.942,8.551 -10.857,10.278C-10.831,10.788 -11.652,11.244 -11.41,11.717C-11.076,13.165 -10.596,14.606 -9.958,15.96C-8.762,18.496 -6.62,20.364 -3.447,21.433C-0.851,22.307 1.789,23.067 4.432,23.839C5.961,25.37 5.543,26.908 3.331,27.535C2.279,27.832 1.229,28.558 0,27.893" style="fill:rgb(19,40,10);fill-rule:nonzero;"/>
                </g>
                <g transform="matrix(1,0,0,1,34.0992,60.2659)">
                    <path d="M0,1.235C-0.286,0.155 -0.805,-0.847 -0.724,-2.04C-0.668,-2.861 -0.285,-3.6 -0.29,-4.421C-0.303,-6.86 1.53,-8.172 4.064,-9.043C4.6,-9.227 5.033,-9.227 5.445,-8.977C5.928,-8.684 5.604,-8.259 5.472,-7.959C5.239,-7.431 5.004,-6.934 5.111,-6.354C5.259,-5.555 5.535,-4.847 6.454,-4.392C7.026,-4.109 7.595,-3.787 8.063,-3.399C9.575,-2.144 11.331,-2.4 13.125,-2.758C14.981,-3.129 16.359,-4.199 17.638,-5.202C19.292,-6.499 20.942,-7.775 22.803,-8.864C27.393,-10.837 33.674,-8.182 34.255,-4.023C35.29,-2.053 34.862,-0.224 33.482,1.521C33.337,1.704 33.335,1.963 33.198,2.152C32.522,3.088 31.883,3.985 30.726,4.675C29.251,5.554 28.032,6.727 26.737,7.801C24.789,9.418 22.647,10.82 20.202,11.896C19.919,12.072 19.75,11.921 19.584,11.755C19.331,10.894 20.073,10.449 20.755,10.073C24.248,8.151 27.09,5.613 30.192,3.327C32.883,1.345 33.894,-3.575 30.866,-5.879C27.674,-8.307 23.865,-8.421 20.828,-5.835C19.407,-4.625 17.911,-3.514 16.27,-2.522C15.446,-2.023 14.536,-1.698 13.574,-1.395C8.961,0.057 4.925,-2.543 3.427,-5.444C3.263,-5.761 3.261,-6.285 2.683,-6.249C2.184,-6.219 2.037,-5.762 1.92,-5.409C1.375,-3.757 0.628,-2.117 1.335,-0.366C1.333,0.39 2.012,1.098 1.576,1.886C0.545,2.5 0.488,1.515 0,1.235" style="fill:rgb(91,64,16);fill-rule:nonzero;"/>
                </g>
                <g transform="matrix(1,0,0,1,132.149,50.8081)">
                    <path d="M0,10.123C-0.597,10.664 -1.109,10.256 -1.562,9.979C-2.01,9.707 -2.223,9.621 -2.478,10.146C-2.623,10.445 -3.041,10.277 -3.327,10.13C-2.859,9.531 -3.04,8.936 -3.5,8.443C-4.37,7.512 -5.519,6.894 -6.838,6.396C-9.082,5.55 -11.034,6.349 -12.99,6.976C-15.631,7.824 -18.238,8.743 -20.244,10.521C-21.029,11.217 -22.373,11.104 -23.206,10.455C-23.717,10.056 -23.833,8.899 -23.29,8.213C-22.434,7.131 -21.488,6.097 -20.554,5.058C-20.256,4.727 -19.83,4.473 -19.541,4.137C-18.599,3.045 -17.052,2.696 -15.773,2.019C-15.495,1.873 -15.085,1.85 -14.877,1.663C-13.426,0.36 -11.381,0.277 -9.501,-0.133C-9.223,-0.194 -8.99,-0.296 -8.736,-0.382C-6.624,-1.094 -4.432,-0.859 -2.238,-0.786C1.125,-0.673 3.326,1.087 5.366,2.92C6.235,3.7 6.589,4.906 7.03,5.959C7.52,7.13 8.212,8.274 8.123,9.569C8.33,9.671 8.329,9.771 8.119,9.869C7.676,10.137 7.244,10.17 6.83,9.827C6.266,9.37 6.163,8.759 6.051,8.165C5.77,6.669 4.971,5.334 4.176,3.998C2.988,2.004 0.839,1.148 -1.669,0.846C-6.823,0.224 -11.478,1.269 -15.804,3.653C-17.64,4.665 -19.074,5.91 -20.342,7.341C-20.666,7.708 -21.044,8.066 -21.02,8.543C-20.595,8.801 -20.306,8.593 -20.054,8.436C-17.451,6.819 -14.389,5.958 -11.45,4.901C-8.582,3.869 -6.098,5.038 -3.808,6.172C-2.039,7.048 -1.182,8.742 0,10.123" style="fill:rgb(15,39,10);fill-rule:nonzero;"/>
                </g>
                <g transform="matrix(1,0,0,1,39.8985,54.8175)">
                    <path d="M0.694,24.991C0.765,24.87 0.934,24.785 0.994,24.662C1.304,24.025 1.66,23.395 1.876,22.736C2.229,21.655 2.44,21.091 2.654,20.688C3.369,19.341 4.898,18.543 5.849,17.357C6.276,16.823 6.908,16.401 7.399,15.897C7.855,15.428 8.287,14.982 9.064,14.838C9.358,14.784 9.638,14.626 9.898,14.42C10.879,13.646 11.703,12.705 13.075,12.311C13.363,12.228 13.597,11.962 13.804,11.747C15.16,10.334 17.095,9.553 18.836,8.55C20.422,7.637 21.452,6.295 22.429,4.942C22.032,4.231 23.082,3.576 22.444,2.787C21.602,1.746 19.939,1.304 18.453,2.09C17.017,2.85 15.455,3.436 14.127,4.37C13.354,4.914 12.707,5.537 11.98,6.104C11.204,6.709 10.461,7.333 9.383,7.566C8.719,7.835 8.14,7.909 7.932,7.137C8.413,5.971 9.84,5.586 10.864,4.933C12.938,3.612 14.703,1.913 17.26,1.135C17.842,0.958 18.401,0.728 18.991,0.569C20.449,0.175 21.935,0 23.099,1.032C24.297,2.095 24.852,3.227 24.201,4.824C23.058,7.632 20.431,9.225 17.814,10.928C13.881,13.488 9.899,16.005 6.288,18.884C5.345,19.637 4.606,20.528 4.013,21.474C2.436,23.99 0.869,26.518 0.52,29.405" style="fill:rgb(95,73,22);fill-rule:nonzero;"/>
                </g>
                <g transform="matrix(1,0,0,1,30.083,116.375)">
                    <path d="M0,-12.435C0.062,-12.143 0.208,-11.92 0.624,-11.921C1.656,-11.925 2.667,-11.209 3.736,-11.89C3.93,-12.013 4.234,-11.781 4.404,-11.591C3.908,-10.482 4.903,-9.723 5.467,-8.935C6.578,-7.387 8.072,-6.05 9.398,-4.621C9.976,-3.997 10.379,-4.438 10.693,-4.823C11.821,-6.209 13.273,-7.389 14.391,-8.781C14.897,-9.413 15.504,-9.943 16.525,-9.949C17.13,-10.161 17.735,-10.462 18.341,-9.948C17.595,-9.736 17.216,-9.197 16.791,-8.721C16.126,-7.975 15.33,-7.322 14.544,-6.663C13.667,-5.928 12.801,-5.186 12.141,-4.298C11.583,-3.549 11.214,-2.737 10.136,-2.267C9.613,-2.039 9.456,-2.096 9.042,-2.291C8.468,-2.562 8.188,-3.05 7.925,-3.435C7.059,-4.707 6.008,-5.84 4.899,-6.971C3.999,-7.889 3.364,-8.989 2.662,-10.031C2.53,-10.226 2.429,-10.43 2.26,-10.617C1.091,-11.913 0.516,-11.92 -0.49,-10.556C-0.961,-9.917 -1.648,-9.476 -2.248,-8.95C-2.703,-8.55 -2.847,-7.904 -3.316,-7.522C-3.81,-7.121 -4.103,-6.602 -4.62,-6.228C-4.726,-6.152 -4.667,-5.909 -4.773,-5.848C-6.348,-4.95 -6.824,-3.399 -7.92,-2.214C-8.513,-1.573 -8.707,-0.694 -9.521,-0.087C-9.941,0.227 -10.208,0.193 -10.499,-0.024C-11.013,-0.409 -11.499,-0.725 -11.575,-1.465C-11.747,-3.122 -12.377,-4.727 -12.487,-6.419C-12.542,-7.265 -12.503,-8.056 -12.296,-8.865C-11.944,-9.016 -11.651,-8.901 -11.37,-8.73C-10.736,-8.233 -10.758,-7.566 -10.668,-6.922C-10.464,-5.467 -10.447,-3.985 -9.778,-2.302C-8.132,-4.893 -6.047,-6.938 -4.105,-9.07C-3.293,-9.961 -2.383,-10.787 -1.608,-11.705C-1.254,-12.123 -0.847,-12.662 0,-12.435" style="fill:rgb(76,66,67);fill-rule:nonzero;"/>
                </g>
                <g transform="matrix(1,0,0,1,36.8477,141.339)">
                    <path d="M0,2.448C0.861,1.91 1.624,1.256 2.807,1.156C3.243,1.119 3.6,0.816 3.856,0.496C3.984,0.336 4.055,0.142 3.942,-0.03C3.786,-0.268 3.515,-0.296 3.219,-0.2C2.886,-0.093 2.508,0.299 2.214,-0.132C1.955,-0.512 1.583,-0.972 1.947,-1.427C2.284,-1.847 2.702,-2.256 3.428,-2.223C3.749,-2.209 3.988,-2.059 4.015,-1.81C4.104,-0.99 4.712,-1.047 5.461,-1.123C6.455,-1.223 7.465,-1.206 8.465,-1.272C8.704,-1.287 8.766,-1.52 8.818,-1.702C8.909,-1.648 9.007,-1.6 9.09,-1.539C9.686,-1.098 9.966,-0.063 10.644,-0.134C11.713,-0.247 12.122,0.545 12.959,0.592C13.705,0.633 14.479,0.78 15.19,0.563C15.708,0.405 15.944,0.697 16.213,0.864C16.668,1.146 16.234,1.542 16.067,1.708C15.501,2.272 15.023,2.918 14.261,3.338C12.661,4.168 11.018,4.704 9.162,3.869C7.932,3.712 6.854,3.248 5.729,2.838C4.434,2.366 2.939,2.28 1.565,2.546C0.943,2.666 0.517,2.456 0,2.448" style="fill:rgb(31,25,22);fill-rule:nonzero;"/>
                </g>
                <g transform="matrix(1,0,0,1,113.085,75.6249)">
                    <path d="M0,-9.309C-0.133,-9.241 -0.256,-9.136 -0.399,-9.111C-1.772,-8.875 -1.792,-8.86 -1.027,-7.933C-0.81,-7.668 -0.576,-7.43 -0.632,-7.087C-1.942,-7.067 -2.215,-7.967 -2.68,-8.676C-3.74,-10.291 -4.025,-10.322 -5.471,-8.941C-6.096,-8.343 -6.626,-7.687 -7.218,-7.069C-8.022,-6.228 -9.067,-5.928 -10.202,-6.415C-12.118,-7.238 -14.34,-7.317 -16.221,-8.197C-17.075,-8.596 -17.499,-8.21 -17.627,-7.55C-17.855,-6.363 -17.899,-5.159 -17.917,-3.962C-17.938,-2.486 -18.217,-2.124 -19.888,-1.631C-20.877,-1.339 -22.037,-1.461 -22.864,-0.796C-23.455,-0.007 -22.35,-0.854 -21.922,-0.444C-21.247,0.202 -19.425,1.92 -19.961,2.879C-20.208,2.983 -21.712,3.086 -21.959,3.189C-22.352,3.012 -22.533,2.703 -22.703,2.386C-23.232,1.978 -23.728,1.556 -23.883,0.934C-24,0.466 -24.516,0.183 -24.752,-0.223C-24.921,-0.512 -25.54,-0.527 -25.402,-0.949C-25.249,-1.417 -24.85,-1.913 -24.358,-1.971C-23.309,-2.092 -22.562,-2.887 -21.398,-2.743C-21.028,-2.697 -20.228,-3.072 -20.245,-3.133C-20.464,-3.889 -19.388,-4.339 -19.605,-5.048C-20.104,-6.679 -19.587,-8.259 -19.252,-9.841C-18.979,-11.136 -18.541,-11.145 -17.127,-10.574C-15.351,-9.857 -13.711,-8.873 -11.684,-8.563C-11.298,-8.504 -10.775,-8.316 -10.339,-8.1C-9.296,-7.582 -9.194,-7.623 -8.378,-8.432C-6.981,-9.813 -5.654,-11.244 -4.122,-12.498C-2.987,-12.325 -2.35,-11.701 -2.076,-10.848C-1.783,-9.933 -1.124,-9.428 0,-9.309" style="fill:rgb(15,39,10);fill-rule:nonzero;"/>
                </g>
                <g transform="matrix(1,0,0,1,97.8311,109.565)">
                    <path d="M0,-11.467C0.186,-11.373 0.399,-11.304 0.55,-11.181C1.009,-10.804 1.396,-10.893 1.767,-11.264C2.894,-10.364 2.16,-9.181 2.38,-8.148C2.868,-5.853 2.648,-3.459 3.897,-1.267C4.126,-0.865 3.978,-0.452 3.633,-0.105C3.118,0.16 2.759,-0.35 2.28,-0.292C1.203,-1.22 0.796,-2.412 0.502,-3.749C-0.651,-3.01 -1.048,-2.069 -1.714,-1.29C-2.285,-0.623 -5.586,1.939 -6.848,1.831C-7.429,1.14 -4.123,-1.206 -3.677,-1.729C-3.601,-1.818 -3.526,-1.906 -3.45,-1.995C-2.433,-3.177 -1.372,-4.335 -0.286,-5.476C0.501,-6.302 0.497,-8.677 0.601,-8.912C0.864,-9.509 0.787,-9.988 -0.082,-10.342C-0.882,-9.242 -1.826,-8.267 -2.502,-7.032C-3.328,-5.526 -4.407,-4.001 -5.892,-2.767C-6.349,-2.386 -6.679,-2.252 -7.301,-2.626C-8.809,-3.532 -10.273,-4.46 -11.599,-5.558C-11.9,-5.807 -12.234,-6.486 -13.02,-6.251C-12.94,-6.756 -13.595,-6.788 -13.794,-7.054C-14.678,-8.237 -16.122,-8.902 -17.299,-9.809C-16.654,-10.013 -16.706,-10.673 -16.186,-10.958C-14.375,-10.203 -13.416,-8.691 -11.878,-7.673C-10.654,-6.863 -9.543,-5.926 -8.255,-5.165C-6.649,-4.216 -6.589,-4.246 -5.58,-5.583C-4.333,-7.236 -3.435,-9.06 -1.891,-10.57C-1.367,-11.081 -0.976,-11.655 0,-11.467" style="fill:rgb(76,66,67);fill-rule:nonzero;"/>
                </g>
                <g transform="matrix(1,0,0,1,27.6621,110.677)">
                    <path d="M0,16.987C-0.03,17.024 -0.062,17.094 -0.089,17.092C-1.047,17.041 -1.686,17.442 -2.168,18.071C-2.42,16.458 -2.928,14.88 -3.062,13.244C-3.108,12.678 -2.829,11.936 -3.63,11.482C-3.734,11.422 -3.792,11.207 -3.752,11.091C-3.298,9.736 -3.951,8.345 -3.41,6.948C-3.059,6.041 -2.849,5.076 -2.463,4.154C-1.788,2.542 -0.682,1.135 0.495,-0.238C1.207,-1.069 1.893,-1.084 2.803,-0.386C2.967,-0.26 3.191,-0.136 3.249,0.023C3.766,1.434 5.498,2.062 6.322,3.207C7.314,4.587 8.786,5.437 10.24,6.344C11.426,7.084 11.836,8.214 12.579,9.177C12.174,9.425 12.306,9.801 12.238,10.13C11.641,10.188 11.26,9.892 11.005,9.528C10.107,8.247 8.553,7.492 7.404,6.428C5.73,4.877 3.96,3.392 2.402,1.759C1.603,0.922 1.463,0.911 0.805,1.761C-0.996,4.089 -1.682,6.723 -2.156,9.374C-2.452,11.024 -1.563,12.656 -1.449,14.314C-1.375,15.392 -1.018,16.291 0,16.987" style="fill:rgb(81,71,72);fill-rule:nonzero;"/>
                </g>
                <g transform="matrix(1,0,0,1,73.4854,111.691)">
                    <path d="M0,2.864C-0.026,3.172 -0.157,3.389 -0.597,3.387C-1.048,3.385 -1.414,3.173 -1.798,2.995C-2.24,4.254 -2.337,4.297 -4.277,4.169C-3.024,3.185 -3.889,2.397 -4.683,1.665C-5.466,0.944 -6.052,0.094 -6.956,-0.551C-7.919,-1.237 -8.745,-1.238 -9.516,-0.386C-10.953,1.206 -12.323,2.837 -13.529,4.555C-13.936,5.134 -14.349,5.655 -15.17,5.855C-15.542,5.752 -15.6,5.482 -15.671,5.218C-15.212,4.486 -14.936,3.65 -14.499,2.961C-13.216,0.937 -11.396,-0.821 -9.517,-2.512C-9.101,-2.887 -7.68,-2.991 -7.228,-2.614C-6.279,-1.823 -5.149,-1.246 -4.364,-0.221C-3.572,0.812 -2.397,1.75 -1.255,2.631C-0.834,2.955 -0.392,2.709 0,2.864" style="fill:rgb(88,73,77);fill-rule:nonzero;"/>
                </g>
                <g transform="matrix(1,0,0,1,42.5328,109.886)">
                    <path d="M0,11.354C-0.799,11.234 -0.741,10.427 -1.387,10.184C-0.954,9.485 0.006,8.936 -0.461,7.979C-0.475,7.95 -0.432,7.892 -0.397,7.86C0.623,6.92 0.697,5.63 1.394,4.574C2.33,3.156 3.675,1.979 4.859,0.708C5.518,0 5.673,0.011 6.448,0.603C7.673,1.539 8.942,2.426 10.304,3.225C10.895,3.571 11.067,4.122 11.292,4.644C11.03,4.835 11.137,4.985 11.292,5.209C11.719,5.825 12.461,6.279 12.658,7.011C10.793,6.964 10.2,5.574 9.206,4.682C8.362,3.923 7.536,3.192 6.484,2.644C5.75,2.261 5.254,2.314 4.696,2.998C2.668,5.478 1.193,8.143 0.297,11.033C0.255,11.169 0.148,11.278 0,11.354" style="fill:rgb(81,71,72);fill-rule:nonzero;"/>
                </g>
                <g transform="matrix(1,0,0,1,93.8086,106.68)">
                    <path d="M0,2.965C1.316,2.456 1.967,1.432 2.501,0.45C2.817,-0.133 3.53,-0.45 3.7,-1.111C3.757,-1.33 4.41,-1.445 4.912,-1.66C5.263,-0.162 5.652,1.255 6.487,2.548C6.687,3.025 6.328,3.277 5.916,3.508C5.684,3.586 5.453,3.589 5.227,3.49C5.107,3.411 4.921,3.244 4.878,3.266C3.701,3.872 2.339,4.022 1.055,4.366C0.09,4.625 -0.354,4.304 -0.658,3.637C-0.438,3.413 -0.22,3.189 0,2.965" style="fill:rgb(222,223,226);fill-rule:nonzero;"/>
                </g>
                <g transform="matrix(1,0,0,1,51.3428,108.193)">
                    <path d="M0,0.201C0.568,-0.047 0.267,-0.51 0.389,-0.868C1.291,-1.117 1.574,-0.516 1.868,-0.067C2.559,0.988 3.678,1.7 4.7,2.494C5.585,3.183 6.22,2.948 6.636,2.12C7.695,0.011 9.186,-1.904 10.593,-3.856C10.9,-4.282 11.11,-5.005 12.078,-4.57C12.367,-4.583 12.656,-4.597 12.945,-4.61C13.226,-4.298 12.907,-4.16 12.68,-3.996C12.55,-3.814 11.413,-2.033 10.904,-1.356C10.533,-0.861 7.76,2.647 7.083,4.088C6.682,4.942 6.061,5.206 5.239,4.801C4.549,4.46 2.538,2.875 2.077,2.606C1.058,2.012 0.232,1.27 0,0.201" style="fill:rgb(76,66,67);fill-rule:nonzero;"/>
                </g>
                <g transform="matrix(1,0,0,1,92.8848,106.109)">
                    <path d="M0,4.243C-0.51,4.774 -1.021,5.304 -1.53,5.835C-4.293,4.868 -6.482,3.224 -8.799,1.721C-10.976,0.308 -11.01,0.343 -12.762,2.097C-13.11,2.329 -13.487,2.546 -13.928,2.299C-14.171,2.162 -14.209,1.935 -13.96,1.737C-13.387,0.808 -13.33,0.873 -12.479,-0.257C-12.243,-0.57 -11.476,-1.249 -10.736,-1.175C-10.468,-1.149 -9.452,-0.286 -9.082,-0.164C-6.513,0.689 -5.178,2.875 -2.709,3.815C-1.873,4.133 -1.055,4.768 0,4.243" style="fill:rgb(76,66,67);fill-rule:nonzero;"/>
                </g>
                <g transform="matrix(1,0,0,1,67.6768,103.576)">
                    <path d="M0,-1.914C1.814,-2.865 3.918,-3.213 5.895,-3.824C6.934,-4.145 8.031,-4.339 9.058,-4.682C9.661,-4.883 10.246,-4.997 10.852,-4.877C11.517,-4.746 11.87,-4.369 11.741,-3.768C11.95,-3.78 12.159,-3.792 12.369,-3.804C12.504,-3.539 12.5,-3.338 12.267,-3.056C11.69,-2.36 11.136,-1.649 10.609,-0.925C10.39,-0.626 10.177,-0.323 9.968,-0.019C9.43,0.766 8.303,2.834 7.985,2.876C7.767,2.961 7.564,3.083 7.307,3.08C6.015,2.644 6.642,1.939 7.068,1.404C8.154,0.043 9.027,-1.402 9.841,-2.877C9.976,-3.122 10.281,-3.37 10.01,-3.631C9.763,-3.868 9.359,-3.788 9.061,-3.692C7.228,-3.109 5.329,-2.693 3.467,-2.188C2.357,-1.886 1.249,-1.168 0,-1.914" style="fill:rgb(76,66,67);fill-rule:nonzero;"/>
                </g>
                <g transform="matrix(1,0,0,1,74.6963,107.116)">
                    <path d="M0,-0.671C0.321,-0.669 0.644,-0.666 0.966,-0.664C0.203,0.395 -0.291,1.551 -0.867,2.68C-1.154,3.241 -1.646,3.497 -2.232,3.462C-2.55,3.443 -2.896,3.338 -3.252,3.15C-4.259,2.617 -5.739,0.898 -6.443,-0.252C-6.835,-0.891 -9.257,-2.748 -9.175,-3.423C-8.72,-3.627 -8.673,-3.988 -8.645,-4.357C-7.032,-3.768 -6.421,-2.417 -5.419,-1.385C-4.772,-0.719 -4.237,0.062 -3.668,0.798C-2.848,1.859 -2.106,1.78 -1.409,0.616C-1.085,0.075 -1.138,-0.735 0,-0.671" style="fill:rgb(76,66,67);fill-rule:nonzero;"/>
                </g>
                <g transform="matrix(1,0,0,1,22.2002,149.044)">
                    <path d="M0,-5.486C0.393,-5.703 0.531,-6.058 0.721,-6.385C1.667,-6.42 4.218,-2.119 5.447,-0.647C5.839,-0.177 6.403,0.307 5.762,0.934C5.408,0.718 5.059,0.496 4.696,0.289C4.334,0.083 3.982,0.04 3.701,0.395C3.476,0.407 3.805,0.6 3.701,0.395C3.353,-0.293 -1.255,-6.707 -0.918,-8.259" style="fill:rgb(47,15,10);fill-rule:nonzero;"/>
                </g>
                <g transform="matrix(1,0,0,1,34.0992,64.7219)">
                    <path d="M0,-3.221C0.339,-3.176 0.532,-2.957 0.767,-2.786C0.965,-2.642 1.166,-2.471 1.399,-2.754C3.271,-2.763 4.854,-1.864 6.656,-1.623C7.529,-1.506 8.295,-1.518 9.037,-1.911C9.482,-2.103 9.953,-2.206 10.457,-2.202C10.949,-2.167 11.429,-2.182 11.926,-2.262C12.545,-2.362 13.16,-2.315 13.238,-1.611C11.853,-0.444 9.936,-0.543 8.222,-0.313C5.892,0 3.662,-0.74 1.518,-1.394C0.729,-1.635 0.107,-2.385 0,-3.221" style="fill:rgb(91,64,16);fill-rule:nonzero;"/>
                </g>
                <g transform="matrix(1,0,0,1,18.5503,98.5545)">
                    <path d="M0,9.256L-0.763,8.956C-0.997,8.474 -1.078,7.993 -0.762,7.512C-1.511,7.085 -0.948,6.594 -0.781,6.185C-0.694,5.972 -0.743,5.746 -0.794,5.52C-0.879,5.144 -0.967,4.768 -0.428,4.445C0.313,4.003 -0.681,3.199 0.052,2.594C0.55,2.184 0.679,1.474 0.69,0.814C0.695,0.519 0.968,0.215 1.325,0.032C1.457,0.257 1.425,0.818 1.954,0.262C2.147,0.058 2.374,0.005 2.652,0C3.152,1.091 2.503,2.095 2.06,3.012C1.384,4.411 1.079,5.822 0.996,7.293C0.952,8.051 0.738,8.74 0,9.256" style="fill:rgb(76,66,67);fill-rule:nonzero;"/>
                </g>
                <g transform="matrix(1,0,0,1,78.9249,114.594)">
                    <path d="M0,-6.748C0.324,-5.631 0.705,-6.902 1.052,-6.731C1.936,-6.097 1.313,-5.559 0.85,-5.058C-0.27,-3.848 -1.423,-2.659 -2.302,-1.304C-1.798,-0.75 -0.746,-1.27 -0.411,-0.56C-1.079,-0.466 -1.429,0.07 -2.256,0.108C-3.272,0.154 -3.924,-0.039 -4.483,-0.662C-3.524,-2.957 -1.973,-4.957 0,-6.748" style="fill:rgb(76,66,67);fill-rule:nonzero;"/>
                </g>
                <g transform="matrix(1,0,0,1,160.931,64.9277)">
                    <path d="M0,-5.668C0.283,-5.64 0.485,-5.489 0.783,-5.837C1.247,-6.378 1.175,-7.124 1.852,-7.551C2.415,-7.228 2.768,-6.794 2.389,-6.259C1.075,-4.407 0.508,-2.232 -1.372,-0.615C-2.23,0.123 -3.116,0.811 -4.102,1.421C-4.458,1.642 -4.83,1.883 -5.312,1.616C-5.014,0.657 -4.081,0.113 -3.193,-0.405C-2.832,-0.616 -2.678,-0.867 -2.523,-1.13C-2.307,-1.501 -2.805,-1.392 -2.984,-1.498C-2.762,-2.086 -2.204,-2.501 -1.805,-2.996C-1.203,-3.742 -0.233,-5.648 0,-5.668" style="fill:rgb(23,19,16);fill-rule:nonzero;"/>
                </g>
                <g transform="matrix(1,0,0,1,21.5469,87.3084)">
                    <path d="M0,-5.429C1.057,-5.293 1.103,-5.352 0.905,-6.593C1.317,-6.718 1.545,-6.522 1.739,-6.269C1.957,-4.888 3.272,-3.157 3.079,-1.749C3.017,-1.299 2.423,-1.321 2.534,-0.929C2.742,-0.189 4.208,1.238 3.429,1.937C3.087,1.673 1.717,1.14 1.387,1.289C0.304,-0.863 0.394,-3.18 0,-5.429" style="fill:rgb(19,40,10);fill-rule:nonzero;"/>
                </g>
                <g transform="matrix(1,0,0,1,51.0547,72.2768)">
                    <path d="M0,2.603C-0.853,2.634 -1.115,3.244 -1.557,3.678C-1.955,3.572 -2.342,3.593 -2.718,3.744C-3.181,3.235 -2.752,2.908 -2.395,2.531C-1.419,1.502 -0.194,0.666 0.812,-0.34C1.296,-0.824 1.964,-1.141 2.704,-0.558C2.885,-0.41 3.065,-0.262 3.245,-0.115C2.128,0.763 0.981,1.616 0,2.603" style="fill:rgb(91,73,36);fill-rule:nonzero;"/>
                </g>
                <g transform="matrix(1,0,0,1,47.337,61.6188)">
                    <path d="M0,1.492C-0.476,1.179 -0.916,0.787 -1.569,1.295C-1.91,1.559 -2.308,1.284 -2.68,1.269C-1.949,0.238 -0.89,-0.094 0.795,0.177C0.664,1.057 1.536,0.604 1.945,0.764C1.616,1.586 0.742,1.421 0,1.492" style="fill:rgb(95,73,22);fill-rule:nonzero;"/>
                </g>
                <g transform="matrix(1,0,0,1,45.6612,135.446)">
                    <path d="M0,4.183C-1.494,2.958 -1.335,1.149 0.365,0C0.73,0.415 0.123,0.525 0,0.786C-0.536,1.919 -0.637,3.051 0,4.183" style="fill:rgb(31,25,22);fill-rule:nonzero;"/>
                </g>
                <g transform="matrix(1,0,0,1,29.4556,87.5134)">
                    <path d="M0,46.487C0.82,45.476 2.01,44.863 3.184,44.147C5.211,42.91 7.488,42.029 9.522,40.815C10.373,40.307 11.552,39.996 12.567,39.626C13.972,39.113 15.499,38.913 16.807,38.377C18.394,37.729 20.098,37.821 21.682,37.347C23.181,36.898 24.751,36.508 26.328,36.362C29.257,36.09 31.933,34.828 34.945,34.954C36.636,34.302 38.57,34.442 40.292,33.818C40.971,33.571 41.879,33.789 42.622,33.614C44.545,33.161 46.511,32.881 48.46,32.53C50.848,32.1 53.214,31.573 55.619,31.221C56.788,31.049 57.893,30.707 59.001,30.434C59.817,30.234 60.602,30.056 61.434,30.037C62.956,30.001 64.326,29.495 65.746,29.147C68.042,28.583 70.328,27.985 72.624,27.414C73.3,27.246 73.679,27.623 73.991,28.021C74.632,28.84 75.476,29.564 76.027,30.399C76.476,31.079 76.83,30.692 77.273,30.631C77.273,30.63 77.269,30.629 77.269,30.629C78.775,30.936 79.153,30.625 79.024,29.183C79.036,29.091 79.102,29.004 79.105,28.92C79.192,26.359 81.509,25.561 83.886,24.793C84.359,24.641 84.644,24.263 85.013,23.987C86.236,23.263 87.725,22.994 89.039,22.407C89.804,22.065 90.278,21.279 91.313,21.346C92.107,20.882 92.881,20.391 93.629,19.883C94.999,18.953 94.964,17.977 93.741,16.941C92.644,16.012 91.809,14.901 90.866,13.869C89.662,12.553 88.344,11.375 86.622,10.519C85.165,9.795 83.859,8.889 82.617,7.952C79.099,5.299 74.902,4.217 70.289,4.628C67.961,4.835 65.689,4.553 63.387,4.713C59.753,4.965 56.292,5.727 52.871,6.696C51.155,7.182 49.351,7.312 47.554,7.452C47.196,7.393 46.899,7.253 46.678,7.01C46.587,6.868 46.603,6.734 46.722,6.607C47.155,6.306 46.791,6.155 46.556,5.965C44.674,4.443 42.549,3.163 40.474,1.835C40.271,1.704 39.952,1.652 39.682,1.644C38.49,1.609 37.342,1.358 36.181,1.178C35.843,1.126 35.537,1.102 35.189,1.164C33.604,1.447 32.056,1.841 30.432,2.033C29.49,2.144 28.789,2.95 28.233,3.643C26.53,5.764 26.59,5.612 23.651,5.049C22.114,4.754 20.889,4.179 19.624,3.54C17.875,2.362 16.663,0.786 15.142,-0.561C14.932,-0.746 15.013,-1.005 14.908,-1.218C14.744,-1.801 14.649,-2.41 14.577,-2.989C14.465,-3.883 14.434,-4.861 15.257,-5.637C15.902,-6.245 16.162,-7.032 16.544,-7.74C17.152,-8.864 17.905,-9.555 19.461,-9.928C22.09,-10.558 24.438,-10.016 26.758,-9.229C28.496,-8.64 30.301,-8.121 31.753,-7.039C32.388,-6.567 33.478,-6.561 33.975,-6.946C34.887,-7.651 36.028,-7.624 36.977,-7.681C38.841,-7.795 40.639,-8.364 42.602,-8.026C44.954,-7.62 47.38,-7.687 49.58,-6.568C50.675,-6.011 52.031,-5.744 53.089,-5.054C53.405,-4.848 53.702,-4.866 54.002,-5.073C54.607,-5.488 55.412,-5.646 55.96,-6.15C56.251,-6.417 56.626,-6.635 57.102,-6.712C58.267,-6.899 59.415,-7.025 60.56,-7.432C61.545,-7.782 62.856,-7.578 64.011,-7.505C64.465,-7.476 64.794,-7.179 64.839,-6.629C64.908,-5.781 65.009,-4.895 65.848,-4.208C66.581,-3.607 67.102,-3.401 68.052,-3.723C69.312,-4.152 70.599,-4.276 71.957,-4.387C74.775,-4.618 77.571,-4.677 80.383,-4.478C80.496,-4.471 80.626,-4.5 80.719,-4.462C82.829,-3.61 85.238,-3.69 87.408,-2.859C89.7,-1.981 91.829,-0.951 93.976,0.126C96.45,1.367 98.114,3.117 99.768,4.976C100.907,6.257 101.716,7.668 102.694,9.011C102.982,9.407 103.397,9.736 103.257,10.263C103.227,10.375 103.313,10.545 103.416,10.636C105.081,12.119 104.989,14.095 105.631,15.869C106.181,17.387 105.978,19.03 106.981,20.489C107.483,21.219 107.316,22.185 107.305,23.045C107.3,23.408 107.316,23.664 107.689,23.877C108.246,24.194 108.821,24.059 108.765,23.533C108.608,22.059 108.964,20.506 107.91,19.147C107.393,18.481 107.613,18.084 108.652,17.998C110.32,17.861 112.001,17.687 113.668,17.737C115.111,17.779 116.396,17.331 117.767,17.181C118.625,17.087 119.411,16.646 120.345,16.854C120.481,16.884 120.435,16.632 120.372,16.504C121.112,15.478 122.522,15.246 123.669,15.093C125.891,14.798 127.666,13.759 129.663,13.111C130.265,12.915 130.796,12.756 131.419,12.915C133.812,12.153 135.901,10.939 138.119,9.912C139.593,9.229 140.329,7.778 142.111,7.479C142.89,7.856 142.766,8.521 142.959,9.115C143.314,10.209 143.221,11.37 143.596,12.414C144.255,14.251 143.424,15.889 143.133,17.621C142.684,20.293 140.502,21.995 138.444,23.791C137.821,24.335 136.895,24.525 136.129,24.875C135.047,25.368 133.874,25.79 132.66,26.127C130.994,26.588 129.233,26.777 127.625,27.381C127.247,27.523 126.881,27.289 126.47,27.38C123.855,27.953 121.179,28.315 118.564,28.909C117.905,29.059 116.945,28.795 116.265,29.092C115.696,29.34 115.115,29.406 114.552,29.574C113.866,29.779 113.288,29.929 112.602,29.601C112.403,29.506 112.023,29.558 111.781,29.647C109.887,30.338 107.849,30.395 105.85,30.677C103.879,30.956 101.922,31.182 99.931,31.326C97.738,31.484 95.515,31.703 93.402,32.182C91.568,32.598 89.697,32.29 87.894,32.71C86.06,33.138 84.098,32.956 82.281,33.262C79.919,33.658 77.432,33.271 75.176,34.129C74.005,33.839 72.924,34.385 71.77,34.374C70.81,34.364 69.849,34.569 68.887,34.668C67.135,34.85 65.349,34.906 63.636,35.229C60.988,35.728 58.271,35.884 55.641,36.384C54.359,36.628 53.001,36.653 51.778,37.123C50.913,37.456 49.929,37.212 49.025,37.583C47.081,38.379 44.946,38.604 42.794,38.744C41.926,38.801 41.109,39.154 40.289,39.362C39.018,39.683 37.705,39.804 36.435,40.038C33.485,40.584 30.554,41.198 27.623,41.798C25.979,42.135 24.231,42.205 22.701,42.889C20.871,43.708 18.805,43.745 16.836,43.894C15.498,43.995 14.591,44.537 13.567,45.03C13.437,45.093 13.394,45.268 13.286,45.373C11.88,46.752 10.368,48.051 8.838,49.335C8.046,50 7.419,50.765 6.72,51.487C6.096,52.132 5.257,52.66 5.141,53.572C5.121,53.728 5.102,53.909 4.857,54.029C3.475,54.709 2.736,55.863 1.817,56.884C0.627,57.045 -0.032,58.532 -0.402,57.493C-0.956,55.939 -1.706,52.561 -1.928,50.995C-2.008,50.428 -1.892,49.155 -1.352,48.206C-0.829,47.286 0.12,46.682 0,46.487" style="fill:rgb(9,157,47);fill-rule:nonzero;"/>
                </g>
                <g transform="matrix(1,0,0,1,144.723,77.7767)">
                    <path d="M0,26.402C-1.792,26.258 -3.579,26.299 -5.377,26.391C-7.453,26.498 -8.038,26.03 -8.384,24.353C-8.495,23.813 -8.713,23.278 -8.965,22.769C-10.142,20.389 -11.114,17.94 -12.951,15.8C-13.481,15.182 -13.893,14.449 -14.358,13.77C-14.77,13.169 -15.183,12.554 -15.945,12.184C-16.522,11.268 -16.147,10.639 -15.339,9.86C-12.972,7.58 -9.874,5.969 -6.928,4.457C-3.701,2.8 -0.51,0.703 3.658,0.444C5.559,0.326 7.389,-0.096 9.343,0.297C10.694,0.568 12.126,0.682 13.548,0.616C17.41,1.684 21.083,3.098 24.355,5.095C27.665,7.114 30.909,9.201 34.438,10.963C34.631,11.06 34.83,11.149 35.015,11.256C35.709,11.662 36.656,12.126 36.309,12.865C35.995,13.532 35.005,13.101 34.339,13.002C33.754,12.916 33.076,13.148 32.579,12.711L31.914,12.437C29.752,12.193 27.719,11.599 25.72,10.909C24.769,10.83 24.095,10.322 23.351,9.902C20.249,8.145 17.347,6.162 13.796,4.946C10.427,3.794 7.057,3.92 3.681,4.545C0.226,5.184 -2.734,6.786 -5.688,8.321C-7.021,9.014 -8.336,9.737 -9.656,10.45C-10.713,11.021 -11.003,11.685 -10.192,12.657C-7.817,15.506 -6.206,18.679 -4.661,21.87C-4.374,22.462 -4.066,22.851 -3.206,22.725C0.606,22.17 4.539,22.091 8.084,20.533C11.313,19.114 14.795,18.1 17.863,16.418C19.045,16.32 19.889,15.78 20.739,15.127C22.044,14.124 23.569,13.334 24.891,12.328C25.748,11.676 26.874,11.661 27.869,12.239C28.534,12.625 29.142,13.091 28.455,13.842L28.456,13.839C27.381,14.685 26.424,15.653 25.167,16.315C24.407,16.714 24.349,17.53 23.558,17.858C22.259,18.959 20.618,19.697 19.101,20.535C16.468,21.989 13.743,23.373 10.736,24.264C8.813,24.835 6.878,25.411 4.834,25.676C3.217,25.885 1.675,26.444 0,26.402" style="fill:rgb(221,31,41);fill-rule:nonzero;"/>
                </g>
                <g transform="matrix(1,0,0,1,177.302,75.0433)">
                    <path d="M0,15.444C1.162,15.028 2.256,15.82 3.42,15.677C3.428,15.027 2.921,14.699 2.48,14.503C-0.679,13.096 -3.482,11.266 -6.405,9.576C-7.687,8.835 -8.712,7.771 -10.163,7.279C-12.015,6.651 -13.396,5.346 -15.502,5.042C-16.72,4.866 -17.735,4.009 -19.019,3.778C-19.712,3.369 -21.325,3.617 -20.651,2.23C-19.447,1.242 -18.845,-0.285 -16.9,-0.615C-16.439,-0.533 -16.165,-0.301 -16.075,0.079C-16.053,0.785 -16.85,1.045 -17.241,1.527C-17.575,1.939 -17.673,2.39 -16.876,2.401C-15.287,2.423 -14.178,3.257 -13.005,3.912C-12.065,4.437 -10.608,4.329 -10.15,5.444C-8.841,6.482 -7.205,7.169 -5.86,8.167C-5.144,8.604 -4.56,9.171 -3.918,9.648C-3.059,10.287 -2.09,11.001 -1.085,11.385C0.965,12.169 2.653,13.336 4.503,14.33C4.438,14.4 4.302,14.486 4.318,14.539C4.758,15.914 4.666,16.029 2.988,16.05C2.255,16.059 1.521,16.034 0.788,16.023C0.326,16.015 0.05,15.833 0,15.444" style="fill:rgb(55,16,10);fill-rule:nonzero;stroke:rgb(47,15,10);stroke-width:0.88px;"/>
                </g>
                <g transform="matrix(1,0,0,1,173.178,91.0746)">
                    <path d="M0,0.544C-0.306,-0.936 -1.811,-1.518 -3.293,-0.702C-3.658,-0.501 -3.913,-0.169 -4.248,0.074C-4.931,0.571 -5.41,1.247 -6.476,1.393C-6.936,1.456 -7.362,1.945 -7.698,2.307C-8.403,3.067 -9.306,3.419 -10.448,3.396C-10.775,2.714 -10.045,2.536 -9.609,2.236C-8.237,1.288 -6.75,0.467 -5.296,-0.39C-4.198,-1.037 -3.211,-1.762 -2.65,-2.805C-2.484,-2.811 -2.271,-2.875 -2.157,-2.813C-0.43,-1.879 1.695,-1.721 3.459,-0.861C3.183,-0.852 2.904,-0.818 2.633,-0.84C1.594,-0.923 0.771,-0.755 0.506,0.226C0.47,0.356 0.175,0.439 0,0.544" style="fill:rgb(100,13,13);fill-rule:nonzero;"/>
                </g>
                <g transform="matrix(1,0,0,1,171.566,100.78)">
                    <path d="M0,-5.787C-0.616,-5.052 -1.771,-4.672 -2.03,-3.702C-2.953,-3.688 -3.48,-3.092 -4.18,-2.737C-5.503,-2.064 -6.854,-1.423 -8.232,-0.83C-8.784,-0.593 -9.332,-0.446 -9.67,0.059C-9.93,0.446 -10.326,0.306 -10.585,-0.041C-10.796,-1.238 -9.611,-1.597 -8.699,-2.022C-6.504,-3.044 -4.447,-4.202 -2.67,-5.68C-2.504,-5.842 -2.313,-5.954 -2.037,-5.906C-1.728,-5.78 -1.431,-5.746 -1.134,-5.942C-0.692,-6.233 -0.334,-6.056 0,-5.787" style="fill:rgb(9,157,47);fill-rule:nonzero;"/>
                </g>
                <g transform="matrix(1,0,0,1,169.529,92.2525)">
                    <path d="M0,2.621C-0.145,2.755 -0.29,2.889 -0.435,3.023C-0.729,3.202 -1.022,3.257 -1.313,3.018C0.028,1.513 1.891,0.485 3.649,-0.636C3.69,-0.356 3.74,0.01 3.41,0.118C1.891,0.613 1.312,1.953 0,2.621" style="fill:rgb(100,13,13);fill-rule:nonzero;"/>
                </g>
                <g transform="matrix(0.224599,-0.974451,-0.974451,-0.224599,76.2241,129.827)">
                    <path d="M-0.852,-0.692C-1.215,-0.603 -1.603,-0.426 -1.647,0.086C-1.699,0.706 -1.206,0.817 -0.852,0.991C-0.463,1.182 -0.259,0.776 -0.092,0.442C0.013,0.232 -0.587,-0.648 -0.852,-0.692" style="fill:rgb(23,19,16);fill-rule:nonzero;"/>
                </g>
                <g transform="matrix(1,0,0,1,109.302,68.4358)">
                    <path d="M0,13.239C0.578,12.696 0.982,11.953 2.138,11.949C2.899,11.947 2.958,10.858 3.903,11.12C4.523,11.293 5.003,11.757 5.78,11.619C6.069,11.568 6.458,11.708 6.739,11.845C8.649,12.781 10.83,13.044 12.916,13.531C13.961,13.776 14.949,13.603 15.593,12.786C16.316,11.869 17.497,11.362 18.453,10.665C19.207,10.116 19.919,9.565 20.568,8.933C21.229,8.292 22.122,7.874 23.01,7.462C23.449,7.258 23.978,6.993 23.747,6.5C23.559,6.097 23.062,6.075 22.516,6.004C20.5,5.741 18.524,5.765 16.542,6.125C16.434,6.144 16.316,6.132 16.204,6.132C15.021,6.125 14.699,5.945 14.385,5.042C14.245,4.643 14.104,4.23 14.089,3.82C14.03,2.217 13.102,0.757 13.003,-0.845C12.958,-1.556 12.587,-1.657 11.714,-1.427C11.336,-1.326 10.985,-1.212 10.695,-0.963C9.741,-0.141 8.298,-0.013 7.216,0.67C6.773,0.949 5.979,0.696 5.32,0.911C4.952,1.032 4.423,0.514 4.352,0.087C4.283,-0.32 3.823,-0.771 4.466,-1.179C5.255,-1.679 5.874,-2.293 6.907,-2.602C7.856,-2.886 8.704,-3.465 9.644,-3.871C11.585,-4.709 13.602,-5.213 15.729,-5.622C17.423,-5.948 19.125,-6.134 20.826,-6.374C21.604,-6.485 22.289,-6.443 23.095,-6.29C24.785,-5.97 26.572,-6.041 28.314,-6.179C29.628,-6.282 32.931,-6.072 34.227,-5.722C34.435,-5.666 34.67,-5.679 34.893,-5.662C37.981,-5.42 40.824,-4.432 43.749,-3.693C44.132,-3.596 44.488,-3.475 44.788,-3.247C45.129,-2.986 45.223,-2.749 44.862,-2.423C44.366,-1.972 43.856,-1.528 43.229,-1.216C40.763,0.013 38.406,1.391 35.844,2.489C35.295,2.724 34.734,2.95 34.152,3.119C31.786,3.803 29.3,6.376 30.667,9.167C30.87,9.582 30.51,10.095 31.108,10.448C31.401,10.622 31.102,10.822 30.882,10.989C29.915,11.731 28.521,11.815 27.514,12.475C25.608,13.724 23.166,14.392 21.698,16.115C21.571,16.265 21.42,16.466 21.235,16.507C19.681,16.853 19.068,18.033 18.082,18.879C17.096,19.724 16.099,19.711 15.621,18.628C15.381,18.084 14.957,17.936 14.577,17.827C13.498,17.516 12.595,16.997 11.652,16.501C10.911,16.111 10.233,15.578 9.225,15.622C8.928,15.635 8.61,15.421 8.313,15.292C5.985,14.289 3.558,13.609 0.882,13.68C0.554,13.689 0.196,13.633 0,13.239" style="fill:rgb(6,159,46);fill-rule:nonzero;"/>
                </g>
                <g transform="matrix(1,0,0,1,48.1319,88.5929)">
                    <path d="M0,-26.797C-1.168,-26.453 -2.403,-26.256 -3.475,-25.705C-4.003,-25.665 -4.531,-25.625 -5.01,-25.411C-8.403,-25.041 -11.426,-26.222 -13.02,-28.54C-13.971,-29.462 -13.56,-30.591 -13.409,-31.551C-13.273,-32.41 -12.915,-33.317 -12.542,-34.173C-12.466,-34.347 -12.365,-34.521 -12.23,-34.666C-11.896,-35.027 -11.594,-35.555 -10.944,-35.412C-10.45,-35.303 -10.393,-34.83 -10.261,-34.41C-9.911,-33.296 -9.435,-32.201 -8.097,-31.574C-7.952,-31.506 -7.842,-31.39 -7.703,-31.312C-6.571,-30.681 -5.706,-29.656 -4.114,-29.705C-1.729,-29.779 0.553,-30.095 2.436,-31.445C3.654,-32.319 4.978,-33.096 6.023,-34.128C7.115,-35.205 8.521,-35.912 10.085,-36.433C10.57,-36.595 11.084,-36.644 11.571,-36.616C14.361,-36.456 16.621,-35.365 18.293,-33.601C19.05,-32.804 19.302,-31.668 19.266,-30.625C19.168,-27.832 18.239,-25.347 15.136,-23.739C14.488,-23.403 13.906,-22.938 13.412,-22.451C11.64,-20.704 9.487,-19.347 7.177,-18.128C6.572,-17.809 5.991,-17.418 5.627,-16.873C4.994,-16.918 4.48,-16.818 4.034,-16.361C2.902,-15.202 1.687,-14.099 0.341,-13.098C0.21,-13.001 0.247,-12.752 0.205,-12.572C-0.888,-11.921 -1.92,-11.268 -2.432,-10.14C-2.815,-9.295 -3.576,-8.57 -4.051,-7.746C-5.514,-5.21 -5.834,-2.774 -4.036,-0.106C-2.654,1.943 -0.569,3.185 1.7,4.158C3.781,5.049 6.174,5.538 8.577,5.748C8.931,5.779 9.237,5.661 9.519,5.495C11.36,4.65 13.349,4.325 15.442,4.216C17.712,4.099 19.456,5.051 21.113,6.042C22.195,6.69 21.91,8.025 20.763,8.288C17.175,9.111 13.564,9.847 9.782,9.217C9.055,9.095 8.417,8.787 7.699,8.667C5.547,8.228 3.383,7.816 1.429,6.901C0.771,6.592 0.024,6.429 -0.67,6.241C-2.245,5.815 -3.497,4.982 -4.43,4.007C-5.586,2.798 -6.719,1.551 -7.129,-0.124C-7.39,-1.189 -7.669,-2.344 -8.233,-3.384C-8.02,-4.208 -8.229,-5.05 -8.026,-5.882C-7.826,-6.706 -7.577,-7.466 -7.028,-8.212C-6.934,-8.339 -6.849,-8.471 -6.77,-8.606C-6.396,-9.244 -6.16,-9.958 -5.848,-10.627C-4.905,-12.654 -3.446,-14.386 -1.542,-15.844C0.58,-17.47 2.72,-19.098 5.024,-20.538C7.244,-21.925 9.426,-23.359 11.649,-24.742C13.339,-25.793 14.93,-27.081 15.299,-28.986C15.316,-29.075 15.37,-29.161 15.415,-29.245C15.634,-29.653 16.203,-30.037 15.922,-30.494C15.448,-31.264 15.203,-32.162 14.275,-32.714C13.744,-33.03 13.165,-33.162 12.526,-33.081C11.103,-32.9 9.826,-32.423 8.505,-31.948C7.123,-31.451 6.34,-30.441 5.156,-29.897C3.264,-29.029 2.066,-27.428 0,-26.797" style="fill:rgb(231,210,15);fill-rule:nonzero;"/>
                </g>
                <g transform="matrix(1,0,0,1,160.312,52.8955)">
                    <path d="M0,21.727C-0.855,22.033 -1.408,22.643 -1.875,23.234C-2.286,23.756 -2.818,24.127 -3.341,24.532C-3.891,24.812 -4.48,24.892 -5.115,24.796C-8.358,24.309 -11.461,24.875 -14.544,25.635C-15.549,25.883 -16.562,26.246 -17.636,25.827C-18.957,25 -19.551,23.631 -19.032,22.277C-18.755,21.552 -18.495,20.772 -17.663,20.285C-16.188,19.918 -14.902,19.224 -13.527,18.682C-12.114,17.963 -10.701,17.245 -9.197,16.656C-7.764,15.599 -5.915,14.961 -4.72,13.663C-4.72,13.663 -4.693,13.649 -4.693,13.648C-3.054,12.815 -1.705,11.727 -0.575,10.449C-0.312,10.153 -0.082,9.838 0.187,9.546C0.671,9.019 1.174,8.566 1.174,7.784C1.174,7.253 1.715,6.699 2.096,6.197C2.509,5.651 2.707,5.107 2.47,4.481C2.533,4.182 2.5,2.872 2.402,2.724C1.74,1.718 1.096,0.703 0.391,-0.283C0.069,-0.733 -0.519,-0.942 -1.119,-1.087C-3.445,-1.647 -5.839,-2.022 -8.211,-1.586C-9.034,-1.436 -10.063,-1.477 -10.765,-0.903C-11.078,-0.648 -11.32,-0.707 -11.603,-0.952C-11.964,-1.265 -11.646,-1.572 -11.445,-1.647C-10.232,-2.105 -9.461,-3.067 -8.11,-3.412C-5.618,-4.047 -3.071,-4.283 -0.499,-4.452C-0.282,-4.466 -0.004,-4.519 0.149,-4.434C2.042,-3.397 4.518,-3.241 6.117,-1.773C7.018,-0.947 8.003,-0.189 8.034,1.083C8.047,1.612 8.95,1.875 8.949,2.618C8.946,4.343 8.89,6.07 8.741,7.784C8.667,8.641 7.981,9.429 7.867,10.355C7.656,12.052 6.1,13.345 5.625,14.999C5.442,15.636 4.754,16.173 4.304,16.76C3.977,17.187 3.467,17.522 3.338,18.049C2.531,19.463 1.761,20.899 0,21.727" style="fill:rgb(225,228,230);fill-rule:nonzero;"/>
                </g>
                <g transform="matrix(1,0,0,1,89.8809,71.4318)">
                    <path d="M0,3.095C0.399,2.535 1.162,2.593 1.774,2.403C2.135,2.29 2.534,2.308 2.918,2.204C4.836,1.683 4.732,1.701 4.679,0.049C4.636,-1.277 4.819,-2.619 5.059,-3.935C5.211,-4.776 6.12,-5.134 6.977,-4.634C8.938,-3.49 11.438,-3.557 13.447,-2.52C14.359,-2.049 14.897,-2.299 15.545,-3.095C16.357,-4.093 17.165,-5.1 18.198,-5.947C19.231,-6.795 19.48,-6.659 20.321,-5.683C21.001,-4.894 21.193,-3.902 22.027,-3.205C22.18,-3.078 22.389,-2.997 22.572,-2.894C22.7,-2.542 22.774,-2.169 22.965,-1.841C23.521,-0.884 24.414,-0.569 25.699,-0.776C27.291,-1.031 28.575,-1.787 29.913,-2.463C30.89,-2.957 31.529,-2.722 31.695,-1.77C31.965,-0.214 32.484,1.29 33.022,2.791C33.587,4.368 33.766,4.467 35.766,4.623C36.097,4.773 38.515,4.3 38.897,4.385C40.294,4.696 38.125,6.028 37.231,6.806C36.26,7.815 34.895,8.45 33.727,9.271C32.846,9.89 31.71,9.408 30.923,9.136C29.093,8.5 27.12,8.262 25.302,7.592C24.689,7.366 23.962,6.886 23.346,7.009C22.44,7.19 22.038,6.733 21.465,6.435C20.85,6.116 20.159,5.866 19.633,5.468C19.19,5.132 18.372,5.273 18.202,4.652C15.864,4.044 13.464,3.765 11.018,3.732C9.721,3.927 8.37,3.996 7.144,4.355C6.132,4.651 5.346,5.361 4.843,6.189C4.599,6.591 4.57,7.1 3.923,7.264C3.581,7.276 3.189,7.285 3.01,7.021C2.093,5.667 0.451,4.689 0,3.095" style="fill:rgb(231,206,6);fill-rule:nonzero;"/>
                </g>
                <g transform="matrix(1,0,0,1,132.149,51.4271)">
                    <path d="M0,9.504C-1.061,8.854 -1.934,8.141 -2.575,7.108C-3.423,5.747 -5.247,5.232 -6.928,4.737C-8.769,4.195 -10.559,4.09 -12.33,5.091C-13.011,5.476 -13.915,5.671 -14.714,5.937C-16.788,6.626 -18.792,7.373 -20.464,8.616C-20.867,8.916 -21.097,9.037 -21.547,8.64C-21.9,8.329 -22.145,8.121 -21.804,7.714C-20.624,6.305 -19.635,4.692 -17.933,3.721C-15.542,2.358 -13.207,0.834 -10.186,0.379C-8.611,0.142 -7.134,-0.452 -5.479,-0.457C-2.793,-0.466 -0.179,-0.272 2.228,0.837C3.696,1.515 4.308,2.762 5.123,3.84C6.229,5.304 6.354,7.077 7.009,8.69C7.065,8.831 6.895,9.034 6.829,9.208C6.609,9.27 6.478,9.402 6.401,9.578C4.404,9.97 2.419,9.673 0.431,9.511L0,9.504Z" style="fill:rgb(228,230,231);fill-rule:nonzero;"/>
                </g>
                <g transform="matrix(1,0,0,1,55.8311,94.7382)">
                    <path d="M0,2.522C0.676,2.43 1.355,2.368 1.983,2.658C2.568,2.928 3.19,2.345 3.862,2.855C4.449,3.301 5.333,2.746 6.108,2.788C6.385,2.802 6.727,2.624 7.073,2.63C9.053,2.662 10.922,2.229 12.774,1.714C12.969,1.66 13.216,1.733 13.438,1.747C13.699,0.386 13.516,0.114 12.005,-0.384C11.848,-0.435 11.669,-0.467 11.544,-0.551C9.438,-1.962 7.017,-1.308 4.687,-1.275C4.254,-1.269 3.98,-1.013 3.607,-0.913C3.02,-0.754 2.467,-0.5 1.817,-0.649C2.546,-1.042 3.204,-1.406 2.615,-2.29C2.241,-2.85 2.767,-3.24 3.355,-3.489C6.238,-4.709 9.317,-4.974 12.495,-4.724C14.285,-4.582 15.474,-3.512 16.855,-2.759C18.063,-2.1 19.187,-1.335 20.347,-0.618C20.293,-0.491 20.238,-0.365 20.185,-0.238C20.837,0.745 20.26,1.37 19.23,1.778C17.855,2.322 16.392,2.734 14.895,2.922C12.325,3.244 9.909,4.054 7.343,4.381C4.188,4.783 1.511,6.367 -1.595,6.919C-2.31,7.046 -3.005,7.263 -3.735,7.328C-4.459,7.392 -5.213,7.496 -5.765,6.933C-5.332,6.472 -4.492,6.868 -4.07,6.386C-2.932,6.326 -1.913,5.913 -0.854,5.63C0.936,5.152 1.298,3.773 0,2.522" style="fill:rgb(47,15,10);fill-rule:nonzero;"/>
                </g>
                <g transform="matrix(1,0,0,1,142.677,87.5666)">
                    <path d="M0,-8.844C4.453,-9.9 8.866,-11.238 13.626,-10.154C13.834,-10.106 14.07,-10.142 14.294,-10.138C14.063,-9.816 14.054,-9.552 14.522,-9.351C14.91,-9.185 15.366,-9.093 15.606,-8.745C13.771,-8.756 11.958,-8.887 10.157,-9.218C9.463,-9.346 8.693,-9.272 7.971,-9.203C5.418,-8.96 3.02,-8.156 0.505,-7.768C0.351,-7.744 0.194,-7.648 0.08,-7.552C-1.205,-6.475 -2.826,-5.879 -4.498,-5.342C-4.794,-5.247 -5.031,-5.009 -5.272,-4.818C-6.209,-4.077 -7.152,-3.362 -8.393,-2.944C-9.063,-2.718 -9.205,-1.962 -10.009,-1.751C-10.734,-1.56 -11.449,-1.274 -11.749,-0.565C-11.841,-0.349 -12.255,-0.217 -12.538,-0.068C-13.641,0.513 -14.158,1.307 -13.899,2.394C-14.785,1.357 -14.757,1.167 -13.988,0.367C-12.297,-1.392 -10.195,-2.727 -7.853,-3.844C-7.381,-4.069 -7.006,-4.441 -6.616,-4.769C-5.366,-5.821 -3.603,-6.136 -2.138,-6.884C-1.464,-7.228 -0.898,-7.683 -0.209,-7.996C0.277,-8.217 0.093,-8.534 0,-8.844" style="fill:rgb(115,15,12);fill-rule:nonzero;stroke:rgb(47,15,10);stroke-width:0.88px;"/>
                </g>
                <g transform="matrix(1,0,0,1,168.216,104.508)">
                    <path d="M0,-9.237L0.879,-9.233C-0.185,-8.254 -1.224,-7.299 -2.663,-6.616C-4.312,-5.834 -6.179,-5.219 -7.234,-3.768C-7.842,-3.813 -8.339,-3.638 -8.918,-3.455C-10.765,-2.873 -12.335,-1.754 -14.425,-1.616C-15.229,-1.563 -16.007,-1.168 -16.781,-0.899C-17.303,-0.717 -17.819,-0.539 -18.389,-0.492C-18.656,-0.656 -18.981,-0.883 -19.281,-0.712C-20.407,-0.071 -21.781,-0.475 -22.958,-0.074C-23.175,0 -23.355,-0.183 -23.493,-0.329C-20.939,-1 -18.326,-1.551 -15.738,-2.059C-13.175,-2.562 -11.104,-3.873 -8.604,-4.369C-8.499,-4.39 -8.388,-4.441 -8.313,-4.505C-6.633,-5.943 -4.227,-6.529 -2.475,-7.896C-1.764,-8.45 -0.667,-8.588 0,-9.237" style="fill:rgb(73,35,37);fill-rule:nonzero;"/>
                </g>
                <g transform="matrix(1,0,0,1,97.4405,76.502)">
                    <path d="M0,6.266C-0.836,6.289 -1.642,5.903 -1.642,5.224C-1.642,4.536 -2.044,4.009 -2.254,3.412C-2.832,1.758 -1.722,0.505 0.051,0.081C0.485,-0.023 0.79,0.016 1.124,0.243C1.513,0.507 1.427,0.778 1.256,1.1C0.592,2.356 0.8,3.524 1.76,4.639C2.421,5.406 2.094,5.92 0.937,6.06C0.62,6.099 0.312,6.196 0,6.266" style="fill:rgb(203,210,199);fill-rule:nonzero;"/>
                </g>
                <g transform="matrix(1,0,0,1,111.436,79.4181)">
                    <path d="M0,-0.821C-0.569,0.005 -1.125,0.472 -2.215,0.763C-3.134,1.009 -4.115,1.476 -5.014,1.923C-5.501,2.164 -5.852,2.03 -6.23,1.835C-6.689,1.597 -6.287,1.362 -6.198,1.133C-5.947,0.491 -6.122,-0.157 -6.258,-0.778C-6.336,-1.135 -6.46,-1.406 -6.314,-1.807C-6.101,-2.4 -5.564,-2.985 -4.983,-2.75C-3.37,-2.097 -1.594,-1.72 0,-0.821" style="fill:rgb(218,222,219);fill-rule:nonzero;"/>
                </g>
                <g transform="matrix(1,0,0,1,44.3633,91.0529)">
                    <path d="M0,-4.757C1.047,-3.919 1.955,-2.976 3.013,-2.138C3.74,-1.563 4.317,-0.804 4.716,0C2.766,-0.575 1.333,-1.548 0.815,-3.293C0.734,-3.566 0.309,-3.777 0.026,-4.002C-0.29,-4.254 -0.166,-4.502 0,-4.757" style="fill:rgb(86,155,107);fill-rule:nonzero;"/>
                </g>
                <g transform="matrix(1,0,0,1,132.58,61.2794)">
                    <path d="M0,-0.341C1.096,-0.516 2.198,-0.543 3.287,-0.34C4.184,-0.172 5.088,-0.55 5.972,-0.276C5.998,-0.067 5.908,0.13 5.654,0.14C3.935,0.209 2.216,0.178 0.509,-0.011C0.324,-0.031 0.169,-0.227 0,-0.341" style="fill:rgb(89,81,83);fill-rule:nonzero;"/>
                </g>
                <g transform="matrix(-0.460002,-0.887918,-0.887918,0.460002,142.928,71.1189)">
                    <path d="M-2.182,-3.214C-2.59,-2.922 -2.477,-2.348 -2.427,-1.93C-2.327,-1.09 -2.086,-0.253 -2.182,0.588C-2.21,0.834 -1.935,1.056 -1.702,1.196C-1.692,-0.267 -1.499,-1.722 -2.182,-3.214" style="fill:rgb(122,138,133);fill-rule:nonzero;"/>
                </g>
                <g transform="matrix(1,0,0,1,155.593,69.5906)">
                    <path d="M0,-3.032C0.065,-2.744 0.014,-2.479 -0.298,-2.304C-1.527,-1.618 -2.742,-0.92 -3.845,-0.094C-3.972,0 -4.263,-0.054 -4.478,-0.039C-4.619,-0.649 -3.876,-0.604 -3.551,-0.857C-2.475,-1.696 -1.22,-2.346 0,-3.032" style="fill:rgb(122,138,133);fill-rule:nonzero;"/>
                </g>
                <g transform="matrix(1,0,0,1,50.0664,100.75)">
                    <path d="M0,0.921C2.666,1.052 5.131,0.321 7.469,-0.537C9.688,-1.353 11.939,-2.097 14.299,-2.37C16.063,-2.574 17.627,-3.251 19.376,-3.409C21.15,-3.568 22.795,-4.184 24.508,-4.518C25.879,-4.785 29.36,-5.653 30.498,-5.885C35.205,-6.84 39.873,-7.753 44.806,-7.716C48.059,-7.692 51.312,-8.063 54.576,-7.647C56.738,-7.372 58.725,-6.805 60.497,-5.744C65.108,-2.981 69.582,-0.102 72.771,3.889C73.35,4.613 73.896,5.322 73.285,6.193C72.755,6.949 71.988,7.342 70.884,7.046C69.022,7.73 67.095,8.315 65.321,9.128C63.854,9.802 62.327,10.337 60.829,10.939C59.996,11.273 59.236,11.402 58.458,11.165C57.977,11.018 57.82,9.332 58.272,8.791C58.813,8.145 59.201,7.203 60.56,7.472C61.792,6.516 63.464,6.438 64.941,5.965C65.608,5.752 66.24,5.42 66.815,5.063C67.589,4.583 67.608,4.093 66.856,3.574C66.188,3.113 65.301,2.848 65.379,1.911C65.395,1.72 64.999,1.455 64.727,1.307C62.984,0.355 61.631,-0.961 60.086,-2.093C58.784,-3.046 57.229,-3.549 55.751,-4.135C54.313,-4.706 52.642,-4.927 51.043,-5.166C48.092,-5.606 45.077,-5.442 42.146,-5.215C40.23,-5.066 38.294,-4.765 36.363,-4.548C35.473,-4.448 34.581,-4.112 33.617,-4.174C33.513,-4.181 33.405,-4.11 33.295,-4.096C32.426,-3.983 31.993,-3.079 31.036,-3.196C30.057,-3.316 29.165,-3.229 28.235,-2.931C27.406,-2.665 26.484,-2.603 25.615,-2.414C23.557,-1.967 21.484,-1.539 19.708,-0.505C19.455,-0.357 19.225,-0.293 18.93,-0.369C18.525,-0.473 18.136,-0.395 17.782,-0.242C16.17,0.46 14.362,0.588 12.641,0.97C11.566,1.209 10.495,1.483 9.463,1.822C6.813,2.693 3.994,2.824 1.224,3.174C0.168,3.308 -0.904,3.376 -1.947,3.556C-5.981,4.253 -9.992,4.165 -13.988,3.387C-14.471,3.293 -14.899,3.013 -15.381,2.906C-17.666,2.401 -19.615,1.352 -21.543,0.297C-22.147,-0.033 -22.802,0.077 -23.443,-0.189C-25.179,-0.908 -26.174,-2.08 -27.107,-3.332C-28.542,-5.256 -28.502,-7.348 -27.926,-9.47C-27.865,-9.694 -27.803,-9.938 -27.649,-10.12C-27.343,-10.481 -26.705,-10.437 -26.442,-10.041C-25.88,-9.191 -25.284,-8.351 -24.811,-7.468C-23.377,-4.789 -21.094,-2.754 -18.049,-1.281C-15.639,-0.115 -12.988,0.486 -10.27,0.935C-8.366,1.25 -6.475,1.158 -4.552,1.052C-3.044,0.969 -1.517,0.991 0,0.921" style="fill:rgb(224,36,49);fill-rule:nonzero;"/>
                </g>
                <g transform="matrix(1,0,0,1,22.9576,93.3233)">
                    <path d="M0,-11.919C-0.03,-12.216 -0.151,-12.468 -0.504,-12.607C-1.436,-12.649 -2.391,-12.582 -3.199,-13.099C-3.319,-13.176 -3.528,-13.206 -3.687,-13.191C-5.35,-13.04 -5.845,-13.943 -6.285,-15.014C-6.666,-15.941 -6.012,-16.571 -5.438,-17.132C-4.934,-17.626 -4.257,-18.019 -3.415,-18.286C-2.375,-18.615 -1.215,-18.542 -0.251,-19.052C0.007,-19.189 0.437,-19.245 0.729,-19.174C2,-18.864 3.319,-19.223 4.596,-18.904C5.912,-18.575 7.345,-18.73 8.655,-18.31C9.016,-18.194 9.506,-18.243 9.772,-18.056C10.394,-17.621 11.09,-17.635 11.825,-17.574C13.566,-17.429 14.974,-16.523 16.576,-16.043C17.238,-15.844 17.371,-15.315 16.921,-14.773C16.141,-13.83 16.131,-12.643 15.457,-11.642C15.135,-11.165 15.189,-10.455 15.265,-9.868C15.443,-8.508 15.651,-7.144 15.819,-5.788C15.958,-4.674 16.394,-3.674 17.06,-2.818C18.498,-0.972 19.941,1.053 22.492,1.908C24.195,2.479 25.851,3.074 27.471,3.781C28.091,4.052 28.879,4.076 29.598,4.176C31.555,4.449 31.668,4.546 31.705,6.212C27.725,7.202 23.62,7.282 19.497,7.248C18.772,7.243 18.033,7.07 17.32,7.326C14.583,7.2 12.15,6.355 9.815,5.231C8.204,4.455 6.993,3.304 5.586,2.337C5.324,2.156 3.892,0.084 3.669,-0.399C3.101,-1.619 2.651,-2.876 1.947,-4.051C0.939,-6.186 0.935,-8.469 0.567,-10.694C0.486,-11.183 0.436,-11.585 0,-11.919" style="fill:rgb(14,161,56);fill-rule:nonzero;"/>
                </g>
                <g transform="matrix(1,0,0,1,101.346,104.914)">
                    <path d="M0,4.548C-0.002,3.915 -0.125,3.36 -0.544,2.76C-1.089,1.981 -1.062,0.988 -1.284,0.093C-1.719,-1.66 -1.541,-3.476 -1.834,-5.258C-1.897,-5.639 -1.58,-6.142 -1.749,-6.613C-1.555,-7.791 -1.323,-8.105 -0.067,-7.952C1.607,-7.746 3.425,-7.896 4.877,-6.886C5.329,-6.572 5.928,-6.387 6.484,-6.191C7.771,-5.74 9.381,-4.544 9.844,-3.622C9.899,-3.512 9.82,-3.355 9.803,-3.22C9.134,-1.474 7.711,-0.032 6.975,1.718C6.537,2.757 6.3,3.791 6.016,4.837C5.452,5.171 5.448,5.603 5.476,6.149C5.519,6.987 5.702,7.825 5.373,8.695C5.17,9.231 5.307,9.916 5.725,10.467C5.872,10.66 6.093,10.833 6.166,11.043C6.282,11.376 6.268,11.758 6.271,12.083C6.277,12.653 5.559,11.876 5.307,12.277C5.26,12.352 5.142,12.398 5.057,12.457C3.689,10.79 2.348,9.112 1.326,7.277C1.265,7.165 1.067,7.105 0.934,7.021C0.759,6.699 0.772,6.288 0.289,6.113C-0.227,5.644 -0.535,5.148 0,4.548" style="fill:rgb(223,225,228);fill-rule:nonzero;"/>
                </g>
                <g transform="matrix(1,0,0,1,18.5503,104.881)">
                    <path d="M0,2.93C0.486,1.373 0.229,-0.295 0.772,-1.8C1.32,-3.318 2.012,-4.82 2.652,-6.326C3.481,-6.823 4.073,-6.298 4.506,-5.902C6.272,-4.288 8.536,-3.254 10.718,-2.117C11.233,-1.849 11.834,-1.6 11.533,-0.94C10.179,-0.077 9.356,1.163 8.277,2.219C6.907,3.559 5.729,5.032 4.408,6.409C3.614,7.238 2.918,8.124 2.539,9.105C2.352,9.586 2.114,9.634 1.674,9.68C0.991,9.753 1.206,9.272 1.089,9.023C0.653,8.09 0.588,7.084 0.47,6.113C0.339,5.048 0.271,3.98 0,2.93" style="fill:rgb(226,227,230);fill-rule:nonzero;"/>
                </g>
                <g transform="matrix(1,0,0,1,120.95,92.7054)">
                    <path d="M0,15.09C0.343,14.807 0.857,14.884 1.243,14.69C2.187,14.212 2.471,13.387 1.854,12.688C0.909,11.616 -0.031,10.536 -1.077,9.532C-3.093,7.597 -5.424,5.933 -7.909,4.415C-9.263,3.589 -10.524,2.661 -12.007,1.979C-14.024,1.052 -16.271,0.794 -18.495,0.643C-20.561,0.503 -22.651,0.553 -24.735,0.783C-26.121,0.936 -27.547,0.868 -28.955,0.869C-30.54,0.87 -32.093,1.003 -33.63,1.352C-35.9,1.867 -38.243,2.119 -40.501,2.725C-41.664,3.037 -43.009,2.902 -44.249,3.162C-48.041,3.957 -45.647,1.234 -45.32,0.941C-44.858,0.611 -42.866,1.81 -42.324,1.71C-39.779,1.237 -37.282,0.682 -34.807,-0.05C-33.086,-0.559 -31.107,-0.848 -29.221,-0.891C-28.405,-0.91 -27.674,-1.29 -26.826,-1.098C-26.076,-0.929 -25.274,-0.91 -24.495,-0.83C-23.527,-0.729 -22.637,-1.046 -21.713,-1.154C-20.614,-1.282 -19.453,-1.211 -18.344,-1.084C-15.955,-0.81 -13.509,-0.585 -11.458,0.576C-9.761,1.537 -8.102,2.565 -6.576,3.699C-5.78,4.292 -4.912,4.826 -4.04,5.25C-2.501,5.998 -1.391,7.004 -0.445,8.188C0.051,8.81 0.619,9.377 1.271,9.889C1.573,10.126 2.031,10.248 1.809,10.766C1.631,11.178 2.222,11.252 2.528,11.408C4.071,12.196 4.302,13.819 2.988,14.826C2.104,15.504 0.949,15.833 -0.038,16.38C-0.087,16.305 -0.136,16.231 -0.183,16.155C0.11,15.826 -0.32,15.415 0,15.09" style="fill:rgb(47,15,10);fill-rule:nonzero;"/>
                </g>
                <g transform="matrix(1,0,0,1,97.8311,103.949)">
                    <path d="M0,-5.851C-1.203,-5.624 -1.48,-4.651 -2.147,-4.003C-2.71,-3.456 -3.14,-2.845 -3.461,-2.127C-3.985,-0.953 -5.041,0.026 -5.748,1.155C-6.189,1.86 -6.941,1.861 -7.699,1.354C-8.824,0.6 -10.017,-0.092 -11.079,-0.901C-12.794,-2.207 -14.431,-3.584 -16.086,-4.943C-16.184,-5.023 -16.155,-5.206 -16.187,-5.342C-14.876,-6.252 -13.33,-6.753 -11.651,-6.675C-9.268,-6.565 -7.005,-7.134 -4.678,-7.309C-3.7,-7.505 -2.694,-7.399 -1.7,-7.509C0.146,-7.712 0.46,-7.359 -0.003,-5.857L0,-5.851Z" style="fill:rgb(224,225,229);fill-rule:nonzero;"/>
                </g>
                <g transform="matrix(1,0,0,1,74.6963,102.19)">
                    <path d="M-1.227,6.118C-1.537,6.607 -1.868,7.229 -2.578,7.18C-3.302,7.13 -3.806,6.555 -4.159,6.035C-5.056,4.713 -5.836,3.337 -7.245,2.297C-7.884,1.827 -7.868,0.977 -8.645,0.569C-8.846,-0.541 -7.774,-0.376 -7.02,-0.528C-5.814,-0.62 -4.634,-0.787 -3.579,-1.321C-3.483,-1.369 -3.402,-1.474 -3.308,-1.48C-1.191,-1.613 0.613,-2.633 2.69,-2.898C3.284,-2.974 3.687,-2.916 3.998,-2.529C4.324,-2.122 3.784,-1.982 3.596,-1.732C2.598,-0.407 2.045,1.112 0.946,2.396C0.594,2.808 0.31,3.259 -0.044,3.671" style="fill:rgb(225,227,230);fill-rule:nonzero;"/>
                </g>
                <g transform="matrix(1,0,0,1,63.4209,110.616)">
                    <path d="M0,-6.992C-0.211,-6.94 -0.542,-6.94 -0.616,-6.827C-1.897,-4.872 -3.261,-2.958 -4.646,-1.052C-4.953,-0.629 -5.041,-0.063 -5.302,0.426C-5.648,1.077 -6.257,1.093 -6.943,1.079C-7.112,1.076 -7.297,1.094 -7.361,0.951C-7.878,-0.194 -9.328,-0.624 -10.175,-1.536C-10.707,-2.108 -10.795,-2.943 -11.689,-3.29C-12.077,-3.698 -12.604,-3.96 -13.108,-4.255C-13.72,-4.612 -13.644,-5.011 -12.956,-5.271C-12.762,-5.345 -12.534,-5.361 -12.32,-5.394C-10.103,-5.742 -7.826,-5.842 -5.675,-6.468C-4.3,-6.868 -2.799,-6.913 -1.531,-7.653C-0.79,-8.086 -0.331,-7.507 0,-6.992" style="fill:rgb(225,225,228);fill-rule:nonzero;"/>
                </g>
                <g transform="matrix(1,0,0,1,46.6084,111.017)">
                    <path d="M0,-4.591C0.041,-4.458 0.083,-4.324 0.125,-4.191C-0.745,-4.471 -1.016,-3.874 -1.397,-3.471C-2.81,-1.982 -4.225,-0.494 -5.604,1.015C-6.534,2.032 -6.92,2.021 -7.589,0.907C-7.735,0.664 -7.941,0.435 -8.168,0.238C-9.646,-1.048 -10.906,-2.445 -11.824,-4.063C-12.132,-4.605 -12.745,-4.956 -12.942,-5.658C-13.213,-6.623 -12.412,-6.082 -12.122,-6.233C-10.468,-5.817 -8.942,-5.01 -7.125,-5.095C-5.237,-5.184 -3.343,-4.779 -1.455,-5.176C-0.833,-5.307 -0.241,-5.195 0,-4.591" style="fill:rgb(225,226,229);fill-rule:nonzero;"/>
                </g>
                <g transform="matrix(1,0,0,1,112.872,105.961)">
                    <path d="M0,-3.742C0.979,-3.041 1.744,-2.21 2.438,-1.304C2.802,-0.83 2.629,-0.675 2.225,-0.433C1.309,0.115 0.355,0.299 -0.681,-0.201C-2.327,-0.779 -3.129,-1.705 -2.653,-2.657C-2.183,-3.598 -1.284,-4.041 0,-3.742" style="fill:rgb(223,223,226);fill-rule:nonzero;"/>
                </g>
                <g transform="matrix(1,0,0,1,112.872,109.157)">
                    <path d="M0,-6.938C-0.529,-7 -0.986,-6.854 -1.416,-6.615C-2.455,-6.037 -2.495,-5.104 -1.635,-4.297C-1.319,-4 -0.721,-3.889 -0.681,-3.398C-0.729,-3.097 -0.776,-2.795 -1.231,-2.717C-3.038,-3.159 -3.038,-3.159 -3.445,-1.528C-3.854,-0.924 -4.341,-2.208 -4.738,-1.494C-4.94,-1.13 -5.076,-0.817 -4.801,-0.363C-4.623,-0.07 -5.095,0.354 -5.511,0.594C-5.537,0.291 -6.183,0.184 -5.876,-0.233C-5.01,-1.407 -4.844,-2.792 -4.307,-4.063C-3.736,-5.413 -2.747,-6.415 -1.724,-7.462C-1.671,-7.198 -1.571,-7.027 -1.2,-7.234C-0.664,-7.532 -0.273,-7.385 0,-6.938" style="fill:rgb(76,66,67);fill-rule:nonzero;"/>
                </g>
                <g transform="matrix(1,0,0,1,114.469,116.892)">
                    <path d="M0,-5.392C0.11,-4.82 -0.462,-4.381 -0.857,-4.345C-2.162,-4.225 -2.771,-3.199 -3.951,-2.938C-4.823,-2.745 -5.389,-2.259 -5.062,-1.388C-4.869,-0.873 -5.414,-0.556 -5.656,-0.159C-5.889,0.032 -6.135,0.025 -6.392,-0.124C-6.28,-0.603 -6.199,-1.036 -6.36,-1.569C-6.736,-2.809 -6.315,-3.334 -4.786,-3.669C-3.265,-4.003 -2.063,-4.834 -0.641,-5.31C-0.424,-5.383 -0.226,-5.424 0,-5.392" style="fill:rgb(56,150,116);fill-rule:nonzero;"/>
                </g>
                <g transform="matrix(0.764304,0.644857,0.644857,-0.764304,108.747,106.849)">
                    <path d="M1.022,-0.157C0.242,0.065 -0.414,0.367 -0.319,1.379C-0.24,2.211 0.23,2.627 1.022,2.404C1.327,2.319 1.5,1.948 1.947,2.178C2.304,1.265 1.707,0.546 1.022,-0.157" style="fill:rgb(183,181,186);fill-rule:nonzero;"/>
                </g>
                <g transform="matrix(-0.951762,0.306837,0.306837,0.951762,108.341,118.968)">
                    <path d="M-0.424,-2.174C-0.66,-2.111 -0.896,-2.046 -1.133,-1.982C-1.455,-1.231 -1.165,-0.738 -0.424,-0.414C0.412,-0.052 0.873,-0.281 1.285,-1.282C0.461,-1.259 -0.199,-1.443 -0.424,-2.174" style="fill:rgb(31,25,22);fill-rule:nonzero;"/>
                </g>
                <g transform="matrix(1,0,0,1,101.936,150.206)">
                    <path d="M-0.368,-38.588C-0.667,-38.413 -0.43,-38.192 -0.389,-37.985C-0.113,-36.592 -0.144,-36.527 -1.785,-36.206C-2.448,-36.077 -3.031,-35.796 -3.664,-35.613C-7.28,-34.563 -11.095,-34.179 -14.757,-33.283C-18.124,-32.458 -21.543,-31.76 -24.973,-31.125C-28.913,-30.396 -32.874,-29.726 -36.856,-29.173C-38.966,-28.88 -41.049,-28.492 -43.149,-28.175C-44.245,-28.01 -45.276,-27.578 -46.359,-27.335C-48.476,-26.861 -50.648,-26.534 -52.722,-25.958C-54.401,-25.492 -56.14,-25.204 -57.776,-24.529C-58.986,-24.03 -60.417,-23.705 -61.805,-23.466C-62.483,-23.349 -63.13,-23.17 -63.682,-22.854C-65.068,-22.058 -66.712,-21.618 -68.067,-20.839C-70.024,-19.714 -72.078,-18.653 -73.713,-17.182C-73.973,-16.949 -74.193,-16.646 -74.302,-16.344C-74.932,-14.595 -76.021,-12.867 -75.545,-10.999C-75.057,-9.081 -74.933,-7.126 -74.138,-5.217C-73.49,-3.66 -72.521,-2.28 -71.675,-0.837C-71.311,-0.218 -71.231,0.26 -71.845,0.612C-72.499,0.987 -73.082,0.691 -73.478,0.146C-73.588,-0.006 -73.804,-0.105 -73.973,-0.228C-73.928,-0.466 -73.994,-0.69 -74.16,-0.88C-75.125,-1.991 -76.058,-3.116 -76.924,-4.284C-77.163,-4.605 -78.866,-7.156 -79.014,-7.546C-79.327,-8.368 -78.234,-6.912 -79.014,-7.546C-79.78,-9.121 -79.846,-10.835 -80.174,-12.465C-80.459,-13.883 -80.391,-15.548 -79.04,-16.875C-78.585,-17.322 -77.985,-17.843 -78.163,-18.567C-76.989,-18.857 -76.813,-19.937 -75.952,-20.463C-74.524,-21.337 -72.896,-21.978 -71.659,-23.081C-71.314,-23.388 -70.65,-23.44 -70.158,-23.648C-68.675,-24.273 -67.342,-25.2 -65.698,-25.492C-62.881,-25.993 -60.609,-27.58 -57.737,-27.992C-55.049,-28.377 -52.458,-29.119 -49.941,-30.007C-49.791,-30.06 -49.607,-30.075 -49.442,-30.067C-47.817,-29.979 -46.317,-30.334 -44.888,-30.932C-43.73,-31.417 -42.439,-31.068 -41.23,-31.369C-38.712,-31.996 -36.138,-32.563 -33.572,-32.916C-31.714,-33.173 -29.907,-33.64 -28.051,-33.898C-25.893,-34.199 -23.687,-34.598 -21.565,-35.185C-20.264,-35.546 -18.922,-35.971 -17.469,-35.768C-17.281,-35.742 -17.052,-35.877 -16.853,-35.954C-15.683,-36.409 -14.438,-36.64 -13.17,-36.802C-12.839,-36.844 -12.418,-36.813 -12.196,-36.969C-11.034,-37.781 -9.577,-37.62 -8.242,-37.845C-6.487,-38.139 -4.887,-38.842 -3.109,-39.091C-2.412,-39.189 -3.055,-39.726 -2.901,-40.037C-2.736,-40.053 -2.573,-40.069 -2.409,-40.085" style="fill:rgb(226,37,50);fill-rule:nonzero;"/>
                </g>
                <g transform="matrix(1,0,0,1,27.6621,110.781)">
                    <path d="M0,16.883C-1.18,16.706 -2.181,16.41 -1.726,15.139C-2.51,13.57 -2.089,11.821 -2.85,10.227C-3.131,9.639 -2.786,8.811 -2.522,8.26C-1.958,7.085 -2.034,5.851 -1.649,4.671C-1.362,3.79 -0.63,3.146 -0.21,2.343C0.11,1.729 0.381,1.048 1.042,0.519C1.61,0.064 1.912,0 2.323,0.546C2.675,1.014 2.927,1.556 3.375,1.948C5.654,3.948 7.604,6.208 10.301,7.88C10.605,8.069 10.999,8.346 11.031,8.608C11.114,9.303 11.727,9.618 12.237,10.025C12.54,10.298 13.409,10.387 13.049,10.85C12.666,11.345 12.375,12.186 11.491,12.124C10.787,12.073 10.289,12.304 9.878,12.577C9.595,12.765 9.365,12.853 9.045,12.88C8.061,12.964 7.256,13.25 6.412,13.761C5.823,14.117 4.906,14.292 4.158,14.616C2.677,15.26 1.12,15.796 0,16.883" style="fill:rgb(226,228,229);fill-rule:nonzero;"/>
                </g>
                <g transform="matrix(1,0,0,1,42.5328,111.795)">
                    <path d="M0,9.445C-0.397,8.322 0.338,7.357 0.767,6.396C1.46,4.842 2.297,3.319 3.441,1.938C3.876,1.413 4.464,1.028 4.704,0.333C4.902,-0.243 5.687,-0.22 6.419,0.182C8.024,1.063 9.406,2.132 10.581,3.395C11.175,4.033 11.787,4.678 12.657,5.1C13.049,5.483 13.442,5.864 13.92,6.329C13.626,6.95 12.603,7.107 11.945,7.108C10.357,7.111 9.073,7.914 7.574,7.998C6.093,8.081 4.816,8.704 3.383,8.928C2.504,9.066 1.694,9.529 0.751,9.597C0.473,9.616 0.194,9.688 0,9.445" style="fill:rgb(225,226,227);fill-rule:nonzero;"/>
                </g>
                <g transform="matrix(1,0,0,1,78.5137,106.261)">
                    <path d="M0,7.773C-0.444,7.766 -0.893,7.787 -1.333,7.745C-1.802,7.701 -2.431,8.084 -2.71,7.587C-2.933,7.19 -2.381,6.839 -2.144,6.533C-1.692,5.951 -1.221,5.379 -0.736,4.815C-0.161,4.143 0.432,3.482 1.03,2.825C1.382,2.439 1.913,1.09 2.072,0.818C2.563,-0.021 3.287,-0.311 4.175,0.191C5.562,0.977 6.971,1.771 8.174,2.729C9.105,3.472 10.214,3.949 11.264,4.498C11.902,4.832 12.427,5.185 12.841,5.683C11.149,5.932 9.467,6.073 7.804,6.594C5.994,7.161 3.98,7.393 2.033,7.501C1.321,7.54 0.706,7.88 0,7.773" style="fill:rgb(226,227,230);fill-rule:nonzero;"/>
                </g>
                <g transform="matrix(1,0,0,1,58.3155,110.167)">
                    <path d="M0,7.379C1.386,5.546 2.676,3.665 4.246,1.922C4.78,1.328 5.423,0.819 5.949,0.222C6.396,-0.286 7.04,-0.231 7.709,0.13C8.95,0.8 9.953,1.676 10.725,2.673C11.143,3.214 11.629,3.669 12.124,4.14C12.352,4.357 12.868,4.441 12.646,4.895C12.437,5.325 12.118,5.576 11.522,5.567C11.313,5.565 11.101,5.649 10.891,5.692C9.159,5.941 7.512,6.508 5.748,6.648C4.294,6.753 2.87,6.975 1.524,7.454C1.078,7.612 0.681,7.665 0.279,7.403C0.187,7.39 0.094,7.382 0,7.379" style="fill:rgb(226,226,230);fill-rule:nonzero;"/>
                </g>
                <g transform="matrix(1,0,0,1,58.5948,117.225)">
                    <path d="M0,0.345C1.046,0.153 2.09,-0.093 3.104,-0.331C3.956,-0.531 4.67,-0.557 5.469,-0.41C5.388,-0.229 5.224,-0.041 5.016,-0.054C3.753,-0.137 2.641,0.288 1.537,0.665C0.844,0.902 0.388,0.862 0,0.345" style="fill:rgb(107,18,22);fill-rule:nonzero;"/>
                </g>
                <g transform="matrix(1,0,0,1,35.1123,64.1102)">
                    <path d="M0,-4.057C1.114,-3.52 1.603,-2.361 2.93,-2.043C4.356,-1.702 5.699,-1.087 7.243,-1.128C7.539,-1.136 7.796,-1.103 8.01,-0.928C6.955,0 5.547,-0.505 4.612,-0.769C3.203,-1.167 1.563,-1.23 0.386,-2.141C0.114,-2.601 0.387,-3.197 -0.184,-3.598C-0.321,-3.694 -0.166,-3.928 0,-4.057" style="fill:rgb(231,210,15);fill-rule:nonzero;"/>
                </g>
                <g transform="matrix(0.731028,-0.682348,-0.682348,-0.731028,102.213,109.926)">
                    <path d="M-1.708,-1.864C-2.765,-1.335 -1.734,0.923 -2.097,1.691C-1.706,1.734 -1.316,1.776 -0.925,1.819C-0.336,1.735 -0.495,1.241 -0.318,0.931C-0.767,0.558 -0.917,-0.876 -1.216,-1.329" style="fill:rgb(31,25,22);fill-rule:nonzero;"/>
                </g>
                <g transform="matrix(1,0,0,1,170.527,94.4175)">
                    <path d="M0,-6.148C0.301,-5.418 0.104,-4.954 -0.727,-4.429C-2.969,-3.012 -5.249,-1.643 -7.554,-0.298C-7.676,-0.228 -7.719,-0.066 -7.798,0.053C-9.278,1.114 -11.029,1.822 -12.77,2.513C-13.947,2.979 -15.165,3.386 -16.341,3.869C-19.102,5.005 -21.959,5.924 -25.083,6.083C-26.207,6.141 -27.304,6.256 -28.397,6.487C-30.167,6.861 -30.455,6.666 -31.009,5.256C-31.483,4.045 -32.32,2.959 -32.835,1.745C-33.534,0.097 -34.915,-1.296 -35.72,-2.922C-35.885,-3.256 -36.191,-3.548 -36.46,-3.843C-37.59,-5.082 -37.539,-5.251 -36.182,-6.32C-35.353,-6.975 -34.304,-7.328 -33.378,-7.842C-31.488,-8.891 -29.658,-10.031 -27.461,-10.695C-26.493,-10.987 -25.707,-11.646 -24.673,-11.953C-22.023,-12.739 -19.336,-13.009 -16.513,-12.998C-13.67,-12.986 -11.24,-12.055 -8.917,-11.021C-7.386,-10.34 -5.949,-9.4 -4.491,-8.554C-3.034,-7.708 -1.792,-6.573 0,-6.148" style="fill:rgb(24,15,14);fill-rule:nonzero;"/>
                </g>
                <g transform="matrix(1,0,0,1,160.984,79.1522)">
                    <path d="M0,-4.099C0.844,-3.986 0.632,-4.753 1.09,-4.986C1.588,-5.24 1.769,-5.988 2.5,-5.825C3.211,-5.667 3.804,-5.179 3.85,-4.545C3.886,-4.047 4.177,-3.741 4.566,-3.512C6.141,-2.587 6.307,-0.968 7.344,0.222C7.699,0.63 7.526,1.207 7.384,1.697C6.823,1.889 6.4,1.409 5.893,1.57C5.739,1.326 5.661,0.965 5.326,0.91C4.208,0.727 3.266,0.338 2.353,-0.244C1.921,-0.519 1.279,-0.593 0.818,-0.982C0.515,-1.24 -0.024,-1.494 -0.556,-1.255C-0.794,-1.147 -0.927,-1.126 -1.114,-1.303C-1.396,-1.568 -2.133,-1.594 -2.002,-2.022C-1.88,-2.424 -1.477,-2.818 -1.076,-3.1C-0.652,-3.399 -0.124,-3.59 0,-4.099" style="fill:rgb(16,157,57);fill-rule:nonzero;"/>
                </g>
                <g transform="matrix(1,0,0,1,60.0938,93.7185)">
                    <path d="M0,-1.365C-0.062,-1.838 0.076,-2.124 0.38,-2.247C2.615,-3.147 4.977,-3.405 7.432,-3.102C10.19,-2.762 12.226,-1.387 14.149,0.121C14.983,0.774 14.742,1.576 13.622,1.747C12.405,1.931 11.135,2.04 10.231,1.034C9.804,0.559 9.05,0.325 8.775,-0.286C8.713,-0.425 8.442,-0.57 8.249,-0.589C6.78,-0.738 5.505,-1.408 4.063,-1.612C3.056,-1.754 2.066,-1.492 1.063,-1.49C0.739,-1.489 0.416,-1.416 0,-1.365" style="fill:rgb(219,39,50);fill-rule:nonzero;"/>
                </g>
                <g transform="matrix(1,0,0,1,37.7974,76.8654)">
                    <path d="M0,19.283C-2.652,19.386 -4.654,18.401 -6.178,16.701C-6.647,16.178 -7.05,15.61 -7.667,15.2C-8.809,14.445 -9.382,13.376 -10.047,12.36C-10.671,11.406 -11.188,10.403 -11.851,9.469C-12.163,9.029 -12.178,8.515 -12.285,8.098C-12.905,5.682 -14.006,3.344 -14.139,0.845C-14.169,0.278 -13.901,-0.113 -13.191,-0.032C-11.063,0.211 -8.912,0.09 -6.787,0.696C-5.527,1.054 -4.301,1.356 -3.227,2.005C-2.312,2.558 -2.262,2.7 -3.049,3.366C-4.288,4.414 -4.247,5.78 -4.517,7.068C-4.756,8.209 -4.26,9.304 -4.096,10.419C-4.007,11.024 -3.104,11.267 -3.02,11.942C-2.895,12.929 -2.58,13.859 -1.568,14.556C-1.277,14.757 -1.324,15.256 -1.11,15.57C-0.54,16.408 -0.074,17.303 0.943,17.893C1.314,18.108 1.89,18.373 1.626,18.889C1.392,19.35 0.88,19.396 0.335,19.286C0.229,19.265 0.112,19.283 0,19.283" style="fill:rgb(18,23,16);fill-rule:nonzero;"/>
                </g>
                <g transform="matrix(1,0,0,1,153.52,91.137)">
                    <path d="M0,-1.724C0.699,-1.985 1.342,-1.074 2.124,-1.668C2.248,-1.763 3.04,-1.34 2.843,-0.96C2.686,-0.656 2.676,0.091 1.794,-0.218C1.547,-0.305 1.339,-0.533 1.068,-0.312C0.367,0.261 -0.059,-0.274 -0.449,-0.603C-1.031,-1.096 0.011,-1.22 -0.027,-1.615C-0.032,-1.657 0.006,-1.701 0.024,-1.745L0,-1.724Z" style="fill:rgb(115,113,117);fill-rule:nonzero;"/>
                </g>
                <g transform="matrix(0.15935,-0.987222,-0.987222,-0.15935,149.984,89.0446)">
                    <path d="M-1.507,-1.128C-1.947,-1.055 -2.256,-0.681 -2.35,-0.063C-2.445,0.564 -1.864,1.712 -1.507,1.539C-1.147,1.362 -0.582,1.359 -0.523,0.572C-0.459,-0.285 -0.811,-1.046 -1.507,-1.128" style="fill:rgb(177,180,186);fill-rule:nonzero;"/>
                </g>
                <g transform="matrix(0.0715915,-0.997434,-0.997434,-0.0715915,149.583,93.3064)">
                    <path d="M-1.371,-1.228C-1.717,-1.259 -2.255,-0.624 -2.273,-0.165C-2.299,0.506 -1.806,1.393 -1.371,1.454C-1.057,1.498 -0.432,0.831 -0.411,0.433C-0.385,-0.096 -1.021,-1.197 -1.371,-1.228" style="fill:rgb(169,175,178);fill-rule:nonzero;"/>
                </g>
                <g transform="matrix(0.987708,-0.156312,-0.156312,-0.987708,152.685,93.2877)">
                    <path d="M-0.132,0.002C-0.709,0.08 -1.392,0.696 -1.382,1.132C-1.375,1.463 -0.629,1.843 -0.132,1.768C0.482,1.676 1.376,0.875 1.208,0.462C1.015,-0.013 0.492,-0.16 -0.132,0.002" style="fill:rgb(154,156,161);fill-rule:nonzero;"/>
                </g>
                <g transform="matrix(0.0842889,-0.996441,-0.996441,-0.0842889,153.132,82.7744)">
                    <path d="M-1.417,-1.248C-1.771,-1.237 -2.252,-0.421 -2.237,0.135C-2.218,0.819 -1.918,1.303 -1.417,1.481C-1.057,1.608 -0.518,0.647 -0.519,-0.008C-0.522,-0.51 -1.064,-1.258 -1.417,-1.248" style="fill:rgb(142,143,143);fill-rule:nonzero;"/>
                </g>
                <g transform="matrix(1,0,0,1,153.544,87.3155)">
                    <path d="M0,2.077C-0.651,1.966 -1.276,1.792 -1.772,1.414C-1.999,1.242 -2.373,1.025 -2.18,0.754C-1.999,0.499 -1.758,0.207 -1.355,0.112C-0.793,-0.021 0.361,0.535 0.509,1.014C0.574,1.228 0.413,1.378 0.172,1.391C-0.883,1.45 0.19,1.892 -0.024,2.097C-0.024,2.098 0,2.077 0,2.077" style="fill:rgb(150,152,155);fill-rule:nonzero;"/>
                </g>
                <g transform="matrix(1,0,0,1,164.405,88.3866)">
                    <path d="M0,-0.412C1.574,-1.295 1.62,-1.261 2.365,-0.493C2.854,0.009 2.498,0.268 2.117,0.525C1.584,0.883 0.842,0.56 0,-0.412" style="fill:rgb(141,139,141);fill-rule:nonzero;"/>
                </g>
                <g transform="matrix(0.0549069,-0.998491,-0.998491,-0.0549069,149.789,85.2116)">
                    <path d="M-1.227,-1.193C-1.61,-1.216 -1.902,-0.837 -2.122,-0.427C-2.276,-0.14 -1.551,1.157 -1.227,1.266C-1.106,1.306 -0.325,0.41 -0.286,0.185C-0.171,-0.48 -0.55,-1.088 -1.227,-1.193" style="fill:rgb(156,161,164);fill-rule:nonzero;"/>
                </g>
                <g transform="matrix(1,0,0,1,155.345,84.884)">
                    <path d="M0,-2.259C0.18,-1.798 0.528,-1.537 1.068,-1.421C2.05,-1.21 2.042,-1.184 2.492,-0.06C1.832,-0.301 1.302,0 0.72,-0.012C0.661,-0.013 0.563,-0.149 0.558,-0.226C0.505,-0.91 -0.789,-1.301 0,-2.259" style="fill:rgb(144,142,142);fill-rule:nonzero;"/>
                </g>
                <g transform="matrix(1,0,0,1,160.899,85.8401)">
                    <path d="M0,0.819C-0.229,1.142 -0.616,0.754 -0.895,0.942C-1.712,1.496 -2.139,0.92 -2.493,0.486C-2.829,0.076 -2.323,-0.244 -1.983,-0.401C-1.389,-0.677 -0.763,-0.447 -0.38,-0.059C-0.177,0.146 0.157,0.439 0,0.819" style="fill:rgb(154,155,156);fill-rule:nonzero;"/>
                </g>
                <g transform="matrix(0.998856,-0.0478248,-0.0478248,-0.998856,140.371,95.4979)">
                    <path d="M-0.034,-0.006C-1.028,0.05 -1.297,0.261 -1.265,0.921C-1.228,1.677 -0.547,1.457 -0.034,1.458C0.499,1.458 1.011,0.898 0.967,0.334C0.92,-0.274 0.377,-0.038 -0.034,-0.006" style="fill:rgb(175,179,182);fill-rule:nonzero;"/>
                </g>
                <g transform="matrix(1,0,0,1,157.87,91.9159)">
                    <path d="M0,0.857C-0.614,1.376 -1.189,0.904 -1.732,1.198C-2.161,1.428 -2.547,0.938 -2.55,0.586C-2.552,0.274 -2.527,-0.245 -1.91,-0.216C-1.457,-0.194 -0.835,-0.571 -0.576,-0.102C-0.41,0.197 -0.32,0.553 0,0.857" style="fill:rgb(137,138,139);fill-rule:nonzero;"/>
                </g>
                <g transform="matrix(1,0,0,1,144.572,88.171)">
                    <path d="M0,0.805C-0.386,0.908 -0.801,0.747 -1.186,1.06C-1.659,1.446 -1.998,0.94 -2.259,0.701C-2.653,0.338 -2.223,0.006 -2.008,-0.29C-1.753,-0.641 -1.41,-0.598 -1.01,-0.37C-0.554,-0.112 -0.527,-0.144 0,0.805" style="fill:rgb(133,135,137);fill-rule:nonzero;"/>
                </g>
                <g transform="matrix(-0.151157,-0.98851,-0.98851,0.151157,146.188,91.5983)">
                    <path d="M-0.996,-1.424C-1.586,-1.265 -2.159,-0.361 -1.977,0.043C-1.778,0.487 -1.477,0.895 -0.996,0.746C-0.544,0.606 -0.073,-0.294 -0.318,-0.595C-0.546,-0.875 -0.783,-1.236 -0.996,-1.424" style="fill:rgb(167,169,169);fill-rule:nonzero;"/>
                </g>
                <g transform="matrix(-0.984476,-0.175517,-0.175517,0.984476,144.937,91.1614)">
                    <path d="M-1.527,-2.373C-1.207,-1.807 -1.641,-1.525 -1.722,-1.16C-1.794,-0.843 -1.605,-0.47 -1.527,-0.1C-0.905,-0.082 -0.219,-0.101 -0.114,-0.576C0.043,-1.283 -0.37,-1.913 -1.527,-2.373" style="fill:rgb(103,105,107);fill-rule:nonzero;"/>
                </g>
                <g transform="matrix(1,0,0,1,155.519,88.5883)">
                    <path d="M0,-0.977C0.557,-1.39 1.115,-0.729 1.638,-1.116C1.796,-1.233 2.108,-1.014 1.984,-0.83C1.716,-0.431 2.398,-0.186 2.103,0.266C1.543,0.266 0.832,0.413 0.33,0.21C0.041,0.093 0.092,-0.591 0,-0.977" style="fill:rgb(160,160,166);fill-rule:nonzero;"/>
                </g>
                <g transform="matrix(0.990641,-0.136494,-0.136494,-0.990641,146.652,97.6658)">
                    <path d="M-0.114,-0.024C-0.56,0.014 -1.452,0.753 -1.421,1.023C-1.386,1.33 -0.577,1.723 -0.114,1.625C0.492,1.497 0.883,1.071 0.897,0.644C0.91,0.211 0.239,0.163 -0.114,-0.024" style="fill:rgb(193,195,198);fill-rule:nonzero;"/>
                </g>
                <g transform="matrix(1,0,0,1,139.336,90.958)">
                    <path d="M0,-0.94C0.664,-1.199 1.243,-0.892 1.687,-1.178C2.25,-0.713 1.69,-0.211 2.159,0.191C0.446,0.259 0.446,0.259 0,-0.94" style="fill:rgb(150,149,157);fill-rule:nonzero;"/>
                </g>
                <g transform="matrix(-0.989203,0.146549,0.146549,0.989203,159.548,91.1761)">
                    <path d="M0.164,-1.841C-0.169,-1.82 -0.962,-1.085 -0.881,-0.831C-0.747,-0.413 -0.264,-0.241 0.164,-0.122C0.534,-0.019 1.263,-0.737 1.142,-1.083C1.005,-1.481 0.689,-1.783 0.164,-1.841" style="fill:rgb(191,190,196);fill-rule:nonzero;"/>
                </g>
                <g transform="matrix(-0.0627564,-0.998029,-0.998029,0.0627564,146.049,85.3118)">
                    <path d="M-1.098,-1.016C-1.443,-0.829 -1.896,-0.667 -1.804,-0.166C-1.726,0.262 -1.608,0.857 -1.098,0.96C-0.797,1.021 -0.182,0.271 -0.223,-0.132C-0.285,-0.746 -0.732,-0.836 -1.098,-1.016" style="fill:rgb(169,173,177);fill-rule:nonzero;"/>
                </g>
                <g transform="matrix(-0.983552,0.180625,0.180625,0.983552,142.838,97.5827)">
                    <path d="M-0.112,-1.495C-0.534,-1.432 -1.073,-0.841 -0.921,-0.539C-0.776,-0.255 -0.508,0.122 -0.112,0.022C0.337,-0.091 0.83,-0.361 0.945,-0.824C1.015,-1.108 0.27,-1.553 -0.112,-1.495" style="fill:rgb(115,116,116);fill-rule:nonzero;"/>
                </g>
                <g transform="matrix(1,0,0,1,164.421,88.9618)">
                    <path d="M0,-17.309C0.037,-17.281 0.106,-17.199 0.203,-17.073C1.34,-15.579 6.211,-7.806 6.211,-7.806L18.771,0.42L16.977,0.224L10.766,-3.04L3.175,-7.871L3.907,-9.587L2.07,-12.637L0.483,-13.746L-0.138,-15.444L-1.449,-15.64L-3.194,-13.839L-3.796,-14.53L-1.932,-15.966L-0.966,-17.729" style="fill:rgb(23,19,16);fill-rule:nonzero;"/>
                </g>
            </g>
        </g>
    </g>
</svg>
