<?xml version="1.0" encoding="UTF-8" standalone="no"?>
<!DOCTYPE svg PUBLIC "-//W3C//DTD SVG 1.1//EN" "http://www.w3.org/Graphics/SVG/1.1/DTD/svg11.dtd">
<svg width="100%" height="100%" viewBox="0 0 200 200" version="1.1" xmlns="http://www.w3.org/2000/svg" xmlns:xlink="http://www.w3.org/1999/xlink" xml:space="preserve" xmlns:serif="http://www.serif.com/" style="fill-rule:evenodd;clip-rule:evenodd;stroke-linejoin:round;stroke-miterlimit:2;">
    <g id="Layer1" transform="matrix(0.61195,0,0,0.61195,30.6956,48.3894)">
        <g transform="matrix(1,0,0,1,58.1584,106.037)">
            <path d="M0,11.168C-0.461,9.509 -1.437,8.554 -2.771,8.406C-10.601,7.546 -18.436,6.441 -26.244,7.837C-26.243,7.837 -26.259,7.867 -26.259,7.867C-26.667,7.025 -26.656,6.21 -26.228,5.417C-21.689,-0.818 -15.916,1.352 -10.309,2.368C-5.186,4.223 0.766,2.27 5.01,8.161C5.42,9.052 5.39,9.901 4.925,10.711C3.659,11.533 2.32,11.986 0.857,11.798C0.581,11.567 0.295,11.357 0,11.168" style="fill:rgb(92,95,102);fill-rule:nonzero;"/>
        </g>
        <g transform="matrix(1,0,0,1,116.15,141.247)">
            <path d="M0,1.267C0.45,0.844 0.9,0.422 1.35,0C0.9,0.423 0.45,0.845 0,1.267" style="fill:rgb(219,220,222);fill-rule:nonzero;"/>
        </g>
        <g transform="matrix(1,0,0,1,85.2893,134.75)">
            <path d="M0,0.368C-0.126,0.245 -0.251,0.123 -0.377,0C-0.25,0.122 -0.124,0.243 0.003,0.364L0,0.368Z" style="fill:rgb(219,220,222);fill-rule:nonzero;"/>
        </g>
        <g transform="matrix(-0.683708,-0.729756,-0.729756,0.683708,30.4571,112.633)">
            <path d="M-0.889,-1.313C-1.249,-0.95 -1.591,-0.572 -1.913,-0.182C-1.572,0.106 -1.23,0.396 -0.889,0.685C-0.527,0.256 -0.166,-0.176 0.195,-0.607C0.083,-1.144 -0.28,-1.38 -0.889,-1.313" style="fill:rgb(177,178,181);fill-rule:nonzero;"/>
        </g>
        <g transform="matrix(1,0,0,1,124.503,145.945)">
            <path d="M0,1.298C0.462,0.865 0.925,0.433 1.388,0C0.925,0.433 0.462,0.865 0,1.298" style="fill:rgb(219,220,222);fill-rule:nonzero;"/>
        </g>
        <g transform="matrix(1,0,0,1,79.4182,39.3808)">
            <path d="M0,-1.297C-0.473,-0.864 -0.947,-0.432 -1.42,0C-0.947,-0.432 -0.473,-0.864 0,-1.297" style="fill:rgb(195,203,205);fill-rule:nonzero;"/>
        </g>
        <g transform="matrix(1,0,0,1,136.423,28.8901)">
            <path d="M0,-6.695C0.405,-5.777 20.539,-4.475 20.944,-3.557C21.089,-1.202 30.751,5.748 29.175,11.6C25.834,24.01 9.3,37.806 6.657,36.799C2.343,35.462 -14.261,0.75 -18.554,1.256C-23.951,1.892 -25.885,-1.042 -24.293,-6.637C-16.287,-9.74 12.75,-6.967 20.944,-3.557" style="fill:rgb(20,23,25);fill-rule:nonzero;"/>
        </g>
        <g transform="matrix(1,0,0,1,93.7058,19.8238)">
            <path d="M0,-0.595L0.443,-0.158L-0.098,0L0,-0.595Z" style="fill:rgb(219,224,224);fill-rule:nonzero;"/>
        </g>
        <g transform="matrix(1,0,0,1,89.4221,26.2802)">
            <path d="M0,-0.462L-0.28,0L-0.434,-0.25L0,-0.462Z" style="fill:rgb(219,224,224);fill-rule:nonzero;"/>
        </g>
        <g transform="matrix(1,0,0,1,183.936,123.662)">
            <path d="M0,9.876C0.691,6.672 1.319,3.447 1.853,0.2C-6.919,-3.01 -14.705,-1.937 -20.475,7.936C-18.271,12.886 -15.013,10.619 -12.521,9.434C-8.778,7.654 -5.128,7.115 -1.211,8.105C-0.782,8.587 -0.413,9.13 -0.103,9.735C-0.068,9.781 -0.035,9.829 0,9.876" style="fill:rgb(104,33,41);fill-rule:nonzero;"/>
        </g>
        <g transform="matrix(1,0,0,1,114.412,122.362)">
            <path d="M0,12.198C-2.43,11.519 -4.861,10.842 -7.291,10.163C-9.051,6.767 -12.312,5.802 -14.488,3.081C-14.395,2.635 -14.386,2.183 -14.459,1.726C-14.244,1.451 -14.028,1.176 -13.813,0.898C-9.621,0 -6.965,4.423 -3.46,5.926C-1.596,7.417 0.912,8.371 0,12.198" style="fill:rgb(86,57,67);fill-rule:nonzero;"/>
        </g>
        <g transform="matrix(1,0,0,1,32.0232,97.2621)">
            <path d="M0,15.122C-0.419,15.019 -13.107,14.076 -13.526,13.973C-14.908,11.191 4.301,2.772 7.422,0.518C9.029,0 10.13,1.177 11.218,2.405C11.64,2.872 12.035,3.379 12.424,3.889C12.85,4.338 13.248,4.829 13.652,5.308C14.888,7.391 17.116,7.479 18.531,9.199C18.897,10.263 18.84,11.274 18.375,12.237C17.514,13.331 16.149,12.396 15.248,13.334C10.013,12.404 4.81,11.799 0,15.122" style="fill:rgb(43,48,51);fill-rule:nonzero;"/>
        </g>
        <g transform="matrix(1,0,0,1,44.7722,87.9997)">
            <path d="M0,6.568C-0.21,6.176 5.255,2.564 7.141,-0.216C7.638,-0.557 8.127,-0.913 8.608,-1.287L8.623,-1.3C9.033,-1.805 9.482,-2.246 9.967,-2.635L9.991,-2.654C10.459,-3.102 10.99,-3.253 11.583,-3.113C12.742,-2.558 13.619,-1.652 13.994,-0.111C13.155,6.096 3.721,11.909 -0.84,12.984C-2.977,12.992 -3.674,12.56 -4.7,9.648" style="fill:rgb(79,90,95);fill-rule:nonzero;"/>
        </g>
        <g transform="matrix(0.971727,-0.236108,-0.236108,-0.971727,56.2022,85.3037)">
            <path d="M-0.329,0.02C-0.707,0.03 -1.068,0.123 -1.409,0.299C-1.05,1.184 -0.689,2.069 -0.329,2.951C0.068,2.765 0.465,2.581 0.863,2.398C0.956,1.259 0.577,0.453 -0.329,0.02" style="fill:rgb(155,160,162);fill-rule:nonzero;"/>
        </g>
        <g transform="matrix(1,0,0,1,53.3806,87.7852)">
            <path d="M0,-1.073C-0.289,-0.301 -0.805,0 -1.467,-0.002C-0.978,-0.359 -0.489,-0.716 0,-1.073" style="fill:rgb(155,160,162);fill-rule:nonzero;"/>
        </g>
        <g transform="matrix(1,0,0,1,54.739,86.6995)">
            <path d="M0,-1.335C-0.193,-0.493 -0.678,-0.106 -1.344,0C-1.11,-0.778 -0.671,-1.237 0,-1.335" style="fill:rgb(155,160,162);fill-rule:nonzero;"/>
        </g>
        <g transform="matrix(1,0,0,1,85.2732,117.669)">
            <path d="M0,4.619C-6.133,6.502 -11.965,4.503 -17.741,1.765C-16.718,-1.286 -14.214,-0.544 -12.329,-1.401C-10.986,-1.667 -9.741,-0.911 -8.444,-0.676C-7.377,-0.524 -6.325,-0.803 -5.258,-0.738C-3.137,-0.355 -0.553,-1.883 0.793,1.736C0.978,2.906 0.779,3.898 0,4.619" style="fill:rgb(57,60,66);fill-rule:nonzero;"/>
        </g>
        <g transform="matrix(1,0,0,1,73.0911,115.351)">
            <path d="M0,2.091C-0.317,3.371 -0.899,4.408 -2.086,3.903C-3.326,3.375 -4.422,3.681 -5.558,4.083C-7.253,3.768 -8.585,2.46 -10.008,1.398C-9.956,0.861 -9.905,0.322 -9.853,-0.215C-10.252,-0.594 -10.353,-1.061 -10.157,-1.616C-9.856,-2.016 -9.477,-2.241 -9.039,-2.317C-8.41,-2.303 -7.8,-2.096 -7.194,-1.894C-6.796,-1.825 -6.397,-1.753 -5.996,-1.731C-5.371,-1.781 -4.749,-1.847 -4.116,-1.873C-3.657,-1.879 -3.213,-1.797 -2.764,-1.657C-2.302,-1.482 -1.877,-1.219 -1.468,-0.898C-0.68,-0.123 0.045,0.7 0,2.091" style="fill:rgb(54,57,63);fill-rule:nonzero;"/>
        </g>
        <g transform="matrix(1,0,0,1,92.948,111.244)">
            <path d="M0,9.688L-0.439,9.738L-0.864,9.569C-1.529,9.677 -2.062,10.151 -2.634,10.517L-2.712,10.564C-4.235,11.806 -7.86,11.352 -8.674,9.846C-9.45,6.714 -8.106,2.861 -6.042,-0.199C-3.785,-2.118 -2.728,0.411 -1.391,1.925C-0.836,2.992 6.157,4.688 8.671,7.838C10.535,10.174 8.111,14.107 8.361,14.985C8.362,15.727 0.472,9.255 0,9.688" style="fill:rgb(57,60,66);fill-rule:nonzero;"/>
        </g>
        <g transform="matrix(1,0,0,1,90.3142,120.813)">
            <path d="M0,0.948C0.588,0.632 1.177,0.315 1.768,0C1.18,0.316 0.59,0.632 0,0.948" style="fill:rgb(86,57,67);fill-rule:nonzero;"/>
        </g>
        <g transform="matrix(1,0,0,1,114.412,137.969)">
            <path d="M0,-3.409C-0.994,-5.824 -2.734,-6.956 -4.67,-7.75C-5.241,-8.873 -5.289,-9.97 -4.65,-11.031C-1.395,-12.685 1.307,-10.227 4.104,-8.75C17.372,-1.745 30.735,0.612 44.347,-5.497C46.029,-6.252 47.824,-7.284 49.543,-5.252C52.946,-5.781 56.171,-7.094 59.458,-8.142C62.668,-9.166 66.786,-12.026 69.571,-6.12C64.293,-8.302 59.792,-7.232 55.321,-3.021C51.049,1.002 45.77,3.128 40.771,5.673C32.993,9.115 25.163,9.276 17.604,4.25C15.178,2.638 13.745,5 11.803,4.804C11.271,4.395 10.694,3.575 10.216,3.64C5.518,4.274 2.932,0.046 0,-3.409" style="fill:rgb(101,43,59);fill-rule:nonzero;"/>
        </g>
        <g transform="matrix(1,0,0,1,63.3582,107.335)">
            <path d="M0,6.365C-0.055,6.842 -0.095,7.32 -0.12,7.801C-5.167,4.534 -10.792,4.951 -16.087,3.261C-15.401,2.294 -14.5,2.099 -13.51,2.221C-10.378,-1.436 -6.852,-0.771 -3.204,1.139C-2.633,1.319 13.656,10.746 14.174,11.103C15.243,12.283 1.023,4.083 0,6.365" style="fill:rgb(42,47,52);fill-rule:nonzero;"/>
        </g>
        <g transform="matrix(1.22953,0,0,1.00404,58.636,70.9961)">
            <path d="M0,10.209C2.768,6.482 4.777,2.308 6.365,-2.536C9.66,-12.583 22.045,-31.609 22.321,-31.702C22.557,-30.946 38.431,-14.898 38.178,-11.66C37.951,-8.758 23.276,-15.824 22.464,-12.856C19.737,-2.877 21.852,36.254 20.623,40.074C20.086,41.742 13.731,14.773 12.274,15.882C10.451,16.941 7.298,12.27 5.424,12.123C3.53,11.909 1.404,12.841 0,10.209" style="fill:rgb(44,47,48);fill-rule:nonzero;"/>
        </g>
        <g transform="matrix(1,0,0,1,58.636,87.1507)">
            <path d="M0,-5.895C1.769,-6.088 3.537,-6.281 5.305,-6.474C5.699,-5.922 5.839,-5.3 5.69,-4.594C3.882,-2.47 2.554,0.579 -0.496,0.333C-1.509,0.068 -2.309,-0.562 -2.758,-1.789C-2.56,-2.653 -2.36,-3.518 -2.162,-4.381C-1.441,-4.886 -0.72,-5.39 0,-5.895" style="fill:rgb(74,84,98);fill-rule:nonzero;"/>
        </g>
        <g transform="matrix(-0.999929,0.0118894,0.0118894,0.999929,78.9927,49.5633)">
            <path d="M1.903,-2.359C1.381,-2.664 0.861,-2.968 0.339,-3.273C-0.586,-0.991 -0.515,0.683 1.903,0.921C2.43,0.258 2.513,-0.47 2.153,-1.264C1.877,-1.554 1.793,-1.919 1.903,-2.359" style="fill:rgb(46,25,25);fill-rule:nonzero;"/>
        </g>
        <g transform="matrix(0.895423,0.445217,0.445217,-0.895423,75.7855,49.5786)">
            <path d="M0.372,-0.019C0.067,0.294 -0.202,0.639 -0.436,1.017C-0.31,1.425 -0.041,1.614 0.372,1.585C0.512,1.089 0.651,0.594 0.792,0.098L0.372,-0.019Z" style="fill:rgb(122,129,132);fill-rule:nonzero;"/>
        </g>
        <g transform="matrix(0.251017,0.967983,0.967983,-0.251017,108.97,21.7949)">
            <path d="M0.824,-0.794C0.546,-0.243 0.267,0.309 -0.013,0.859C0.261,0.95 0.542,1.036 0.824,1.118C1.813,0.714 2.052,0.136 1.591,-0.605C1.335,-0.669 1.08,-0.732 0.824,-0.794" style="fill:rgb(165,177,180);fill-rule:nonzero;"/>
        </g>
        <g transform="matrix(1,0,0,1,108.784,72.0316)">
            <path d="M0,-48.545C0.738,-48.465 1.214,-48.886 1.475,-49.72C3.001,-50.397 4.14,-49.753 4.951,-47.998C3.977,-47.858 2.391,-47.753 3.66,-46.033C4.882,-44.378 6.75,-43.015 8.718,-44.069C13.104,-46.419 17.602,-45.724 22.143,-44.638C20.344,-40.419 22.668,-39.015 25.25,-37.786C26.934,-34.929 27.685,-30.65 31.59,-31.218C32.594,-31.638 33.604,-31.995 34.689,-31.907C35.242,-31.79 35.731,-31.497 36.167,-31.041C36.515,-30.475 36.757,-29.849 36.911,-29.167C37.09,-28.117 37.124,-27.061 37.111,-25.998C36.932,-22.013 37.284,-17.442 32.21,-18.599C31.694,-18.778 31.186,-19.021 30.699,-19.269C26.758,-19.048 30.148,-15.809 29.519,-14.251C29.282,-10.244 30.235,-6.307 30.256,-2.317C29.946,-1.357 29.384,-0.01 28.703,-0.249C21.298,-2.854 12.848,1.852 6.215,-6.138C5.32,-7.215 4.164,-7.883 3.035,-8.538C-4.426,-13.875 -12.936,-15.37 -20.73,-19.541C-25.188,-21.927 -27.873,-17.538 -30.854,-14.548C-32.277,-13.122 -33.199,-9.122 -36.028,-12.491C-36.481,-14.708 -35.589,-16.394 -34.764,-18.105C-34.664,-18.568 -34.465,-18.949 -34.168,-19.247C-33.946,-19.646 -33.895,-20.083 -34.016,-20.558C-33.973,-21.156 -33.081,-22.22 -32.675,-22.27C-32.674,-22.271 -32.243,-22.186 -32.245,-22.187C-30.485,-22.372 -30.36,-24.086 -30.169,-25.737C-29.444,-26.039 -28.767,-26.401 -28.726,-27.556C-26.835,-29.881 -24.944,-32.208 -23.053,-34.533C-17.895,-38.011 -12.513,-41.082 -7.671,-45.136C-5.208,-47.198 -1.679,-44.732 0,-48.545" style="fill:rgb(29,26,26);fill-rule:nonzero;"/>
        </g>
        <g transform="matrix(1,0,0,1,187.318,129.659)">
            <path d="M0,-44.972C-4.208,-39.868 -9.765,-37.694 -15.384,-35.56C-16.401,-35.384 -17.366,-34.997 -18.339,-34.621C-18.803,-34.489 -19.267,-34.39 -19.731,-34.253C-20.451,-34.259 -21.158,-34.441 -21.854,-34.624C-22.35,-34.792 -22.86,-34.936 -23.37,-35.005C-25.861,-34.812 -28.087,-35.504 -30.347,-37.258C-36.5,-42.034 -41.882,-48.351 -48.59,-51.995C-55.354,-51.853 -62.043,-50.853 -68.76,-50.2C-71.175,-49.964 -72.162,-48.196 -72.798,-45.344C-74.248,-38.846 -77.533,-34.099 -82.434,-31.211C-82.889,-30.778 -83.354,-30.36 -83.807,-29.924C-85.342,-28.788 -86.92,-27.721 -88.009,-25.877C-89.979,-22.358 -90.452,-18.622 -88.761,-14.576C-87.956,-12.675 -86.366,-12.118 -85.042,-11.102C-76.621,-2.926 -66.896,1.048 -56.859,4.626C-50.134,7.023 -43.846,3.295 -37.335,5.067C-36.629,5.259 -35.631,4.385 -35.324,3.522C-33.258,-2.307 -29.704,-3.889 -24.808,-2.606C-23.438,-2.246 -22.143,-3.717 -20.806,-4.295C-14.473,-7.035 -8.095,-8.863 -1.767,-4.398C0.543,-17.837 1.424,-31.587 0,-44.972" style="fill:rgb(226,36,45);fill-rule:nonzero;"/>
        </g>
        <g transform="matrix(1,0,0,1,185.836,132.967)">
            <path d="M0,-9.414C-0.809,-10.555 -1.905,-11.273 -3.265,-11.516C-8.233,-12.4 -13.247,-11.651 -18.222,-12.669C-19.305,-12.89 -19.61,-11.725 -19.821,-10.768C-20.39,-8.185 -22.135,-8.127 -23.763,-7.942C-26.303,-7.654 -28.81,-8.075 -31.102,-9.623C-31.877,-7.639 -32.397,-5.937 -33.16,-4.435C-34.494,-1.806 -35.299,1.305 -39.134,-1.316C-40.389,-2.174 -44.152,-2.915 -45.731,-1.465C-48.934,1.479 -51.44,-0.144 -54.689,-1.179C-56.99,-1.911 -59.542,-6.963 -62.369,-2.339C-62.487,-2.145 -63.543,-2.682 -64.061,-3.088C-70.086,-7.817 -77.28,-9.89 -82.553,-16.326C-83.231,-15.476 -83.477,-14.441 -83.325,-13.239C-81.739,-9.261 -79.382,-6.52 -75.798,-5.735C-71.578,-3.557 -67.41,-1.18 -63.125,0.759C-54.333,4.737 -45.417,6.912 -36.098,5.032C-31.113,4.026 -26.459,2.125 -21.882,-0.25C-15.695,-7.435 -8.608,-10.159 -0.377,-7.202C-0.248,-7.939 -0.12,-8.676 0,-9.414" style="fill:rgb(215,37,46);fill-rule:nonzero;"/>
        </g>
        <g transform="matrix(1,0,0,1,103.236,129.162)">
            <path d="M0,-9.659C2.369,-7.223 5.058,-5.233 6.801,-1.93C6.703,-0.933 6.604,0.063 6.506,1.058C3.434,-1.17 0.362,-3.396 -2.708,-5.626C-2.717,-7.033 -2.729,-8.439 -2.74,-9.845C-1.81,-10.717 -0.897,-10.645 0,-9.659" style="fill:rgb(99,21,29);fill-rule:nonzero;"/>
        </g>
        <g transform="matrix(1,0,0,1,42.803,105.943)">
            <path d="M0,-3.831C0.973,-5.522 2.232,-6.56 3.99,-6.465C5.859,-5.664 7.667,-4.547 9.697,-4.516C10.285,-4.192 10.701,-3.659 10.983,-2.945C11.356,-1.275 11.119,0.174 10.115,1.354C9.16,1.86 8.262,1.719 7.424,0.88C4.684,2.729 2.931,0.254 1.043,-1.635C1.077,-2.61 0.724,-3.344 0.091,-3.901L0,-3.831Z" style="fill:rgb(130,133,133);fill-rule:nonzero;"/>
        </g>
        <g transform="matrix(1,0,0,1,50.2273,106.831)">
            <path d="M0,-0.008C0.708,-0.065 1.415,-0.122 2.123,-0.18C2.921,-0.385 3.088,-5.496 3.589,-6.127C4.379,-6.978 5.445,-3.132 6.488,-3.138C7.56,-2.991 8.406,-2.316 9.108,-1.304C9.417,-0.791 9.638,-0.222 9.797,0.384C9.903,0.998 9.915,1.617 9.827,2.231C9.772,2.53 9.714,2.83 9.656,3.13C6.312,1.535 2.967,3.095 -0.378,2.726C-0.252,1.815 -0.126,0.904 0,-0.008" style="fill:rgb(16,19,24);fill-rule:nonzero;"/>
        </g>
        <g transform="matrix(1,0,0,1,42.8938,104.306)">
            <path d="M0,-2.265C0.632,-1.708 0.929,-0.942 0.953,0C0.635,-0.753 0.318,-1.509 0,-2.265" style="fill:rgb(115,120,121);fill-rule:nonzero;"/>
        </g>
        <g transform="matrix(1,0,0,1,58.1399,95.1867)">
            <path d="M0,-7.703C0.897,-11.06 3.364,-11.875 5.613,-13.044C6.958,-13.783 7.918,-13.34 8.431,-11.516C4.39,-5.5 0.421,0.611 -4.81,5.15C-5.316,5.479 -5.847,5.745 -6.394,5.961C-7.721,6.08 -8.66,5.61 -8.601,3.638C-7.812,3.122 -7.552,2.52 -8.449,1.727C-5.262,-0.899 -1.91,-3.296 0,-7.703" style="fill:rgb(155,160,162);fill-rule:nonzero;"/>
        </g>
        <g transform="matrix(1,0,0,1,49.5393,104.526)">
            <path d="M0,-5.702C0.595,-4.582 1.514,-4.246 2.48,-4.025C2.778,-3.633 2.893,-3.231 2.824,-2.821C2.75,-2.39 2.67,-2.183 2.582,-2.2C1.843,-0.223 0.903,0.517 -0.635,-1.327C-1.542,-2.415 -2.353,-3.537 -2.746,-5.049C-1.965,-6.027 -1.045,-6.219 0,-5.702" style="fill:rgb(195,197,197);fill-rule:nonzero;"/>
        </g>
        <g transform="matrix(1,0,0,1,87.9602,106.875)">
            <path d="M0,12.93C-0.795,12.824 -1.59,12.716 -2.384,12.61C-2.979,11.805 -3.934,11.156 -4.475,11.844C-6.032,13.828 -7.299,12.544 -8.662,11.501C-9.576,12.162 -10.666,11.838 -11.631,12.216C-12.71,11.666 -13.79,11.117 -14.869,10.566C-15.638,9.782 -16.407,8.996 -17.176,8.211C-15.912,5.691 -13.73,5.006 -11.787,5.744C-7.274,7.46 -5.648,4.597 -4.761,-0.02C-4.325,-0.51 -3.806,-0.791 -3.221,-0.898C-2.293,-0.801 -1.572,-0.218 -0.98,0.666C-0.654,1.284 -0.465,1.963 -0.388,2.688C-0.451,3.034 -0.515,3.383 -0.58,3.731C-1.524,6.865 -0.015,9.854 0,12.93" style="fill:rgb(182,185,188);fill-rule:nonzero;"/>
        </g>
        <g transform="matrix(1,0,0,1,76.3289,117.752)">
            <path d="M0,1.339C0.739,-0.31 1.785,-0.232 2.97,0.624C2.12,1.649 1.086,1.642 0,1.339" style="fill:rgb(57,58,66);fill-rule:nonzero;"/>
        </g>
        <g transform="matrix(1.3229,0,0,1,83.6696,106.013)">
            <path d="M0,0.444C-1.015,3.409 -1.641,6.341 1.94,9.131C-4.024,10.207 -15.7,6.698 -16.003,4.514C-16.079,3.475 -23.653,-5.225 -23.229,-6.09C-22.937,-6.628 -21.504,-7.651 -21.112,-8.078C-20.721,-8.484 -15.243,0.628 -14.789,0.34C-14.563,0.212 -14.325,0.101 -14.1,-0.029C-13.648,-0.254 -13.171,-0.41 -12.697,-0.544C-12.246,-0.676 -11.779,-0.77 -11.322,-0.862C-10.652,-1.171 -10.214,-1.864 -9.723,-2.443C-8.871,-3.939 -9.832,-5.43 -9.846,-6.915C-9.833,-8.501 -9.268,-9.507 -7.972,-9.748C-7.413,-9.763 -6.868,-9.643 -6.334,-9.413C-5.556,-9.006 -4.846,-8.447 -4.17,-7.81C-3.053,-6.752 -2.072,-5.497 -1.022,-4.333C-0.095,-2.916 0.835,-1.495 0,0.444" style="fill:rgb(199,201,202);fill-rule:nonzero;"/>
        </g>
        <g transform="matrix(1,0,0,1,66.7346,114.758)">
            <path d="M0,0.76C0.543,0.506 1.086,0.253 1.63,0C1.086,0.253 0.543,0.507 0,0.76" style="fill:rgb(92,95,102);fill-rule:nonzero;"/>
        </g>
        <g transform="matrix(1,0,0,1,64.5183,115.394)">
            <path d="M0,-1.31C0.477,-0.873 0.954,-0.436 1.432,0C0.754,-0.085 0.291,-0.545 0,-1.31" style="fill:rgb(92,95,102);fill-rule:nonzero;"/>
        </g>
        <g transform="matrix(1,0,0,1,86.4807,85.9513)">
            <path d="M0,22.673C-0.328,22.068 -0.656,21.463 -0.984,20.859C-1.763,19.325 -2.341,17.666 -3.009,16.066C-3.899,9.325 -7.543,4.381 -10.458,-1.045C-9.201,-3.667 -7.063,-4.732 -4.941,-5.835C-2.613,-6.417 -1.218,-4.161 0.497,-2.865C2.477,-1.366 3.637,1.28 5.58,2.836C6.93,4.21 8.273,5.592 9.256,7.426C11.167,11.467 10.136,13.424 6.574,12.909C0.953,12.097 1.685,15.266 3.861,19.528C4.797,20.885 5.613,22.337 6.194,23.98C6.428,24.638 6.577,25.324 6.671,26.028C6.68,26.381 6.676,26.735 6.68,27.089C6.561,27.783 6.299,28.379 5.885,28.86C5.316,29.09 4.833,28.907 4.44,28.313C2.668,28.003 2.285,25.562 0.9,24.655C0.9,24.654 1.057,24.687 1.057,24.687C0.923,23.841 0.412,23.296 0,22.673" style="fill:rgb(69,24,19);fill-rule:nonzero;"/>
        </g>
        <g transform="matrix(1,0,0,1,91.3875,102.897)">
            <path d="M0,8.171C-0.672,6.961 -1.343,5.751 -2.015,4.54C-2.9,2.744 -3.11,0.667 -3.583,-1.281C-4.062,-3.255 -3.135,-5.747 -1.753,-5.179C3.576,-2.986 8.48,-8.437 13.718,-5.497C14.583,-4.172 14.422,-2.955 13.558,-1.814L13.549,-1.807C11.632,-1.114 9.607,-0.79 7.9,0.611C6.621,1.377 5.145,1.56 3.506,2.876C6.01,5.067 6.272,8.986 8.477,11.39C9.252,13.043 10.589,13.359 11.896,13.743C11.879,14.699 11.864,15.653 11.849,16.608C10.937,16.543 10.024,16.481 9.11,16.419C8.368,16.185 7.628,15.948 6.888,15.713C4.659,14.279 2.837,12.207 1.153,9.917L1.129,9.936C0.679,9.421 0.378,8.757 0,8.171" style="fill:rgb(161,31,41);fill-rule:nonzero;"/>
        </g>
        <g transform="matrix(-0.932782,0.360441,0.360441,0.932782,99.302,119.349)">
            <path d="M3.952,-8.533C2.479,-6.327 -0.286,-5.074 0.691,-1.059C2.701,0.308 3.133,-1.712 3.952,-2.898C3.832,-4.455 3.995,-5.899 4.701,-7.127C4.45,-7.596 4.2,-8.065 3.952,-8.533" style="fill:rgb(99,21,29);fill-rule:nonzero;"/>
        </g>
        <g transform="matrix(1,0,0,1,82.1824,83.1109)">
            <path d="M0,17.195C0.048,17.662 0.204,18.068 0.466,18.414C0.681,18.809 0.705,19.118 0.539,19.34C0.389,19.539 0.258,19.628 0.145,19.606C-1.456,19.145 -2.02,17.035 -3.338,16.125C-3.825,15.668 -4.196,15.046 -4.697,14.61L-4.833,14.429C-7.622,12.407 -9.88,9.508 -12.445,7.111C-14.046,5.445 -16.007,4.07 -15.852,0.928C-16.437,-0.308 -17.407,-0.697 -18.43,-0.967C-18.354,-1.453 -18.291,-1.942 -18.241,-2.433C-16.145,-2.063 -14.049,-1.692 -11.952,-1.322L-9.608,2.478C-9.106,3.399 -8.185,3.46 -7.547,4.102C-7.075,4.796 -6.604,5.489 -6.132,6.181C-5.776,7.358 -4.48,7.214 -4.144,8.417C-3.91,8.975 -3.677,9.533 -3.444,10.091C-2.631,10.45 -2.186,11.173 -2.075,12.225C-2.036,12.68 -1.898,13.087 -1.662,13.443C-1.518,14.051 -1.282,14.601 -0.957,15.093L-0.958,15.091C-0.518,15.71 -0.152,16.379 0,17.195" style="fill:rgb(128,120,127);fill-rule:nonzero;"/>
        </g>
        <g transform="matrix(0.846105,-0.533016,-0.533016,-0.846105,74.6628,59.1463)">
            <path d="M-1.735,-0.529C-2.54,0.078 -3.425,0.396 -4.537,-0.076C-4.827,2.277 -3.092,2.719 -1.735,3.518C-0.412,3.944 0.827,5.395 2.238,4.759C0.914,2.996 -0.41,1.233 -1.735,-0.529" style="fill:rgb(15,15,16);fill-rule:nonzero;"/>
        </g>
        <g transform="matrix(1,0,0,1,74.7688,52.7854)">
            <path d="M0,-1.312C0.054,-0.989 0.142,-0.666 0.146,-0.344C0.148,-0.228 -0.048,-0.115 -0.153,0C-0.161,-0.451 -0.11,-0.888 0,-1.312" style="fill:rgb(46,25,25);fill-rule:nonzero;"/>
        </g>
        <g transform="matrix(1,0,0,1,153.149,51.6842)">
            <path d="M0,-0.202C-0.465,0.429 -0.917,0.608 -1.35,-0.274C-1.033,-2.18 0.483,-2.308 1.536,-3.16C0.814,-2.379 0.416,-1.307 0,-0.202M5.998,-25.536C5.275,-25.702 4.555,-25.892 3.836,-26.095C3.521,-23.526 4.989,-21.604 5.838,-19.462C6.097,-18.879 6.366,-18.304 6.689,-17.764C7.196,-16.716 7.895,-15.776 8.006,-14.463C7.868,-13.946 7.686,-13.457 7.506,-12.953C7.172,-12.297 6.854,-11.639 6.583,-10.943C6.279,-10.268 5.932,-9.631 5.564,-9.015C5.431,-8.816 5.276,-8.635 5.143,-8.438C4.833,-8.073 4.518,-7.701 4.237,-7.297C3.932,-6.89 3.66,-6.443 3.44,-5.954C3.151,-5.146 2.707,-4.503 2.204,-3.923C3.096,-5.008 2.884,-6.341 2.525,-7.701C2.162,-8.721 1.694,-9.662 1.145,-10.544C-0.06,-12.333 -0.995,-14.153 -1.067,-16.665C-1.121,-18.513 -1.23,-20.945 -3.65,-20.803L-3.649,-20.804C-4.075,-20.42 -4.448,-19.969 -4.76,-19.435C-5.085,-18.555 -5.215,-17.598 -5.425,-16.668C-5.772,-15.554 -6.047,-14.418 -6.171,-13.218C-6.292,-12.411 -6.433,-11.619 -6.771,-10.916C-7.026,-10.506 -7.263,-10.078 -7.471,-9.625C-7.69,-9.181 -7.86,-8.71 -7.978,-8.208C-8.079,-7.429 -8.214,-6.669 -8.723,-6.132C-10.292,-4.871 -8.524,-3.517 -8.695,-2.249C-9.014,0.109 -9.868,1.366 -11.866,-0.354C-14.024,1.44 -14.206,4.318 -14.337,7.222C-14.31,8.391 -14.181,9.536 -13.907,10.667C-13.57,12.444 -14.039,14.224 -13.714,16C-13.614,16.688 -13.499,17.368 -13.353,18.043C-12.952,19.339 -12.226,20.373 -11.567,21.455C-11.051,22.253 -10.502,23.012 -9.881,23.678C-9.242,24.381 -8.549,24.984 -7.771,25.405C-7.227,25.659 -6.667,25.838 -6.094,25.893C-3.4,25.612 -1.53,24.382 -2.041,20.386C-2.494,19.393 -3.173,18.713 -3.966,18.186C-6.242,16.616 -8,14.617 -7.847,11.035C-7.884,9.245 -7.954,7.318 -6.142,6.886C-4.712,6.545 -4.021,7.989 -3.333,9.265C-3.016,10.285 -2.577,11.224 -1.974,12.039C2.936,15.016 8.663,12.176 10.88,5.151C12.166,1.075 13.555,-1.05 17.151,1.787C19.062,3.296 21.212,5.407 23.322,3.006C24.42,1.756 24.638,0.379 24.465,-1.035C19.484,-10.975 13.124,-18.99 5.998,-25.536" style="fill:rgb(23,22,23);fill-rule:nonzero;"/>
        </g>
        <g transform="matrix(1,0,0,1,143.036,68.9722)">
            <path d="M0,3.134C0.363,3.733 0.727,4.333 1.09,4.932C1.45,5.518 1.81,6.103 2.17,6.687L2.195,6.723C3.105,7.847 4.319,8.909 2.787,10.535C-4.599,8.259 -11.968,8.424 -19.35,9.785C-21.203,10.127 -22.995,9.369 -24.637,8.122C-25.425,7.448 -26.028,6.57 -26.471,5.521C-26.671,0.715 -31.435,-1.908 -30.654,-7.193C-30.654,-7.193 -30.477,-7.401 -30.476,-7.401C-28.84,-6.839 -27.397,-5.736 -26.217,-4.279C-23.761,-1.245 -21.693,0.784 -17.753,-1.412C-15.104,-2.889 -11.534,-0.535 -8.521,0.853C-7.016,1.546 -5.782,1.913 -4.664,0.28C-4.117,-0.824 -3.393,-1.347 -2.329,-0.765L-2.276,1.116C-1.748,2.205 -0.574,2.126 0,3.134" style="fill:rgb(46,25,25);fill-rule:nonzero;"/>
        </g>
        <g transform="matrix(1,0,0,1,145.814,40.6652)">
            <path d="M0,2.13C-0.407,1.997 -0.814,1.863 -1.221,1.726C-1.154,1.217 -1.124,0.706 -1.13,0.19C-1.13,0.189 -1.151,0.184 -1.151,0.184C0.104,0 0.408,0.723 0.033,2.095L0,2.13Z" style="fill:rgb(23,22,23);fill-rule:nonzero;"/>
        </g>
        <g transform="matrix(1,0,0,1,157.833,41.5837)">
            <path d="M0,-15.769C-0.518,-15.905 -1.036,-16.038 -1.551,-16.191C-2.135,-10.054 -5.395,-16.832 -6.939,-15.977C-7.466,-13.983 -7.901,-12.342 -8.335,-10.702C-7.398,-9.47 -7.348,-7.982 -7.472,-6.458C-7.75,-3.041 -6.431,-0.686 -4.181,1.063C-1.719,-1.957 -0.948,-6.704 2.262,-8.959C3.152,-11.934 0.522,-13.399 0,-15.769" style="fill:rgb(29,29,30);fill-rule:nonzero;"/>
        </g>
        <g transform="matrix(1,0,0,1,149.365,30.6713)">
            <path d="M0,1.726C-0.378,1.151 -0.757,0.576 -1.136,0C-0.713,0.07 -0.29,0.14 0.134,0.209C0.09,0.715 0.045,1.22 0,1.726" style="fill:rgb(29,29,30);fill-rule:nonzero;"/>
        </g>
        <g transform="matrix(1,0,0,1,186.94,98.0925)">
            <path d="M0,-16.352C-1.955,-15.193 -3.271,-13.001 -5.048,-11.559C-6.168,-10.706 -7.241,-9.72 -8.648,-9.697C-9.163,-9.518 -9.659,-9.277 -10.133,-8.978C-10.639,-8.746 -11.156,-8.54 -11.676,-8.356C-14.043,-8.133 -16.314,-7.103 -18.827,-8.327C-21.193,-9.479 -23.624,-9.21 -25.565,-6.873C-26.161,-2.29 -22.465,-3.235 -21.002,-1.307L-20.961,-1.268C-20.289,-0.121 -19.496,0 -18.603,-0.743L-18.549,-0.792C-17.771,-1.561 -17.235,-3.18 -15.871,-1.893C-9.664,-3.006 -3.846,-5.056 0.646,-10.289C0.483,-12.319 0.267,-14.339 0,-16.352" style="fill:rgb(165,34,34);fill-rule:nonzero;"/>
        </g>
        <g transform="matrix(1,0,0,1,118.767,99.7717)">
            <path d="M0,-23.831C4.927,-22.297 9.686,-24.501 14.557,-24.282C18.989,-24.081 23.473,-24.312 27.352,-20.635C27.628,-19.67 27.411,-18.961 26.699,-18.505C24.14,-17.711 21.928,-18.984 19.772,-20.591C19.363,-20.654 18.871,-20.932 18.557,-20.75C13.02,-17.545 6.953,-19.003 1.133,-18.375C-1.173,-18.126 -1.926,-17.407 -2.597,-14.262C-4.154,-6.95 -7.999,-1.517 -13.822,1.311C-13.729,0.283 -13.636,-0.743 -13.543,-1.77C-13.902,-3.519 -11.852,-4.468 -12.683,-6.381C-12.594,-7.035 -12.387,-7.616 -12.089,-8.152C-10.986,-9.488 -9.335,-9.954 -8.485,-11.691C-5.458,-14.722 -7.569,-20.552 -4.597,-23.605C-3.15,-25.142 -1.495,-23.042 0,-23.831" style="fill:rgb(179,33,39);fill-rule:nonzero;"/>
        </g>
        <g transform="matrix(1,0,0,1,138.539,97.9399)">
            <path d="M0,-18.759C2.53,-18.335 5.06,-17.911 7.59,-17.487C12.058,-18.991 13.907,-14.148 16.63,-11.411C17.771,-8.41 20.085,-8.044 22.257,-7.361C22.464,-7.108 22.667,-6.85 22.871,-6.593C24.38,-4.78 25.89,-2.966 27.399,-1.154C21.851,0.232 17.477,-3.014 13.193,-7.05C8.887,-11.109 4.405,-14.868 0,-18.759" style="fill:rgb(198,40,46);fill-rule:nonzero;"/>
        </g>
        <g transform="matrix(1,0,0,1,99.864,100.872)">
            <path d="M0,13.414C-3.321,12.223 -4.251,7.178 -7.628,5.9C-8.333,5.634 -8.863,3.706 -8.471,2.43C-8.01,0.929 -6.88,1.074 -5.898,1.637C-4.098,2.667 -2.968,0 -1.275,0.619C-0.769,1.795 0.688,1.283 1.051,2.716C-0.033,6.14 -1.65,9.461 0,13.414" style="fill:rgb(215,43,56);fill-rule:nonzero;"/>
        </g>
        <g transform="matrix(1,0,0,1,100.915,100.346)">
            <path d="M0,3.242C-0.962,2.876 -1.822,2.326 -2.326,1.145C-0.195,1.244 1.848,0 4.021,0.744C2.958,2.243 1.378,2.499 0,3.242" style="fill:rgb(179,33,39);fill-rule:nonzero;"/>
        </g>
        <g transform="matrix(1,0,0,1,168.391,93.9631)">
            <path d="M0,3.337C0.447,1.403 1.044,0 2.678,2.237C1.786,2.604 0.893,2.97 0,3.337" style="fill:rgb(198,40,46);fill-rule:nonzero;"/>
        </g>
        <g transform="matrix(1,0,0,1,165.979,98.6255)">
            <path d="M0,-1.801C0.787,-1.626 1.573,-1.451 2.36,-1.276C1.403,0 0.619,-0.197 0,-1.801" style="fill:rgb(198,40,46);fill-rule:nonzero;"/>
        </g>
        <g transform="matrix(1,0,0,1,60.7771,98.9148)">
            <path d="M0,1.649C-2.219,3.654 -4.688,4.393 -7.446,3.67L-8.046,3.49C-8.046,3.49 -8.659,3.41 -8.657,3.411C-8.69,2.803 -8.724,2.196 -8.757,1.587L-8.814,1.641C-5.914,0.122 -3.048,-2.744 0,1.649" style="fill:rgb(155,160,162);fill-rule:nonzero;"/>
        </g>
        <g transform="matrix(1,0,0,1,54.0774,104.693)">
            <path d="M0,0.911C0.579,-0.167 1.402,-0.128 2.289,0.215C1.661,1.078 0.843,1.05 0,0.911" style="fill:rgb(3,6,10);fill-rule:nonzero;"/>
        </g>
        <g transform="matrix(1,0,0,1,58.8459,109.918)">
            <path d="M0,-1.805C0.346,-1.203 0.693,-0.602 1.039,0L0,-1.805Z" style="fill:rgb(42,47,52);fill-rule:nonzero;"/>
        </g>
        <g transform="matrix(1,0,0,1,60.7771,84.8228)">
            <path d="M-4.952,20.211C-5.365,20.699 -5.855,16.567 -8.813,15.733C-5.498,11.01 -2.235,6.222 1.167,1.597C2.266,0.103 3.784,-0.826 5.553,-0.782C7.041,0.731 8.528,2.247 10.016,3.762C11.488,6.142 26.552,26.937 23.756,29.997C22.553,32.032 11.318,29.402 9.279,29.767C8.495,29.845 3.191,26.302 2.407,26.381C1.705,25.595 -4.068,20.183 -4.952,20.211Z" style="fill:rgb(206,210,209);fill-rule:nonzero;"/>
        </g>
        <g transform="matrix(1,0,0,1,82.3269,105.617)">
            <path d="M0,-2.9C0.139,-3.283 0.246,-3.68 0.321,-4.093C0.995,-3.913 1.668,-3.733 2.342,-3.552C2.618,-1.97 2.894,-0.389 3.169,1.193C2.771,1.064 2.371,0.947 1.969,0.84C1.802,-0.799 0.905,-1.853 0,-2.9" style="fill:rgb(59,33,36);fill-rule:nonzero;"/>
        </g>
        <g transform="matrix(1,0,0,1,86.4807,110.637)">
            <path d="M0,-2.013C0.352,-1.342 0.704,-0.672 1.056,0C0.378,-0.409 -0.008,-1.054 0,-2.013" style="fill:rgb(59,33,36);fill-rule:nonzero;"/>
        </g>
        <g transform="matrix(1,0,0,1,69.0579,107.174)">
            <path d="M0,1.336L1.258,0L0,1.336Z" style="fill:rgb(182,185,188);fill-rule:nonzero;"/>
        </g>
        <g transform="matrix(1,0,0,1,77.4851,99.235)">
            <path d="M0,-1.514C0.452,-1.009 0.904,-0.505 1.357,0C0.906,-0.504 0.453,-1.009 0,-1.514" style="fill:rgb(198,199,201);fill-rule:nonzero;"/>
        </g>
        <g transform="matrix(1,0,0,1,81.7776,62.7198)">
            <path d="M0,18.384C-1.011,21.459 -3.116,21.953 -5.47,21.86C-5.469,21.859 -5.462,21.912 -5.462,21.912C-8.342,10.874 -2.768,4.736 2.705,-1.462C3.804,-1.864 4.568,-3.022 5.663,-3.445C6.233,-3.569 6.806,-3.555 7.382,-3.432C8.548,-3.024 9.687,-2.617 10.932,-2.532C15.206,-2.239 15.959,0.079 13.292,4.112C12.948,4.692 12.543,5.195 12.097,5.65C11.642,6.09 11.141,6.437 10.613,6.73C10.079,7.002 9.519,7.167 8.947,7.268C3.35,7.679 2.893,14.571 0,18.384" style="fill:rgb(133,45,45);fill-rule:nonzero;"/>
        </g>
        <g transform="matrix(1,0,0,1,106.929,103.518)">
            <path d="M0,-9.895C1.05,-7.399 -0.799,-6.76 -1.706,-5.517C-5.918,-4.584 -10.045,-3.535 -14.488,-4.659C-17.852,-5.509 -18.069,-4.77 -17.762,0.058C-17.68,1.344 -17.626,2.632 -17.558,3.919C-19.358,1.062 -21.543,-1.766 -20.154,-5.709C-19.444,-7.724 -16.455,-7.824 -11.587,-6.439C-11.947,-7.458 -12.27,-8.374 -12.594,-9.291C-11.492,-11.533 -10.078,-13.122 -7.754,-12.832C-5.606,-11.794 -3.441,-13.814 -1.287,-12.556C-0.46,-11.96 -0.486,-10.741 0,-9.895" style="fill:rgb(98,32,26);fill-rule:nonzero;"/>
        </g>
        <g transform="matrix(1,0,0,1,81.7776,70.9708)">
            <path d="M0,10.133C0.25,8.85 -4.165,6.888 0.328,6.125C1.667,5.898 0.73,3.966 0.95,2.861C1.875,-1.788 5.386,-3.805 9.812,-2.351C11.07,0.55 10.454,3.261 9.5,5.942C7.256,7.937 7.073,11.873 4.848,13.894C2.61,13.938 2.039,10.504 0,10.133" style="fill:rgb(49,30,29);fill-rule:nonzero;"/>
        </g>
        <g transform="matrix(1,0,0,1,99.4138,85.0116)">
            <path d="M0,7.394C-2.113,6.333 -3.014,10.084 -5.079,9.215C-6.232,7.926 -7.386,6.637 -8.541,5.347C-9.175,3.255 -11.473,1.575 -10.409,-0.832C-9.588,-2.69 -7.852,-1.7 -6.498,-0.89C-4.935,-0.034 -3.922,4.048 -1.521,0.21C-0.838,-0.88 1.141,0.328 2.375,1.336C2.815,1.756 3.168,2.282 3.451,2.873C3.837,4.572 3.659,5.97 2.204,6.642C1.791,7.162 1.342,5.387 0.926,6.615C0.738,7.096 0.427,7.352 0,7.394" style="fill:rgb(170,143,88);fill-rule:nonzero;"/>
        </g>
        <g transform="matrix(1,0,0,1,92.6628,80.2367)">
            <path d="M0,5.789C-0.914,5.548 -1.787,3.935 -2.587,4.753C-3.526,5.713 -2.156,6.84 -2.032,7.957C-1.951,8.68 -1.871,9.401 -1.79,10.123C-3.207,8.291 -4.624,6.46 -6.039,4.629C-5.896,2.604 -5.845,0.559 -5.594,-1.439C-5.245,-4.215 -3.726,-4.334 -1.925,-3.581C1.995,-1.39 2.645,1.731 0,5.789" style="fill:rgb(29,26,26);fill-rule:nonzero;"/>
        </g>
        <g transform="matrix(1,0,0,1,91.3875,112.833)">
            <path d="M0,-1.765C0.376,-1.176 0.752,-0.588 1.129,0C0.753,-0.588 0.376,-1.177 0,-1.765" style="fill:rgb(99,21,29);fill-rule:nonzero;"/>
        </g>
        <g transform="matrix(1,0,0,1,93.2781,68.936)">
            <path d="M0,-2.798C0.366,-4.205 2.101,-4.346 1.947,-6.782C-0.21,-7.11 -3.157,-4.394 -4.63,-8.644C-4.558,-12.185 -2.149,-11.777 -0.401,-12.487C6.102,-10.712 12.604,-8.936 19.105,-7.158C20.609,-3.035 25.151,-0.966 24.415,4.669C21.292,5.931 19.859,0.042 16.681,1.546C14.974,1.101 13.763,-0.062 13.221,-2.418C13.331,-0.087 12.546,1.598 11.527,3.162C9.485,4.703 9.805,8.735 7.206,9.689C4.555,8.29 5.001,5.476 5.035,2.846C5.077,2.157 5.177,1.471 5.288,0.818C5.396,-2.746 3.178,-0.524 2.141,-1.215C1.276,-1.413 0.574,-1.966 0,-2.798" style="fill:rgb(119,37,46);fill-rule:nonzero;"/>
        </g>
        <g transform="matrix(1,0,0,1,92.8767,83.9985)">
            <path d="M0,-27.55C-1.41,-26.269 -2.819,-24.988 -4.229,-23.707C-4.633,-23.795 -5.04,-23.848 -5.449,-23.868C-6.311,-23.279 -6.184,-21.748 -7.057,-21.169C-12.837,-17.328 -16.852,-12.066 -15.964,-2.976C-15.831,-1.611 -16.125,-0.497 -16.562,0.635C-19.543,-1.827 -19.046,-5.432 -18.06,-8.427C-15.794,-15.305 -12.693,-21.588 -7.651,-25.881C-5.371,-27.822 -2.746,-28.185 0,-27.55" style="fill:rgb(69,24,19);fill-rule:nonzero;"/>
        </g>
        <g transform="matrix(1,0,0,1,78.0388,89.2926)">
            <path d="M0,2.235C-0.798,1.678 -1.681,1.241 -1.99,0C-1.018,0.311 -0.277,0.948 0,2.235" style="fill:rgb(59,33,36);fill-rule:nonzero;"/>
        </g>
        <g transform="matrix(1,0,0,1,74.6355,85.5882)">
            <path d="M0,1.625C-0.951,1.624 -1.766,1.342 -2.063,0C-1.203,0.19 -0.463,0.623 0,1.625" style="fill:rgb(69,24,19);fill-rule:nonzero;"/>
        </g>
        <g transform="matrix(1,0,0,1,82.1824,98.2019)">
            <path d="M0,2.104L-0.958,0L0,2.104Z" style="fill:rgb(59,33,36);fill-rule:nonzero;"/>
        </g>
        <g transform="matrix(1,0,0,1,81.2258,96.5534)">
            <path d="M0,1.651C-0.237,1.1 -0.473,0.548 -0.708,0C-0.471,0.551 -0.235,1.101 0,1.651" style="fill:rgb(59,33,36);fill-rule:nonzero;"/>
        </g>
        <g transform="matrix(1,0,0,1,80.1072,93.2032)">
            <path d="M0,2.133C-0.455,1.422 -0.91,0.711 -1.367,0C-0.595,0.397 -0.138,1.107 0,2.133" style="fill:rgb(59,33,36);fill-rule:nonzero;"/>
        </g>
        <g transform="matrix(1,0,0,1,180.371,66.9487)">
            <path d="M0,-10.28C-1.634,-14.222 -3.489,-17.868 -5.495,-21.299C-5.625,-20.974 -5.754,-20.649 -5.884,-20.324C-5.342,-18.915 -4.753,-17.529 -4.275,-16.089C-3.934,-15.058 -4.105,-14.043 -4.779,-13.313C-5.53,-12.498 -6.35,-12.869 -7.023,-13.528C-7.676,-14.166 -8.13,-15.145 -8.804,-15.729C-14.287,-20.476 -56.623,-10.767 -57.422,-2.534C-57.839,1.769 -4.746,21.907 -4.438,22.546C0.152,21.028 4.805,19.695 6.779,14.101C5.733,10.246 1.542,-6.559 0,-10.28" style="fill:rgb(35,27,28);fill-rule:nonzero;"/>
        </g>
        <g transform="matrix(1,0,0,1,150.609,84.1384)">
            <path d="M0,-12.143C3.215,-14.403 7.816,-13.191 9.929,-18.438C10.501,-19.859 12.256,-19.265 12.958,-17.566C14.1,-14.802 15.076,-11.935 16.122,-9.111C16.248,-8.122 16.365,-7.13 16.501,-6.143C17.123,-1.654 17.576,-1.277 21.73,-1.761C22.375,-0.498 23.43,0.378 23.907,1.798C23.861,2.322 23.816,2.846 23.771,3.371C23.332,7.076 20.862,7.716 18.882,6.789C15.992,5.435 13.353,6.949 10.622,6.396C8.074,6.661 5.56,6.736 3.521,4.145C1.015,1.274 -1.404,-1.741 -4.481,-3.685C-4.471,-4.124 -4.474,-4.563 -4.491,-5.002C-4.787,-6.149 -5.082,-7.296 -5.378,-8.443C-2.76,-7.869 -0.619,-8.339 0,-12.143" style="fill:rgb(34,23,23);fill-rule:nonzero;"/>
        </g>
        <g transform="matrix(-0.899168,0.437604,0.437604,0.899168,148.193,70.4767)">
            <path d="M0.502,-8.724C-1.658,-8.584 -3.176,-8.049 -1.528,-4.698C-0.66,-2.93 -0.163,-0.961 0.502,0.917C4.133,0.198 0.933,-4.479 2.729,-6.481C3.224,-7.032 1.622,-8.414 0.502,-8.724" style="fill:rgb(34,23,23);fill-rule:nonzero;"/>
        </g>
        <g transform="matrix(1,0,0,1,143.036,70.0882)">
            <path d="M0,2.018C-0.983,1.75 -1.838,1.252 -2.276,0C-1.305,0.288 -0.47,0.823 0,2.018" style="fill:rgb(29,26,26);fill-rule:nonzero;"/>
        </g>
        <g transform="matrix(1,0,0,1,145.207,73.9045)">
            <path d="M0,1.755C-0.36,1.17 -0.72,0.585 -1.08,0C-0.72,0.585 -0.36,1.17 0,1.755" style="fill:rgb(34,23,23);fill-rule:nonzero;"/>
        </g>
        <g transform="matrix(1,0,0,1,141.389,60.734)">
            <path d="M0,1.82C-0.268,1.213 -0.535,0.606 -0.801,0C-0.533,0.608 -0.267,1.214 0,1.82" style="fill:rgb(29,26,26);fill-rule:nonzero;"/>
        </g>
        <g transform="matrix(1,0,0,1,158.272,43.7359)">
            <path d="M0,1.404C0.182,0.546 0.57,0 1.34,0.029C0.894,0.487 0.447,0.946 0,1.404" style="fill:rgb(29,29,30);fill-rule:nonzero;"/>
        </g>
        <g transform="matrix(1,0,0,1,159.59,42.256)">
            <path d="M0,1.527C0.461,1.018 0.922,0.509 1.383,0C0.922,0.508 0.461,1.018 0,1.527" style="fill:rgb(29,29,30);fill-rule:nonzero;"/>
        </g>
        <g transform="matrix(1,0,0,1,110.381,76.8685)">
            <path d="M0,-7.732C1.553,-9.52 2.92,-8.83 4.244,-7.105C5.245,-5.799 6.288,-4.542 7.312,-3.264C7.67,-2.488 8.028,-1.712 8.386,-0.932C8.815,0.632 8.657,1.788 7.084,1.185C6.128,0.818 5.281,-0.044 4.385,-0.683C1.066,-1.252 -0.479,-3.522 0,-7.732" style="fill:rgb(166,52,60);fill-rule:nonzero;"/>
        </g>
        <g transform="matrix(1,0,0,1,161.55,90.7619)">
            <path d="M0,-0.997C2.404,-1.155 4.763,-1.798 7.229,-1.273C9.299,-0.833 11.231,-1.513 12.83,-3.253C14.52,-3.489 16.21,-3.725 17.9,-3.961C17.974,-3.635 18.048,-3.309 18.123,-2.982C17.821,-1.964 17.115,-1.512 16.398,-1.075L16.365,-1.04C15.901,-0.6 15.467,-0.116 15.035,0.37C12.283,2.088 9.399,2.964 6.407,1.212C4.205,-0.077 2.012,1.415 -0.141,0.585L-0.18,0.529C-0.578,0.093 -0.683,-0.279 -0.498,-0.586C-0.316,-0.888 -0.15,-1.025 0,-0.997" style="fill:rgb(79,24,23);fill-rule:nonzero;"/>
        </g>
        <g transform="matrix(1,0,0,1,174.516,82.3768)">
            <path d="M0,3.56C-1.508,3.11 -2.237,1.926 -2.177,0C-0.965,0.73 1.171,0.587 0,3.56" style="fill:rgb(35,27,28);fill-rule:nonzero;"/>
        </g>
        <g transform="matrix(1,0,0,1,172.931,77.9679)">
            <path d="M0,-1.765C0.361,-1.177 0.722,-0.588 1.083,0C0.722,-0.588 0.361,-1.177 0,-1.765" style="fill:rgb(34,23,23);fill-rule:nonzero;"/>
        </g>
        <g transform="matrix(1,0,0,1,179.504,90.158)">
            <path d="M0,-3.231C0.88,-3.019 1.759,-2.807 2.641,-2.593C1.891,0 0.22,-0.085 -1.555,-0.471C-1.036,-1.391 -0.518,-2.311 0,-3.231" style="fill:rgb(101,25,19);fill-rule:nonzero;"/>
        </g>
        <g transform="matrix(1,0,0,1,176.586,89.7221)">
            <path d="M0,1.41C0.443,0.94 0.887,0.47 1.33,0C0.886,0.47 0.443,0.94 0,1.41" style="fill:rgb(101,25,19);fill-rule:nonzero;"/>
        </g>
        <g transform="matrix(1,0,0,1,110.381,86.5135)">
            <path d="M0,-17.377C1.463,-15.027 2.925,-12.676 4.387,-10.327C4.164,-8.364 3.421,-6.573 3.684,-4.432C4.094,-1.083 2.824,1.35 0.663,3.105C0.411,2.95 0.158,2.794 -0.096,2.638C-1.855,0.63 -0.857,-1.962 -1.223,-4.247C-1.352,-4.502 -1.462,-4.781 -1.59,-5.036C-1.728,-5.276 -1.847,-5.541 -1.985,-5.782C-2.281,-6.239 -2.545,-6.729 -2.813,-7.211C-3.246,-7.898 -3.657,-8.609 -4.078,-9.313C-4.394,-9.758 -4.671,-10.235 -4.948,-10.718C-5.096,-10.956 -5.225,-11.207 -5.373,-11.446C-5.668,-11.935 -5.906,-12.461 -6.124,-13.006C-6.213,-13.29 -6.289,-13.579 -6.374,-13.866C-6.453,-14.469 -6.439,-15.068 -6.354,-15.662C-4.496,-20.482 -4.496,-20.482 0,-17.377" style="fill:rgb(102,25,32);fill-rule:nonzero;"/>
        </g>
        <g transform="matrix(1,0,0,1,111.044,91.0744)">
            <path d="M0,-1.456C-0.416,1.28 -1.979,1.539 -3.814,1.213C-4.593,0.243 -4.616,-0.834 -4.187,-1.977C-3.761,-2.576 -3.225,-2.914 -2.58,-2.995C-1.59,-2.937 -0.791,-2.34 -0.067,-1.527L0,-1.456Z" style="fill:rgb(102,25,32);fill-rule:nonzero;"/>
        </g>
        <g transform="matrix(1,0,0,1,107.411,92.7448)">
            <path d="M0,-3.518C-0.062,-2.499 -0.124,-1.48 -0.184,-0.459C-0.28,-0.011 -0.38,0.434 -0.482,0.878C-0.861,0.237 -1.239,-0.405 -1.618,-1.047C-1.968,-1.569 -2.128,-2.167 -2.126,-2.834C-1.981,-3.468 -1.701,-3.98 -1.267,-4.351C-0.715,-4.396 -0.286,-4.135 0,-3.518" style="fill:rgb(95,45,41);fill-rule:nonzero;"/>
        </g>
        <g transform="matrix(1,0,0,1,161.55,91.6589)">
            <path d="M0,-1.894C-0.033,-1.378 -0.092,-0.87 -0.18,-0.367C-3.133,0.86 -5.939,1.48 -7.42,-3.374C-4.947,-2.881 -2.474,-2.388 0,-1.894" style="fill:rgb(165,34,34);fill-rule:nonzero;"/>
        </g>
        <g transform="matrix(1,0,0,1,100.135,86.5464)">
            <path d="M0,-16.404C0.248,-13.816 -0.916,-11.123 0.565,-8.626C4.073,-5.542 3.582,-2.154 1.304,1.369C-0.092,1.286 -1.663,-0.932 -2.766,0.674C-5.056,4.007 -6.086,1.088 -7.472,-0.521C-6.959,-3.973 -7.748,-7.054 -9.397,-9.891C-10.159,-12.783 -10.233,-15.536 -8.545,-17.926C-8.545,-17.927 -8.526,-17.918 -8.526,-17.918C-7.976,-18.205 -7.603,-18.78 -7.148,-19.222C-7.039,-19.614 -6.942,-20.011 -6.858,-20.411C-6.075,-20.337 -5.293,-20.266 -4.511,-20.196C-3.536,-18.907 -2.009,-20.189 -1.031,-18.903C-0.414,-18.24 -0.151,-17.356 0,-16.404" style="fill:rgb(49,30,29);fill-rule:nonzero;"/>
        </g>
        <g transform="matrix(1,0,0,1,85.8196,60.1294)">
            <path d="M0,2.7C0.234,1.513 0.604,0.454 1.608,0C1.405,1.218 0.99,2.232 0,2.7" style="fill:rgb(119,37,46);fill-rule:nonzero;"/>
        </g>
        <g transform="matrix(1,0,0,1,92.9866,68.629)">
            <path d="M0,-1.305C-0.459,-0.87 -0.918,-0.435 -1.378,0C-0.918,-0.435 -0.459,-0.87 0,-1.305" style="fill:rgb(103,29,26);fill-rule:nonzero;"/>
        </g>
        <g transform="matrix(1,0,0,1,106.268,91.9675)">
            <path d="M0,-2.934C-0.158,-2.046 -0.316,-1.158 -0.475,-0.27C-1.475,-0.321 -2.339,-0.032 -3.047,0.924C-4.403,2.756 -5.688,2.419 -6.854,0.437L-6.608,-1.335L-6.658,-1.288C-5.104,-1.114 -4.104,-1.851 -3.888,-3.878C-4.562,-5.219 -3.809,-5.46 -3.032,-5.69C-1.783,-5.197 -0.605,-4.568 0,-2.934" style="fill:rgb(168,152,157);fill-rule:nonzero;"/>
        </g>
        <g transform="matrix(1,0,0,1,103.917,72.0233)">
            <path d="M0,14.895C-0.512,15.285 -1.023,15.674 -1.536,16.065C-1.536,16.066 -2.001,15.913 -2.001,15.913L-2.479,15.891C-2.688,12.56 -2.774,7.669 -4.412,4.442C-3.359,2.039 -6.424,-1.783 -2.612,-2.075C-2.271,-1.396 0.793,0.188 1.135,0.868C1.349,4.699 2.092,8.531 1.425,12.368C1.278,13.065 1.028,13.697 0.69,14.273C0.462,14.483 0.231,14.689 0,14.895" style="fill:rgb(168,152,157);fill-rule:nonzero;"/>
        </g>
        <g transform="matrix(1,0,0,1,99.6599,90.3461)">
            <path d="M0,0.286C-0.128,0.175 -0.256,0.064 -0.384,-0.047C-0.273,0.08 -0.161,0.206 -0.049,0.333L0,0.286Z" style="fill:rgb(175,163,149);fill-rule:nonzero;"/>
        </g>
        <g transform="matrix(1,0,0,1,99.2288,64.5063)">
            <path d="M0,4.033C-1.374,3.771 -2.769,3.57 -3.604,1.844C-2.699,1.296 -1.811,0.7 -0.884,0.211C0.154,-0.337 1.125,-0.116 1.803,1.14C2.5,2.432 2.256,3.53 1.274,4.37C1.274,4.37 0.786,4.224 0.787,4.228C0.788,4.232 0.824,3.626 0.824,3.626C0.824,3.626 0.495,4.063 0.494,4.065C0.492,4.068 0,4.033 0,4.033" style="fill:rgb(102,25,32);fill-rule:nonzero;"/>
        </g>
        <g transform="matrix(1,0,0,1,100.135,68.1744)">
            <path d="M0,1.968C-0.302,1.434 -0.604,0.899 -0.906,0.365L-0.943,0.398C-0.52,0 -0.12,0.071 0.258,0.544C0.258,0.544 0.367,0.7 0.367,0.701C0.265,1.134 0.142,1.555 0,1.968" style="fill:rgb(102,25,32);fill-rule:nonzero;"/>
        </g>
        <g transform="matrix(1,0,0,1,104.216,77.9176)">
            <path d="M0,6.78C-0.378,2.746 -1.562,-1.41 0.835,-5.027L0.848,-5.017C1.228,-4.446 1.653,-3.923 2.013,-3.33L2.004,-3.342C2.355,-2.68 2.752,-2.073 3.308,-1.658C3.638,-1.079 3.968,-0.499 4.298,0.08C4.527,0.794 4.872,1.418 5.274,1.998L5.285,2.013C5.834,3.3 4.873,4.747 5.661,6.025C5.475,7.316 5.322,8.604 4.926,9.811C4.139,10.796 2.699,9.658 2.055,11.103L2.053,11.115C0.911,11.045 -0.698,11.807 -0.3,8.999C-0.299,9.001 -0.349,8.914 -0.349,8.914C0.264,8.349 0.045,7.539 0,6.78" style="fill:rgb(220,206,202);fill-rule:nonzero;"/>
        </g>
        <g transform="matrix(1,0,0,1,108.519,82.2157)">
            <path d="M0,5.269C0.295,3.805 0.59,2.34 0.885,0.876C1.085,-0.33 1.457,-1.4 2.338,-2.063C3.29,-0.701 3.33,0.78 2.604,2.172C1.72,3.869 2.054,5.578 2.459,7.332C1.552,7.125 0.646,6.918 -0.261,6.711C-0.54,6.114 -0.435,5.638 0,5.269" style="fill:rgb(95,45,41);fill-rule:nonzero;"/>
        </g>
        <g transform="matrix(1,0,0,1,110.857,82.8696)">
            <path d="M0,-2.717C0.028,-1.328 -0.165,-0.114 -1.453,0.222C-2.796,-0.952 -1.772,-1.919 -1.356,-2.939C-0.904,-2.865 -0.452,-2.791 0,-2.717" style="fill:rgb(175,163,149);fill-rule:nonzero;"/>
        </g>
        <g transform="matrix(1,0,0,1,109.49,77.9973)">
            <path d="M0,1.918C-0.699,1.567 -1.021,0.925 -0.977,0C-0.314,0.378 -0.001,1.027 0,1.918" style="fill:rgb(175,163,149);fill-rule:nonzero;"/>
        </g>
        <g transform="matrix(1,0,0,1,107.524,74.5756)">
            <path d="M0,1.684C-0.708,1.453 -1.157,0.91 -1.303,0C-0.527,0.147 -0.133,0.758 0,1.684" style="fill:rgb(168,152,157);fill-rule:nonzero;"/>
        </g>
        <g transform="matrix(1,0,0,1,106.229,72.9002)">
            <path d="M0,1.687C-0.724,1.484 -1.092,0.901 -1.165,0C-0.42,0.18 -0.053,0.765 0,1.687" style="fill:rgb(168,152,157);fill-rule:nonzero;"/>
        </g>
        <g transform="matrix(1,0,0,1,108.519,89.0497)">
            <path d="M0,-1.565C0.075,-1.033 -0.012,-0.551 -0.26,-0.122C-0.591,-0.213 -0.874,-0.113 -1.108,0.177C-1.107,0.177 -1.679,0.091 -1.679,0.091L-2.248,-0.03C-1.902,-1.431 -1.062,-1.742 0,-1.565" style="fill:rgb(175,163,149);fill-rule:nonzero;"/>
        </g>
        <g transform="matrix(1,0,0,1,104.216,86.8316)">
            <path d="M0,-2.134C0.44,-1.258 0.607,-0.464 -0.35,0C-0.233,-0.711 -0.117,-1.422 0,-2.134" style="fill:rgb(175,163,149);fill-rule:nonzero;"/>
        </g>
        <g transform="matrix(1,0,0,1,100.393,67.8835)">
            <path d="M0,0.835C-0.401,0.797 -0.801,0.748 -1.201,0.689C-0.766,0.063 -0.359,0 0,0.835" style="fill:rgb(49,30,29);fill-rule:nonzero;"/>
        </g>
    </g>
</svg>
