<?xml version="1.0" encoding="UTF-8" standalone="no"?>
<!DOCTYPE svg PUBLIC "-//W3C//DTD SVG 1.1//EN" "http://www.w3.org/Graphics/SVG/1.1/DTD/svg11.dtd">
<svg width="100%" height="100%" viewBox="0 0 512 512" version="1.1" xmlns="http://www.w3.org/2000/svg" xmlns:xlink="http://www.w3.org/1999/xlink" xml:space="preserve" xmlns:serif="http://www.serif.com/" style="fill-rule:evenodd;clip-rule:evenodd;stroke-linejoin:round;stroke-miterlimit:2;">
    <g>
        <path d="M78.968,269.2C62.072,269.2 48.168,283.104 48.168,300C48.168,316.896 62.072,330.8 78.968,330.8C95.864,330.8 109.768,316.896 109.768,300C109.755,283.109 95.859,269.213 78.968,269.2ZM78.968,316.772C69.752,316.772 62.168,309.188 62.168,299.972C62.168,290.756 69.752,283.172 78.968,283.172C88.184,283.172 95.768,290.756 95.768,299.972C95.761,309.184 88.18,316.76 78.968,316.76L78.968,316.772Z" style="fill:white;fill-rule:nonzero;"/>
        <path d="M212.04,269.2C195.144,269.2 181.24,283.104 181.24,300C181.24,316.896 195.144,330.8 212.04,330.8C228.936,330.8 242.84,316.896 242.84,300C242.827,283.109 228.931,269.213 212.04,269.2ZM212.04,316.772C202.824,316.772 195.24,309.188 195.24,299.972C195.24,290.756 202.824,283.172 212.04,283.172C221.256,283.172 228.84,290.756 228.84,299.972C228.833,309.184 221.252,316.76 212.04,316.76L212.04,316.772Z" style="fill:white;fill-rule:nonzero;"/>
        <path d="M145.504,335.728C128.608,335.728 114.704,349.632 114.704,366.528C114.704,383.424 128.608,397.328 145.504,397.328C162.4,397.328 176.304,383.424 176.304,366.528C176.293,349.636 162.396,335.739 145.504,335.728ZM145.504,383.3C136.288,383.3 128.704,375.716 128.704,366.5C128.704,357.284 136.288,349.7 145.504,349.7C154.72,349.7 162.304,357.284 162.304,366.5C162.304,375.716 154.72,383.3 145.504,383.3Z" style="fill:white;fill-rule:nonzero;"/>
        <path d="M212.04,402.26C195.144,402.26 181.24,416.164 181.24,433.06C181.24,449.956 195.144,463.86 212.04,463.86C228.936,463.86 242.84,449.956 242.84,433.06C242.825,416.169 228.931,402.275 212.04,402.26ZM212.04,449.836C202.824,449.836 195.24,442.252 195.24,433.036C195.24,423.82 202.824,416.236 212.04,416.236C221.256,416.236 228.84,423.82 228.84,433.036C228.84,442.252 221.256,449.836 212.04,449.836Z" style="fill:white;fill-rule:nonzero;"/>
        <path d="M78.968,402.26C62.072,402.26 48.168,416.164 48.168,433.06C48.168,449.956 62.072,463.86 78.968,463.86C95.864,463.86 109.768,449.956 109.768,433.06C109.753,416.169 95.859,402.275 78.968,402.26ZM78.968,449.836C69.752,449.836 62.168,442.252 62.168,433.036C62.168,423.82 69.752,416.236 78.968,416.236C88.184,416.236 95.768,423.82 95.768,433.036C95.768,442.252 88.184,449.836 78.968,449.836Z" style="fill:white;fill-rule:nonzero;"/>
        <path d="M215.388,139.316C205.863,144.809 199.975,155.002 199.975,165.997C199.975,182.893 213.879,196.797 230.775,196.797C247.672,196.797 261.575,182.893 261.575,165.997C261.575,160.587 260.15,155.272 257.444,150.588C248.985,135.979 230.019,130.895 215.388,139.316ZM239.176,180.516C236.618,181.997 233.714,182.777 230.758,182.777C221.542,182.777 213.958,175.194 213.958,165.977C213.958,156.761 221.542,149.177 230.758,149.177C236.762,149.177 242.326,152.396 245.32,157.6C249.909,165.574 247.139,175.911 239.176,180.52L239.176,180.516Z" style="fill:white;fill-rule:nonzero;"/>
        <path d="M329.64,160.596C327.298,160.037 324.899,159.755 322.491,159.755C305.595,159.755 291.691,173.658 291.691,190.555C291.691,204.143 300.684,216.201 313.708,220.076C316.317,220.776 319.007,221.132 321.708,221.136C338.575,221.093 352.43,207.203 352.43,190.336C352.43,176.454 343.044,164.206 329.64,160.596ZM330.068,204.876C327.509,206.359 324.603,207.14 321.645,207.14C312.429,207.14 304.845,199.556 304.845,190.34C304.845,181.124 312.429,173.54 321.645,173.54C321.653,173.54 321.66,173.54 321.668,173.54C323.144,173.543 324.614,173.738 326.04,174.12C333.349,176.091 338.465,182.771 338.465,190.34C338.465,196.325 335.266,201.875 330.088,204.876L330.068,204.876Z" style="fill:white;fill-rule:nonzero;"/>
        <path d="M420.532,184.948C418.184,184.386 415.777,184.102 413.363,184.102C396.466,184.102 382.563,198.006 382.563,214.902C382.563,228.497 391.563,240.559 404.596,244.428C406.944,244.99 409.351,245.274 411.765,245.274C428.662,245.274 442.565,231.37 442.565,214.474C442.565,200.879 433.565,188.817 420.532,184.948ZM428.78,219.036C426.821,226.362 420.133,231.496 412.55,231.496C403.334,231.496 395.75,223.912 395.75,214.696C395.75,205.484 403.328,197.902 412.54,197.896C414.015,197.898 415.483,198.091 416.908,198.472C425.802,200.861 431.158,210.14 428.78,219.036Z" style="fill:white;fill-rule:nonzero;"/>
        <path d="M508.912,223.668L386.4,11.504C380.095,0.584 365.923,-3.217 355,3.084L142.832,125.6C131.913,131.915 128.122,146.094 134.432,157.016L171.392,221.016L23.004,221.016C10.397,221.029 0.024,231.393 -0,244L-0,489C0.015,501.613 10.391,511.987 23.004,512L268,512C280.612,511.987 290.987,501.612 291,489L291,376.044L500.5,255.088C507.601,250.984 511.988,243.38 511.988,235.179C511.988,231.137 510.923,227.167 508.9,223.668L508.912,223.668ZM276.992,489C276.985,493.932 272.932,497.989 268,498L23.004,498C18.069,497.993 14.011,493.935 14.004,489L14.004,244C14.011,239.065 18.069,235.007 23.004,235L268,235C272.932,235.011 276.985,239.068 276.992,244L276.992,489ZM497.688,237.496C497.077,239.804 495.565,241.774 493.492,242.96L290.992,359.88L290.992,244C290.972,231.395 280.605,221.03 268,221.012L187.54,221.012L146.54,150C145.749,148.632 145.333,147.079 145.333,145.499C145.333,142.289 147.052,139.313 149.832,137.708L362,15.2C363.368,14.409 364.92,13.993 366.5,13.993C369.712,13.993 372.689,15.713 374.292,18.496L496.8,230.668C497.997,232.733 498.317,235.194 497.688,237.496Z" style="fill:white;fill-rule:nonzero;"/>
    </g>
</svg>
