<svg height="512" viewBox="0 0 128 128" width="512" xmlns="http://www.w3.org/2000/svg"><g><path d="m19.742 67.3a7.7 7.7 0 1 0 7.7 7.7 7.706 7.706 0 0 0 -7.7-7.7zm0 11.893a4.2 4.2 0 1 1 4.2-4.2 4.2 4.2 0 0 1 -4.2 4.197z"/><path d="m53.01 67.3a7.7 7.7 0 1 0 7.7 7.7 7.706 7.706 0 0 0 -7.7-7.7zm0 11.893a4.2 4.2 0 1 1 4.2-4.2 4.2 4.2 0 0 1 -4.2 4.197z"/><path d="m36.376 83.932a7.7 7.7 0 1 0 7.7 7.7 7.705 7.705 0 0 0 -7.7-7.7zm0 11.893a4.2 4.2 0 1 1 4.2-4.2 4.2 4.2 0 0 1 -4.2 4.2z"/><path d="m53.01 100.565a7.7 7.7 0 1 0 7.7 7.7 7.707 7.707 0 0 0 -7.7-7.7zm0 11.894a4.2 4.2 0 1 1 4.2-4.2 4.2 4.2 0 0 1 -4.2 4.2z"/><path d="m19.742 100.565a7.7 7.7 0 1 0 7.7 7.7 7.707 7.707 0 0 0 -7.7-7.7zm0 11.894a4.2 4.2 0 1 1 4.2-4.2 4.2 4.2 0 0 1 -4.2 4.2z"/><path d="m53.847 34.829a7.7 7.7 0 1 0 10.514 2.818 7.707 7.707 0 0 0 -10.514-2.818zm5.947 10.3a4.2 4.2 0 1 1 1.536-5.729 4.2 4.2 0 0 1 -1.536 5.73z"/><path d="m82.41 40.149a7.7 7.7 0 0 0 -3.983 14.87 7.768 7.768 0 0 0 2 .265 7.7 7.7 0 0 0 1.983-15.135zm.107 11.07a4.2 4.2 0 1 1 -2.1-7.834 4.258 4.258 0 0 1 1.093.145 4.2 4.2 0 0 1 1.012 7.689z"/><path d="m105.133 46.237a7.7 7.7 0 0 0 -3.984 14.87 7.7 7.7 0 0 0 3.984-14.87zm2.062 8.522a4.2 4.2 0 1 1 -4.06-5.285 4.249 4.249 0 0 1 1.092.144 4.2 4.2 0 0 1 2.968 5.141z"/><path d="m127.228 55.917-30.628-53.041a5.748 5.748 0 0 0 -7.85-2.105l-53.042 30.629a5.75 5.75 0 0 0 -2.1 7.854l9.24 16h-37.097a5.757 5.757 0 0 0 -5.751 5.746v61.25a5.757 5.757 0 0 0 5.751 5.75h61.249a5.756 5.756 0 0 0 5.75-5.75v-28.239l52.375-30.239a5.749 5.749 0 0 0 2.1-7.855zm-57.98 66.333a2.253 2.253 0 0 1 -2.248 2.25h-61.249a2.253 2.253 0 0 1 -2.25-2.25v-61.25a2.253 2.253 0 0 1 2.25-2.25h61.249a2.253 2.253 0 0 1 2.248 2.25zm55.174-62.876a2.232 2.232 0 0 1 -1.049 1.366l-50.625 29.23v-28.97a5.756 5.756 0 0 0 -5.748-5.747h-20.115l-10.25-17.753a2.249 2.249 0 0 1 .823-3.073l53.042-30.627a2.248 2.248 0 0 1 3.073.824l30.627 53.043a2.231 2.231 0 0 1 .222 1.707z"/></g></svg>