<?xml version="1.0" encoding="UTF-8" standalone="no"?>
<!DOCTYPE svg PUBLIC "-//W3C//DTD SVG 1.1//EN" "http://www.w3.org/Graphics/SVG/1.1/DTD/svg11.dtd">
<svg width="100%" height="100%" viewBox="0 0 415 415" version="1.1" xmlns="http://www.w3.org/2000/svg" xmlns:xlink="http://www.w3.org/1999/xlink" xml:space="preserve" xmlns:serif="http://www.serif.com/" style="fill-rule:evenodd;clip-rule:evenodd;stroke-linejoin:round;stroke-miterlimit:2;">
    <g>
        <g>
            <path d="M330.645,125.461L330.485,125.541L290.485,125.541C272.432,125.497 257.809,110.874 257.765,92.821L257.765,48.981C257.909,22.074 236.214,0.145 209.307,-0C183.378,-0.139 161.884,20.054 160.405,45.941C160.392,46.181 160.392,46.421 160.405,46.661L160.405,84.661L135.205,84.661C126.368,84.661 119.205,91.824 119.205,100.661L119.205,136.101C44.829,163.119 6.437,245.315 33.455,319.691C60.473,394.067 142.669,432.459 217.045,405.441C291.421,378.423 329.813,296.227 302.795,221.851C288.313,181.984 256.912,150.583 217.045,136.101L217.045,100.501C217.045,91.664 209.882,84.501 201.045,84.501L176.405,84.501L176.405,48.981C176.405,30.888 191.072,16.221 209.165,16.221C227.258,16.221 241.925,30.888 241.925,48.981L241.925,92.741C241.969,119.63 263.756,141.417 290.645,141.461L330.645,141.461C335.063,141.461 338.645,137.879 338.645,133.461C338.645,129.043 335.063,125.461 330.645,125.461ZM295.685,270.421C295.597,340.716 238.54,397.629 168.245,397.541C97.95,397.453 41.037,340.396 41.125,270.101C41.213,199.869 98.172,142.981 168.405,142.981C238.725,143.07 295.685,200.101 295.685,270.421ZM201.285,100.741L201.285,131.061C179.632,125.755 157.018,125.755 135.365,131.061L135.365,100.741L201.285,100.741Z" style="fill:white;fill-rule:nonzero;"/>
        </g>
    </g>
    <g>
        <g>
            <path d="M330.485,74.661C326.067,74.661 322.485,78.243 322.485,82.661L322.485,107.701C322.485,112.119 326.067,115.701 330.485,115.701C334.903,115.701 338.485,112.119 338.485,107.701L338.485,82.661C338.485,78.243 334.903,74.661 330.485,74.661Z" style="fill:white;fill-rule:nonzero;"/>
        </g>
    </g>
    <g>
        <g>
            <path d="M330.485,150.981C326.067,150.981 322.485,154.563 322.485,158.981L322.485,184.021C322.485,188.439 326.067,192.021 330.485,192.021C334.903,192.021 338.485,188.439 338.485,184.021L338.485,158.981C338.485,154.563 334.903,150.981 330.485,150.981Z" style="fill:white;fill-rule:nonzero;"/>
        </g>
    </g>
    <g>
        <g>
            <g>
                <path d="M348.885,123.301C348.858,123.301 348.832,123.298 348.805,123.297C348.778,123.297 348.752,123.301 348.725,123.301L348.885,123.301Z" style="fill:white;fill-rule:nonzero;"/>
                <path d="M371.212,91.701C368.217,89.136 363.8,89.136 360.805,91.701L343.205,109.621C340.068,112.732 340.047,117.798 343.158,120.935C344.653,122.442 346.685,123.289 348.805,123.298C350.902,123.289 352.914,122.46 354.405,120.982L372.085,102.982C374.959,99.626 374.568,94.575 371.212,91.701Z" style="fill:white;fill-rule:nonzero;"/>
            </g>
        </g>
    </g>
    <g>
        <g>
            <path d="M372.085,163.701L354.325,146.101C351.648,142.586 346.629,141.906 343.114,144.583C339.599,147.26 338.919,152.279 341.596,155.794C342.055,156.396 342.597,156.931 343.205,157.381L360.805,174.981C364.161,177.855 369.211,177.464 372.085,174.108C374.65,171.114 374.65,166.696 372.085,163.701Z" style="fill:white;fill-rule:nonzero;"/>
        </g>
    </g>
    <g>
        <g>
            <path d="M381.285,125.541L356.245,125.541C351.827,125.541 348.245,129.123 348.245,133.541C348.245,137.959 351.827,141.541 356.245,141.541L381.285,141.541C385.703,141.541 389.285,137.959 389.285,133.541C389.285,129.123 385.703,125.541 381.285,125.541Z" style="fill:white;fill-rule:nonzero;"/>
        </g>
    </g>
    <g>
        <g>
            <path d="M153.365,356.981C112.912,356.937 80.129,324.154 80.085,283.701C80.085,279.283 76.503,275.701 72.085,275.701C67.667,275.701 64.085,279.283 64.085,283.701C64.129,332.991 104.075,372.937 153.365,372.981C157.783,372.981 161.365,369.399 161.365,364.981C161.365,360.563 157.783,356.981 153.365,356.981Z" style="fill:white;fill-rule:nonzero;"/>
        </g>
    </g>
</svg>
