<?xml version="1.0" encoding="iso-8859-1"?>
<!-- Generator: Adobe Illustrator 19.0.0, SVG Export Plug-In . SVG Version: 6.00 Build 0)  -->
<svg version="1.1" id="Capa_1" xmlns="http://www.w3.org/2000/svg" xmlns:xlink="http://www.w3.org/1999/xlink" x="0px" y="0px"
	 viewBox="0 0 414.09 414.09" style="enable-background:new 0 0 414.09 414.09;" xml:space="preserve">
<g>
	<g>
		<path d="M330.645,125.461l-0.16,0.08h-40c-18.053-0.044-32.676-14.667-32.72-32.72v-43.84
			c0.144-26.907-21.551-48.836-48.458-48.981c-25.929-0.139-47.423,20.054-48.902,45.941c-0.013,0.24-0.013,0.48,0,0.72v38h-25.2
			c-8.837,0-16,7.163-16,16v35.44c-74.376,27.018-112.768,109.214-85.75,183.59s109.214,112.768,183.59,85.75
			s112.768-109.214,85.75-183.59c-14.482-39.867-45.883-71.268-85.75-85.75v-35.6c0-8.837-7.163-16-16-16h-24.64v-35.52
			c0-18.093,14.667-32.76,32.76-32.76s32.76,14.667,32.76,32.76v43.76c0.044,26.889,21.831,48.676,48.72,48.72h40
			c4.418,0,8-3.582,8-8S335.063,125.461,330.645,125.461z M295.685,270.421c-0.088,70.295-57.145,127.208-127.44,127.12
			s-127.208-57.145-127.12-127.44c0.088-70.232,57.047-127.12,127.28-127.12C238.725,143.07,295.685,200.101,295.685,270.421z
			 M201.285,100.741v30.32c-21.653-5.306-44.267-5.306-65.92,0v-30.32h32.48h0.72h0.72H201.285z"/>
	</g>
</g>
<g>
	<g>
		<path d="M330.485,74.661c-4.418,0-8,3.582-8,8v25.04c0,4.418,3.582,8,8,8s8-3.582,8-8v-25.04
			C338.485,78.243,334.903,74.661,330.485,74.661z"/>
	</g>
</g>
<g>
	<g>
		<path d="M330.485,150.981c-4.418,0-8,3.582-8,8v25.04c0,4.418,3.582,8,8,8s8-3.582,8-8v-25.04
			C338.485,154.563,334.903,150.981,330.485,150.981z"/>
	</g>
</g>
<g>
	<g>
		<g>
			<path d="M348.885,123.301c-0.027,0-0.053-0.003-0.08-0.004c-0.027,0-0.053,0.004-0.08,0.004H348.885z"/>
			<path d="M371.212,91.701c-2.995-2.565-7.412-2.565-10.407,0l-17.6,17.92c-3.137,3.111-3.158,8.177-0.047,11.314
				c1.495,1.507,3.527,2.354,5.647,2.363c2.097-0.009,4.109-0.838,5.6-2.316l17.68-18C374.959,99.626,374.568,94.575,371.212,91.701
				z"/>
		</g>
	</g>
</g>
<g>
	<g>
		<path d="M372.085,163.701l-17.76-17.6c-2.677-3.515-7.696-4.195-11.211-1.518c-3.515,2.677-4.195,7.696-1.518,11.211
			c0.459,0.602,1.001,1.137,1.609,1.587l17.6,17.6c3.356,2.874,8.406,2.483,11.28-0.873
			C374.65,171.114,374.65,166.696,372.085,163.701z"/>
	</g>
</g>
<g>
	<g>
		<path d="M381.285,125.541h-25.04c-4.418,0-8,3.582-8,8s3.582,8,8,8h25.04c4.418,0,8-3.582,8-8S385.703,125.541,381.285,125.541z"
			/>
	</g>
</g>
<g>
	<g>
		<path d="M153.365,356.981c-40.453-0.044-73.236-32.827-73.28-73.28c0-4.418-3.582-8-8-8s-8,3.582-8,8
			c0.044,49.29,39.99,89.236,89.28,89.28c4.418,0,8-3.582,8-8S157.783,356.981,153.365,356.981z"/>
	</g>
</g>
<g>
</g>
<g>
</g>
<g>
</g>
<g>
</g>
<g>
</g>
<g>
</g>
<g>
</g>
<g>
</g>
<g>
</g>
<g>
</g>
<g>
</g>
<g>
</g>
<g>
</g>
<g>
</g>
<g>
</g>
</svg>
