<?xml version="1.0" encoding="UTF-8" standalone="no"?>
<!DOCTYPE svg PUBLIC "-//W3C//DTD SVG 1.1//EN" "http://www.w3.org/Graphics/SVG/1.1/DTD/svg11.dtd">
<svg width="100%" height="100%" viewBox="0 0 512 512" version="1.1" xmlns="http://www.w3.org/2000/svg" xmlns:xlink="http://www.w3.org/1999/xlink" xml:space="preserve" xmlns:serif="http://www.serif.com/" style="fill-rule:evenodd;clip-rule:evenodd;stroke-linejoin:round;stroke-miterlimit:2;">
    <path d="M503.832,58.8L453.2,8.164C442.385,-2.621 424.619,-2.621 413.804,8.164L411.464,10.508C400.677,21.322 400.677,39.09 411.464,49.904L419.248,57.684L377.2,99.724L333.632,56.168C322.817,45.383 305.051,45.383 294.236,56.168L291.896,58.512C286.673,63.734 283.736,70.825 283.736,78.21C283.736,85.595 286.673,92.686 291.896,97.908L294.228,100.236L114.452,280C103.995,290.481 103.995,307.703 114.452,318.184L124.852,328.584L54.532,398.912C51.819,401.627 51.819,406.093 54.532,408.808L73.912,428.188L2.056,500.044C0.691,501.362 -0.08,503.181 -0.08,505.078C-0.08,508.918 3.08,512.078 6.92,512.078C8.818,512.078 10.637,511.306 11.956,509.94L83.808,438.088L103.192,457.468C104.503,458.781 106.284,459.52 108.14,459.52C109.996,459.52 111.777,458.781 113.088,457.468L183.412,387.148L193.812,397.548C204.295,408 221.513,408 231.996,397.548L253.196,376.348L349.328,280.208L411.76,217.772L414.092,220.104C424.904,230.896 442.676,230.896 453.488,220.104L455.828,217.76C466.619,206.949 466.619,189.179 455.828,178.368L412.276,134.8L454.316,92.756L462.096,100.54C472.91,111.327 490.678,111.327 501.492,100.54L503.832,98.196C514.626,87.385 514.626,69.611 503.832,58.8ZM173.512,377.252L108.14,442.62L88.764,423.244L69.388,403.872L134.752,338.488L154.132,357.868L173.512,377.252ZM376.428,233.308L349.312,206.196C347.993,204.83 346.174,204.058 344.276,204.058C340.436,204.058 337.276,207.218 337.276,211.058C337.276,212.955 338.047,214.774 339.412,216.092L366.532,243.208L344.4,265.36L328.732,249.692C327.417,248.373 325.629,247.631 323.766,247.631C319.918,247.631 316.751,250.798 316.751,254.646C316.751,256.503 317.489,258.286 318.8,259.6L334.464,275.268L312.316,297.42L285.2,270.292C283.888,268.98 282.106,268.242 280.25,268.242C276.41,268.242 273.25,271.402 273.25,275.242C273.25,277.098 273.988,278.88 275.3,280.192L302.416,307.304L280.268,329.456L264.6,313.788C263.288,312.476 261.506,311.738 259.65,311.738C255.81,311.738 252.65,314.898 252.65,318.738C252.65,320.594 253.388,322.376 254.7,323.688L270.4,339.356L248.248,361.508L221.116,334.4C219.804,333.088 218.023,332.35 216.168,332.35C212.329,332.35 209.17,335.509 209.17,339.348C209.17,341.203 209.908,342.984 211.22,344.296L238.336,371.416L222.092,387.656C217.042,392.696 208.742,392.696 203.692,387.656L124.356,308.292C119.314,303.243 119.314,294.941 124.356,289.892L304.124,110.136L401.86,207.876L376.428,233.308ZM445.932,207.864L443.588,210.208C438.206,215.571 429.37,215.571 423.988,210.208L301.796,88C299.196,85.403 297.734,81.875 297.734,78.2C297.734,74.525 299.196,70.997 301.796,68.4L304.136,66.056C309.516,60.689 318.356,60.689 323.736,66.056L372.224,114.556L445.924,188.256C451.296,193.636 451.3,202.48 445.932,207.864ZM402.376,124.912L387.088,109.624L429.128,67.584L444.416,82.872L402.376,124.912ZM493.932,88.308L491.592,90.652C486.212,96.019 477.372,96.019 471.992,90.652L434.06,52.72L421.348,40C415.977,34.622 415.977,25.778 421.348,20.4L423.688,18.056C429.068,12.689 437.908,12.689 443.288,18.056L493.936,68.708C499.306,74.087 499.305,82.931 493.932,88.308Z" style="fill:white;fill-rule:nonzero;"/>
</svg>
