<?xml version="1.0" encoding="UTF-8" standalone="no"?>
<!DOCTYPE svg PUBLIC "-//W3C//DTD SVG 1.1//EN" "http://www.w3.org/Graphics/SVG/1.1/DTD/svg11.dtd">
<svg width="100%" height="100%" viewBox="0 0 509 509" version="1.1" xmlns="http://www.w3.org/2000/svg" xmlns:xlink="http://www.w3.org/1999/xlink" xml:space="preserve" xmlns:serif="http://www.serif.com/" style="fill-rule:evenodd;clip-rule:evenodd;stroke-linejoin:round;stroke-miterlimit:2;">
    <g>
        <g>
            <g>
                <path d="M421.15,139C411.45,129.3 406.05,116.4 406.05,102.6C406.05,65.3 375.65,34.9 338.35,34.9C324.65,34.9 311.65,29.5 301.95,19.8C275.55,-6.6 232.65,-6.6 206.25,19.8C196.55,29.5 183.65,34.9 169.85,34.9C132.55,34.9 102.15,65.3 102.15,102.6C102.15,116.3 96.85,129.3 87.05,139C74.25,151.8 67.25,168.8 67.25,186.9C67.25,205 74.25,222 87.05,234.8C96.75,244.5 102.15,257.4 102.15,271.2C102.15,301.9 122.65,327.8 150.65,336.1L111.35,482.9L170.65,449.9L205.45,508.2L241.75,372.7C245.85,373.4 249.95,373.8 254.05,373.8C258.15,373.8 262.25,373.4 266.35,372.7L302.75,508.1L337.55,449.8L396.85,482.8L357.55,336C385.55,327.7 406.05,301.8 406.05,271.1C406.05,257.4 411.45,244.4 421.15,234.7C447.55,208.4 447.55,165.4 421.15,139ZM199.85,466.8L176.65,428L137.15,450L166.95,338.8C168.05,338.9 169.05,338.9 170.05,338.9C183.75,338.9 196.75,344.3 206.45,354C208.05,355.6 209.65,357 211.35,358.4C211.85,358.8 212.35,359.2 212.85,359.6C214.05,360.5 215.25,361.4 216.55,362.3C217.25,362.8 218.05,363.2 218.75,363.7C219.85,364.3 220.85,365 221.95,365.6C222.85,366.1 223.85,366.6 224.75,367C225.15,367.2 225.75,367.5 226.35,367.7L199.85,466.8ZM371.35,450L331.85,428L308.65,466.8L282.15,367.7C282.75,367.4 283.25,367.1 283.85,366.9C284.85,366.4 285.75,366 286.75,365.4C287.85,364.8 288.85,364.2 289.85,363.6C290.65,363.1 291.35,362.7 292.15,362.2C293.35,361.4 294.45,360.5 295.65,359.6C296.25,359.2 296.85,358.8 297.35,358.3C299.05,356.9 300.65,355.5 302.25,353.9C311.95,344.2 324.85,338.8 338.65,338.8C339.45,338.9 340.45,338.8 341.55,338.8L371.35,450ZM409.65,223.3C396.85,236.1 389.85,253.1 389.85,271.2C389.85,296 372.25,316.7 348.85,321.6L346.25,322C344.85,322.2 343.65,322.4 342.35,322.5C341.05,322.6 339.65,322.7 338.35,322.7C331.55,322.7 324.95,323.7 318.65,325.6C308.15,328.8 298.45,334.5 290.55,342.5C289.15,343.9 287.75,345.1 286.25,346.3C285.75,346.7 285.25,347 284.75,347.4C283.75,348.2 282.65,348.9 281.55,349.6C281.05,349.9 280.45,350.3 279.85,350.6C278.65,351.3 277.45,351.9 276.25,352.5C275.75,352.7 275.35,352.9 274.85,353.2C273.35,353.9 271.75,354.5 270.25,355C269.95,355.1 269.55,355.3 269.25,355.4L268.65,355.6C259.25,358.3 249.15,358.3 239.75,355.6L238.95,355.4C238.65,355.3 238.45,355.2 238.15,355.1C236.55,354.6 234.95,353.9 233.35,353.3C232.95,353.1 232.45,352.9 232.05,352.7C230.75,352.1 229.55,351.4 228.35,350.7C227.85,350.4 227.35,350.1 226.85,349.8C225.65,349.1 224.55,348.3 223.45,347.5C223.05,347.2 222.55,346.9 222.15,346.5C220.65,345.3 219.25,344 217.85,342.7C209.85,334.7 200.25,329 189.75,325.8C183.45,323.9 176.85,322.9 170.05,322.9C168.65,322.9 167.35,322.8 166.05,322.7C164.85,322.6 163.55,322.4 162.15,322.2L159.55,321.8C136.15,316.9 118.55,296.2 118.55,271.4C118.55,253.3 111.55,236.3 98.75,223.5C89.05,213.8 83.65,200.9 83.65,187.1C83.65,173.4 89.05,160.4 98.75,150.7C111.55,137.9 118.55,120.9 118.55,102.8C118.55,74.4 141.65,51.4 169.95,51.4C188.05,51.4 205.05,44.4 217.85,31.6C227.85,21.6 241.05,16.6 254.25,16.6C267.45,16.6 280.65,21.6 290.65,31.6C303.45,44.4 320.45,51.4 338.55,51.4C366.95,51.4 389.95,74.5 389.95,102.8C389.95,120.9 396.95,137.9 409.75,150.7C429.75,170.6 429.75,203.2 409.65,223.3Z" style="fill:white;fill-rule:nonzero;"/>
                <path d="M254.15,65.1C186.95,65.1 132.25,119.8 132.25,187C132.25,254.2 186.95,308.8 254.15,308.8C321.35,308.8 376.05,254.1 376.05,186.9C376.05,119.7 321.35,65.1 254.15,65.1ZM254.15,292.5C195.95,292.5 148.55,245.1 148.55,186.9C148.55,128.7 195.95,81.3 254.15,81.3C312.35,81.3 359.75,128.7 359.75,186.9C359.75,245.1 312.35,292.5 254.15,292.5Z" style="fill:white;fill-rule:nonzero;"/>
                <path d="M254.15,103.8L236.05,159.6L177.35,159.6L224.85,194.1L206.75,249.9L254.25,215.4L301.75,249.9L283.55,194.1L331.05,159.6L272.35,159.6L254.15,103.8ZM270.75,207.4L254.15,195.3L237.55,207.4L243.85,187.9L227.25,175.8L247.75,175.8L254.05,156.3L260.35,175.8L280.85,175.8L264.25,187.9L270.75,207.4Z" style="fill:white;fill-rule:nonzero;"/>
            </g>
        </g>
    </g>
</svg>
