<?xml version="1.0" encoding="UTF-8" standalone="no"?>
<!DOCTYPE svg PUBLIC "-//W3C//DTD SVG 1.1//EN" "http://www.w3.org/Graphics/SVG/1.1/DTD/svg11.dtd">
<svg width="100%" height="100%" viewBox="0 0 512 512" version="1.1" xmlns="http://www.w3.org/2000/svg" xmlns:xlink="http://www.w3.org/1999/xlink" xml:space="preserve" xmlns:serif="http://www.serif.com/" style="fill-rule:evenodd;clip-rule:evenodd;stroke-linejoin:round;stroke-miterlimit:2;">
    <g>
        <path d="M256,469.333C138.667,469.333 42.667,373.333 42.667,256C42.667,138.667 138.667,42.667 256,42.667C373.333,42.667 469.333,138.667 469.333,256C469.333,373.333 373.333,469.333 256,469.333ZM256,64C149.333,64 64,149.333 64,256C64,362.667 149.333,448 256,448C362.667,448 448,362.667 448,256C448,149.333 362.667,64 256,64Z" style="fill:white;fill-rule:nonzero;"/>
    </g>
    <g>
        <path d="M256,106.667C249.6,106.667 245.333,102.4 245.333,96L245.333,10.667C245.333,4.267 249.6,0 256,0C262.4,0 266.667,4.267 266.667,10.667L266.667,96C266.667,102.4 262.4,106.667 256,106.667Z" style="fill:white;fill-rule:nonzero;"/>
    </g>
    <g>
        <path d="M256,106.667C249.6,106.667 245.333,102.4 245.333,96L245.333,10.667C245.333,4.267 249.6,0 256,0C262.4,0 266.667,4.267 266.667,10.667L266.667,96C266.667,102.4 262.4,106.667 256,106.667Z" style="fill:white;fill-rule:nonzero;"/>
    </g>
    <g>
        <path d="M501.333,266.667L416,266.667C409.6,266.667 405.333,262.4 405.333,256C405.333,249.6 409.6,245.333 416,245.333L501.333,245.333C507.733,245.333 512,249.6 512,256C512,262.4 507.733,266.667 501.333,266.667Z" style="fill:white;fill-rule:nonzero;"/>
    </g>
    <g>
        <path d="M256,512C249.6,512 245.333,507.733 245.333,501.333L245.333,416C245.333,409.6 249.6,405.333 256,405.333C262.4,405.333 266.667,409.6 266.667,416L266.667,501.333C266.667,507.733 262.4,512 256,512Z" style="fill:white;fill-rule:nonzero;"/>
    </g>
    <g>
        <path d="M96,266.667L10.667,266.667C4.267,266.667 0,262.4 0,256C0,249.6 4.267,245.333 10.667,245.333L96,245.333C102.4,245.333 106.667,249.6 106.667,256C106.667,262.4 102.4,266.667 96,266.667Z" style="fill:white;fill-rule:nonzero;"/>
    </g>
    <g>
        <path d="M256,320C219.733,320 192,292.267 192,256C192,219.733 219.733,192 256,192C292.267,192 320,219.733 320,256C320,292.267 292.267,320 256,320ZM256,213.333C232.533,213.333 213.333,232.533 213.333,256C213.333,279.467 232.533,298.667 256,298.667C279.467,298.667 298.667,279.467 298.667,256C298.667,232.533 279.467,213.333 256,213.333Z" style="fill:white;fill-rule:nonzero;"/>
    </g>
</svg>
