<?xml version="1.0" encoding="UTF-8" standalone="no"?>
<!DOCTYPE svg PUBLIC "-//W3C//DTD SVG 1.1//EN" "http://www.w3.org/Graphics/SVG/1.1/DTD/svg11.dtd">
<svg width="100%" height="100%" viewBox="0 0 512 512" version="1.1" xmlns="http://www.w3.org/2000/svg" xmlns:xlink="http://www.w3.org/1999/xlink" xml:space="preserve" xmlns:serif="http://www.serif.com/" style="fill-rule:evenodd;clip-rule:evenodd;stroke-linejoin:round;stroke-miterlimit:2;">
    <g>
        <path d="M342.694,114.691C339.154,112.54 334.54,113.667 332.389,117.208C330.239,120.749 331.366,125.362 334.907,127.512C375.876,152.395 400.336,195.831 400.336,243.703C400.336,247.845 403.693,251.203 407.836,251.203C411.979,251.203 415.336,247.845 415.336,243.703C415.335,189.563 386.666,141.398 342.694,114.691Z" style="fill:white;fill-rule:nonzero;"/>
        <path d="M362.854,50.767C367.175,59.18 379.455,59.193 383.783,50.765C386.348,45.767 390.516,41.609 395.521,39.057C403.951,34.757 404.007,22.535 395.487,18.175C390.462,15.605 386.287,11.421 383.728,6.393C379.395,-2.128 367.243,-2.132 362.908,6.393C360.35,11.42 356.175,15.604 351.148,18.176C342.621,22.54 342.696,34.763 351.116,39.057C356.12,41.609 360.289,45.768 362.854,50.767ZM373.318,18.125C376.167,22.204 379.742,25.778 383.824,28.626C379.742,31.475 376.166,35.051 373.318,39.133C370.469,35.051 366.894,31.475 362.811,28.626C366.894,25.778 370.469,22.204 373.318,18.125Z" style="fill:white;fill-rule:nonzero;"/>
        <path d="M59.308,364.367C56.752,369.393 52.577,373.577 47.552,376.148C39.021,380.512 39.097,392.738 47.518,397.03C52.522,399.582 56.691,403.74 59.256,408.74C63.577,417.155 75.862,417.168 80.185,408.739C82.749,403.741 86.918,399.583 91.923,397.031C100.352,392.731 100.41,380.507 91.888,376.149L91.889,376.149C86.863,373.578 82.688,369.394 80.131,364.367C75.797,355.845 63.645,355.841 59.308,364.367ZM80.227,386.599C76.144,389.448 72.569,393.023 69.72,397.106C66.871,393.024 63.296,389.448 59.214,386.599C63.296,383.75 66.871,380.177 69.72,376.098C72.569,380.178 76.143,383.751 80.227,386.599Z" style="fill:white;fill-rule:nonzero;"/>
        <path d="M443.643,120.964C448.43,130.286 462.076,130.298 466.87,120.962C470.428,114.029 476.21,108.261 483.151,104.72C492.489,99.959 492.554,86.392 483.106,81.56C476.134,77.993 470.342,72.188 466.795,65.213C461.987,55.765 448.527,55.761 443.715,65.214C440.169,72.188 434.376,77.993 427.405,81.559C417.959,86.391 418.019,99.957 427.359,104.72C434.301,108.26 440.084,114.028 443.643,120.964ZM455.256,75.306C459.652,82.576 465.836,88.757 473.111,93.151C465.836,97.548 459.649,103.735 455.255,111.009C450.86,103.734 444.674,97.547 437.401,93.151C444.675,88.757 450.86,82.576 455.256,75.306Z" style="fill:white;fill-rule:nonzero;"/>
        <path d="M40.943,291.329C36.8,291.329 33.443,294.687 33.443,298.829L33.443,302.945L29.328,302.945C25.184,302.945 21.827,306.303 21.827,310.445C21.827,314.587 25.184,317.945 29.328,317.945L33.443,317.945L33.443,322.061C33.443,326.203 36.8,329.561 40.943,329.561C45.086,329.561 48.443,326.203 48.443,322.061L48.443,317.945L52.559,317.945C56.702,317.945 60.059,314.587 60.059,310.445C60.059,306.303 56.702,302.945 52.559,302.945L48.443,302.945L48.443,298.829C48.443,294.687 45.085,291.329 40.943,291.329Z" style="fill:white;fill-rule:nonzero;"/>
        <path d="M78.27,244.347C78.27,299.285 102.617,351.223 144.151,386.447C139.555,389.589 136.53,394.869 136.53,400.845L136.53,412.539C128.034,414.118 121.576,421.573 121.576,430.52L121.576,468.269C112.655,469.023 105.622,476.513 105.622,485.627L105.622,494.567C105.622,504.18 113.442,512 123.055,512L246.997,512C251.14,512 254.497,508.642 254.497,504.5C254.497,500.358 251.14,497 246.997,497L123.054,497C121.712,497 120.621,495.909 120.621,494.567L120.621,485.627C120.621,484.286 121.712,483.194 123.054,483.194L405.94,483.194C407.282,483.194 408.373,484.285 408.373,485.627L408.373,494.567C408.373,495.909 407.282,497 405.94,497L281.998,497C277.854,497 274.497,500.358 274.497,504.5C274.497,508.642 277.854,512 281.998,512L405.94,512C415.552,512 423.373,504.18 423.373,494.567L423.373,485.627C423.373,476.514 416.34,469.024 407.419,468.269L407.419,430.52C407.419,421.573 400.962,414.119 392.466,412.539L392.466,400.845C392.466,394.868 389.44,389.587 384.842,386.445C421.905,355.069 445.356,310.555 449.908,261.901C450.294,257.777 447.263,254.121 443.138,253.735C439.037,253.351 435.359,256.38 434.971,260.504C430.363,309.766 404.685,354.428 364.399,383.411L164.594,383.411C119.89,351.235 93.27,299.427 93.27,244.346C93.27,149.931 170.082,73.118 264.497,73.118C352.772,73.118 426.008,139.253 434.852,226.953C435.268,231.075 438.929,234.075 443.068,233.664C447.189,233.248 450.193,229.569 449.777,225.448C440.265,131.112 360.61,58.118 264.498,58.118C161.811,58.119 78.27,141.661 78.27,244.347ZM136.576,468.194L136.576,430.52C136.576,428.73 138.088,427.218 139.878,427.218L389.116,427.218C390.906,427.218 392.418,428.73 392.418,430.52L392.418,468.194L136.576,468.194ZM375.032,398.412C376.374,398.412 377.465,399.503 377.465,400.845L377.465,412.218L151.529,412.218L151.529,400.845C151.529,399.504 152.62,398.412 153.962,398.412L375.032,398.412Z" style="fill:white;fill-rule:nonzero;"/>
    </g>
</svg>
