<?xml version="1.0" encoding="UTF-8" standalone="no"?>
<!DOCTYPE svg PUBLIC "-//W3C//DTD SVG 1.1//EN" "http://www.w3.org/Graphics/SVG/1.1/DTD/svg11.dtd">
<svg width="100%" height="100%" viewBox="0 0 192 192" version="1.1" xmlns="http://www.w3.org/2000/svg" xmlns:xlink="http://www.w3.org/1999/xlink" xml:space="preserve" xmlns:serif="http://www.serif.com/" style="fill-rule:evenodd;clip-rule:evenodd;stroke-linejoin:round;stroke-miterlimit:1.41421;">
    <g transform="matrix(1.01296,0,0,1.01435,-17.0257,-4.41266)">
        <g id="bomb0">
            <rect id="svg_1" x="162.324" y="18.36" width="15.997" height="11.312"/>
            <rect id="svg_2" x="176" y="32" width="16" height="16"/>
            <path id="svg_3" d="M120,68.671L120,56C120,51.611 116.389,48 112,48L80,48C75.611,48 72,51.611 72,56L72,68.671C47.874,78.43 32,101.976 32,128.001C32,163.11 60.891,192.001 96,192.001C131.109,192.001 160,163.11 160,128.001C160,101.976 144.126,78.43 120,68.671ZM120,152C115.611,152 112,148.389 112,144C112,139.611 115.611,136 120,136C124.389,136 128,139.611 128,144C128,148.389 124.389,152 120,152Z" style="fill-rule:nonzero;"/>
            <path id="svg_4" d="M150.845,36.422C149.96,38.191 148.455,40 144,40C140.638,40 138.439,36.861 134.225,29.7C128.835,20.542 121.455,8 104,8C94.48,8 89.4,12.559 86.806,16.383C82.411,22.874 82.219,31.875 83.406,40L99.664,40C98.488,33.87 98.25,28.019 100.055,25.354C100.329,24.948 100.972,24 104,24C111.92,24 115.243,28.992 120.436,37.814C125.2,45.917 131.137,56 144,56C161.608,56 168,41.647 168,32L152,32C151.894,33.533 151.502,35.033 150.845,36.422Z" style="fill-rule:nonzero;"/>
            <g id="svg_8" transform="matrix(1,0,0,1,5.18701,-0.750974)">
                <rect x="93.494" y="119.904" width="45" height="48" style="stroke:rgb(0,0,153);stroke-width:1px;"/>
            </g>
            <g transform="matrix(1.06083,0,0,1.1021,-20.4818,-21.6143)">
                <ellipse cx="110.266" cy="136.043" rx="47.666" ry="45.864" style="fill:white;"/>
            </g>
        </g>
    </g>
</svg>
