<?xml version="1.0" encoding="UTF-8" standalone="no"?>
<!DOCTYPE svg PUBLIC "-//W3C//DTD SVG 1.1//EN" "http://www.w3.org/Graphics/SVG/1.1/DTD/svg11.dtd">
<svg width="100%" height="100%" viewBox="0 0 192 192" version="1.1" xmlns="http://www.w3.org/2000/svg" xmlns:xlink="http://www.w3.org/1999/xlink" xml:space="preserve" xmlns:serif="http://www.serif.com/" style="fill-rule:evenodd;clip-rule:evenodd;stroke-linejoin:round;stroke-miterlimit:2;">
    <g>
        <g id="bomb0" transform="matrix(1.01296,0,0,1.01435,-17.0257,-4.41266)">
            <rect id="svg_1" x="162.324" y="18.36" width="15.997" height="11.312" style="fill:white;"/>
            <rect id="svg_2" x="176" y="32" width="16" height="16" style="fill:white;"/>
            <path id="svg_4" d="M150.845,36.422C149.96,38.191 148.455,40 144,40C140.638,40 138.439,36.861 134.225,29.7C128.835,20.542 121.455,8 104,8C94.48,8 89.4,12.559 86.806,16.383C82.411,22.874 82.219,31.875 83.406,40L99.664,40C98.488,33.87 98.25,28.019 100.055,25.354C100.329,24.948 100.972,24 104,24C111.92,24 115.243,28.992 120.436,37.814C125.2,45.917 131.137,56 144,56C161.608,56 168,41.647 168,32L152,32C151.894,33.533 151.502,35.033 150.845,36.422Z" style="fill:white;fill-rule:nonzero;"/>
            <g id="svg_3" transform="matrix(0.987204,0,0,0.985848,16.8078,4.35022)">
                <path d="M104.53,65.244L104.53,52.391C104.53,47.939 100.872,44.276 96.426,44.276L64.011,44.276C59.565,44.276 55.908,47.939 55.908,52.391L55.908,65.244C31.469,75.143 15.389,99.027 15.389,125.426C15.389,161.039 44.655,190.344 80.219,190.344C115.783,190.344 145.048,161.039 145.048,125.426C145.048,99.027 128.969,75.143 104.53,65.244ZM80.717,74.476C108.986,74.476 131.938,97.45 131.938,125.748C131.938,154.046 108.986,177.02 80.717,177.02C52.447,177.02 29.496,154.046 29.496,125.748C29.496,97.45 52.447,74.476 80.717,74.476Z" style="fill:white;fill-rule:nonzero;"/>
            </g>
        </g>
        <g id="bomb01" serif:id="bomb0" transform="matrix(1.01296,0,0,1.01435,-17.0257,-4.41266)">
            <rect id="svg_11" serif:id="svg_1" x="162.324" y="18.36" width="15.997" height="11.312" style="fill:rgb(235,113,27);"/>
            <rect id="svg_21" serif:id="svg_2" x="176" y="32" width="16" height="16" style="fill:rgb(235,113,27);"/>
            <path id="svg_41" serif:id="svg_4" d="M150.845,36.422C149.96,38.191 148.455,40 144,40C140.638,40 138.439,36.861 134.225,29.7C128.835,20.542 121.455,8 104,8C94.48,8 89.4,12.559 86.806,16.383C82.411,22.874 82.219,31.875 83.406,40L99.664,40C98.488,33.87 98.25,28.019 100.055,25.354C100.329,24.948 100.972,24 104,24C111.92,24 115.243,28.992 120.436,37.814C125.2,45.917 131.137,56 144,56C161.608,56 168,41.647 168,32L152,32C151.894,33.533 151.502,35.033 150.845,36.422Z" style="fill:rgb(235,113,27);fill-rule:nonzero;"/>
            <g id="svg_31" serif:id="svg_3" transform="matrix(0.987204,0,0,0.985848,16.8078,4.35022)">
                <path d="M104.53,65.244L104.53,52.391C104.53,47.939 100.872,44.276 96.426,44.276L64.011,44.276C59.565,44.276 55.908,47.939 55.908,52.391L55.908,65.244C31.469,75.143 15.389,99.027 15.389,125.426C15.389,161.039 44.655,190.344 80.219,190.344C115.783,190.344 145.048,161.039 145.048,125.426C145.048,99.027 128.969,75.143 104.53,65.244ZM80.717,74.476C108.986,74.476 131.938,97.45 131.938,125.748C131.938,154.046 108.986,177.02 80.717,177.02C52.447,177.02 29.496,154.046 29.496,125.748C29.496,97.45 52.447,74.476 80.717,74.476Z" style="fill:rgb(235,113,27);fill-rule:nonzero;"/>
            </g>
        </g>
        <g id="_6" serif:id="6" transform="matrix(1.13731,0,0,1.13116,-32.7025,281.774)">
            <path d="M124.895,-125.627C124.895,-130.051 123.822,-134.028 121.676,-137.56C119.531,-141.093 116.609,-143.898 112.912,-145.978C109.215,-148.058 105.022,-149.098 100.335,-149.098C98.156,-149.098 96.11,-148.784 94.195,-148.157C92.28,-147.53 90.597,-146.638 89.144,-145.483C87.692,-144.328 86.503,-142.958 85.579,-141.373C85.711,-145.599 86.371,-149.213 87.56,-152.217C88.748,-155.221 90.432,-157.515 92.61,-159.1C94.789,-160.684 97.364,-161.477 100.335,-161.477C103.24,-161.477 105.947,-160.767 108.455,-159.347C110.964,-157.928 113.011,-155.997 114.595,-153.554L122.221,-161.873C119.646,-165.438 116.494,-168.178 112.763,-170.092C109.033,-172.007 104.956,-172.964 100.533,-172.964C94.987,-172.964 90.168,-171.462 86.074,-168.458C81.981,-165.454 78.828,-160.998 76.617,-155.089C74.405,-149.18 73.299,-141.967 73.299,-133.451C73.299,-126.716 74.355,-120.94 76.468,-116.12C78.581,-111.3 81.568,-107.603 85.431,-105.028C89.293,-102.454 93.865,-101.166 99.146,-101.166C104.032,-101.166 108.406,-102.256 112.268,-104.434C116.13,-106.613 119.2,-109.551 121.478,-113.248C123.756,-116.945 124.895,-121.072 124.895,-125.627ZM99.146,-112.357C96.902,-112.357 94.789,-112.968 92.808,-114.189C90.828,-115.41 89.243,-117.028 88.055,-119.041C86.867,-121.055 86.272,-123.25 86.272,-125.627C86.272,-128.004 86.85,-130.166 88.005,-132.114C89.161,-134.061 90.729,-135.613 92.709,-136.768C94.69,-137.924 96.869,-138.501 99.246,-138.501C101.622,-138.501 103.784,-137.924 105.732,-136.768C107.68,-135.613 109.248,-134.061 110.436,-132.114C111.625,-130.166 112.219,-128.004 112.219,-125.627C112.219,-123.25 111.625,-121.055 110.436,-119.041C109.248,-117.028 107.663,-115.41 105.683,-114.189C103.702,-112.968 101.523,-112.357 99.146,-112.357Z" style="fill:rgb(235,113,27);fill-rule:nonzero;stroke:rgb(235,113,27);stroke-opacity:0;stroke-width:0.88px;"/>
        </g>
    </g>
</svg>
