<?xml version="1.0" encoding="UTF-8" standalone="no"?>
<!DOCTYPE svg PUBLIC "-//W3C//DTD SVG 1.1//EN" "http://www.w3.org/Graphics/SVG/1.1/DTD/svg11.dtd">
<svg width="100%" height="100%" viewBox="0 0 192 192" version="1.1" xmlns="http://www.w3.org/2000/svg" xmlns:xlink="http://www.w3.org/1999/xlink" xml:space="preserve" xmlns:serif="http://www.serif.com/" style="fill-rule:evenodd;clip-rule:evenodd;stroke-linecap:round;stroke-linejoin:round;stroke-miterlimit:1.5;">
    <g>
        <g id="bomb0" transform="matrix(1.01296,0,0,1.01435,-17.0257,-4.41266)">
            <rect id="svg_1" x="162.324" y="18.36" width="15.997" height="11.312"/>
            <rect id="svg_2" x="176" y="32" width="16" height="16"/>
            <path id="svg_3" d="M120,68.671L120,56C120,51.611 116.389,48 112,48L80,48C75.611,48 72,51.611 72,56L72,68.671C47.874,78.43 32,101.976 32,128.001C32,163.11 60.891,192.001 96,192.001C131.109,192.001 160,163.11 160,128.001C160,101.976 144.126,78.43 120,68.671ZM120,152C115.611,152 112,148.389 112,144C112,139.611 115.611,136 120,136C124.389,136 128,139.611 128,144C128,148.389 124.389,152 120,152Z" style="fill-rule:nonzero;"/>
            <path id="svg_4" d="M150.845,36.422C149.96,38.191 148.455,40 144,40C140.638,40 138.439,36.861 134.225,29.7C128.835,20.542 121.455,8 104,8C94.48,8 89.4,12.559 86.806,16.383C82.411,22.874 82.219,31.875 83.406,40L99.664,40C98.488,33.87 98.25,28.019 100.055,25.354C100.329,24.948 100.972,24 104,24C111.92,24 115.243,28.992 120.436,37.814C125.2,45.917 131.137,56 144,56C161.608,56 168,41.647 168,32L152,32C151.894,33.533 151.502,35.033 150.845,36.422Z" style="fill-rule:nonzero;"/>
            <g transform="matrix(1.06083,0,0,1.1021,-20.4818,-21.6143)">
                <ellipse cx="110.266" cy="136.043" rx="47.666" ry="45.864" style="fill:white;"/>
            </g>
        </g>
        <g id="black-fill" serif:id="black fill" transform="matrix(1,0,0,1,-22.9874,-6.34479)">
            <ellipse cx="103.836" cy="132.937" rx="57.095" ry="55.406" style="stroke:black;stroke-width:1px;"/>
        </g>
        <g id="_2" serif:id="2" transform="matrix(1.4685,0,0,1.4685,-62.4416,307.984)">
            <path d="M78.348,-102.157C78.348,-104.598 78.538,-106.809 78.918,-108.789C79.298,-110.769 79.963,-112.601 80.912,-114.282C81.861,-115.964 83.164,-117.538 84.818,-119.003C86.473,-120.467 88.575,-121.905 91.125,-123.316C93.35,-124.509 95.317,-125.554 97.026,-126.449C98.735,-127.344 100.159,-128.172 101.298,-128.931C102.438,-129.691 103.306,-130.464 103.902,-131.251C104.499,-132.037 104.798,-132.946 104.798,-133.977C104.798,-135.604 104.147,-137.002 102.844,-138.168C101.542,-139.334 99.671,-139.918 97.229,-139.918C95.927,-139.918 94.733,-139.741 93.648,-139.389C92.563,-139.036 91.546,-138.561 90.596,-137.965C89.647,-137.368 88.779,-136.703 87.992,-135.971C87.206,-135.238 86.487,-134.465 85.836,-133.651L78.837,-141.708C79.542,-142.468 80.546,-143.295 81.848,-144.19C83.15,-145.085 84.683,-145.926 86.446,-146.713C88.209,-147.5 90.162,-148.151 92.305,-148.666C94.449,-149.182 96.741,-149.439 99.182,-149.439C101.949,-149.439 104.418,-149.1 106.588,-148.422C108.758,-147.744 110.589,-146.795 112.081,-145.574C113.573,-144.353 114.713,-142.888 115.499,-141.179C116.286,-139.47 116.679,-137.612 116.679,-135.604C116.679,-133.706 116.327,-132.024 115.621,-130.559C114.916,-129.094 114.021,-127.792 112.936,-126.652C111.851,-125.513 110.671,-124.523 109.396,-123.682C108.121,-122.841 106.886,-122.095 105.693,-121.444C104.716,-120.901 103.604,-120.278 102.356,-119.572C101.108,-118.867 99.874,-118.094 98.653,-117.253C97.433,-116.412 96.307,-115.544 95.276,-114.649C94.245,-113.753 93.458,-112.872 92.916,-112.004L117.575,-112.004L117.575,-102.157L78.348,-102.157Z" style="fill:white;fill-rule:nonzero;stroke:black;stroke-width:0.68px;stroke-linecap:butt;stroke-miterlimit:2;"/>
        </g>
    </g>
</svg>
