<?xml version="1.0" encoding="UTF-8" standalone="no"?>
<!DOCTYPE svg PUBLIC "-//W3C//DTD SVG 1.1//EN" "http://www.w3.org/Graphics/SVG/1.1/DTD/svg11.dtd">
<svg width="100%" height="100%" viewBox="0 0 512 512" version="1.1" xmlns="http://www.w3.org/2000/svg" xmlns:xlink="http://www.w3.org/1999/xlink" xml:space="preserve" xmlns:serif="http://www.serif.com/" style="fill-rule:evenodd;clip-rule:evenodd;stroke-linecap:round;stroke-miterlimit:10;">
    <g>
        <path id="flag0" d="M80,464L80,68.14C80.01,65.295 81.537,62.662 84,61.24C91.81,56.66 112.92,48 160,48C224,48 305,96 352,96C378.535,95.931 404.792,90.57 429.23,80.23C429.474,80.128 429.736,80.076 430,80.076C431.097,80.076 432,80.979 432,82.076C432,82.077 432,82.079 432,82.08L432,301.44C431.995,303.019 431.056,304.454 429.61,305.09C421.37,308.7 392.33,320 352,320C304,320 224,288 160,288C96,288 80,304 80,304" style="fill:none;fill-rule:nonzero;stroke:black;stroke-width:32px;"/>
    </g>
</svg>
