<?xml version="1.0" encoding="UTF-8" standalone="no"?>
<!DOCTYPE svg PUBLIC "-//W3C//DTD SVG 1.1//EN" "http://www.w3.org/Graphics/SVG/1.1/DTD/svg11.dtd">
<svg width="100%" height="100%" viewBox="0 0 512 512" version="1.1" xmlns="http://www.w3.org/2000/svg" xmlns:xlink="http://www.w3.org/1999/xlink" xml:space="preserve" xmlns:serif="http://www.serif.com/" style="fill-rule:evenodd;clip-rule:evenodd;stroke-linejoin:round;stroke-miterlimit:2;">
    <g>
        <g id="_2" serif:id="2" transform="matrix(1.05595,0,0,1.05595,196.132,265.022)">
            <path d="M9.5,0C9.5,-7.5 10.083,-14.292 11.25,-20.375C12.417,-26.458 14.458,-32.083 17.375,-37.25C20.292,-42.417 24.292,-47.25 29.375,-51.75C34.458,-56.25 40.917,-60.667 48.75,-65C55.583,-68.667 61.625,-71.875 66.875,-74.625C72.125,-77.375 76.5,-79.917 80,-82.25C83.5,-84.583 86.167,-86.958 88,-89.375C89.833,-91.792 90.75,-94.583 90.75,-97.75C90.75,-102.75 88.75,-107.042 84.75,-110.625C80.75,-114.208 75,-116 67.5,-116C63.5,-116 59.833,-115.458 56.5,-114.375C53.167,-113.292 50.042,-111.833 47.125,-110C44.208,-108.167 41.542,-106.125 39.125,-103.875C36.708,-101.625 34.5,-99.25 32.5,-96.75L11,-121.5C13.167,-123.833 16.25,-126.375 20.25,-129.125C24.25,-131.875 28.958,-134.458 34.375,-136.875C39.792,-139.292 45.792,-141.292 52.375,-142.875C58.958,-144.458 66,-145.25 73.5,-145.25C82,-145.25 89.583,-144.208 96.25,-142.125C102.917,-140.042 108.542,-137.125 113.125,-133.375C117.708,-129.625 121.208,-125.125 123.625,-119.875C126.042,-114.625 127.25,-108.917 127.25,-102.75C127.25,-96.917 126.167,-91.75 124,-87.25C121.833,-82.75 119.083,-78.75 115.75,-75.25C112.417,-71.75 108.792,-68.708 104.875,-66.125C100.958,-63.542 97.167,-61.25 93.5,-59.25C90.5,-57.583 87.083,-55.667 83.25,-53.5C79.417,-51.333 75.625,-48.958 71.875,-46.375C68.125,-43.792 64.667,-41.125 61.5,-38.375C58.333,-35.625 55.917,-32.917 54.25,-30.25L130,-30.25L130,0L9.5,0Z" style="fill:rgb(235,113,27);fill-rule:nonzero;stroke:black;stroke-opacity:0;stroke-width:0.95px;"/>
        </g>
        <path id="flag0" d="M80,464L80,68.14C80.01,65.295 81.537,62.662 84,61.24C91.81,56.66 112.92,48 160,48C224,48 305,96 352,96C378.535,95.931 404.792,90.57 429.23,80.23C429.474,80.128 429.736,80.076 430,80.076C431.097,80.076 432,80.979 432,82.076C432,82.077 432,82.079 432,82.08L432,301.44C431.995,303.019 431.056,304.454 429.61,305.09C421.37,308.7 392.33,320 352,320C304,320 224,288 160,288C96,288 80,304 80,304" style="fill:none;fill-rule:nonzero;stroke:rgb(235,113,27);stroke-width:32px;stroke-linecap:round;stroke-linejoin:miter;stroke-miterlimit:10;"/>
    </g>
</svg>
