<?xml version="1.0" encoding="UTF-8" standalone="no"?>
<!DOCTYPE svg PUBLIC "-//W3C//DTD SVG 1.1//EN" "http://www.w3.org/Graphics/SVG/1.1/DTD/svg11.dtd">
<svg width="100%" height="100%" viewBox="0 0 512 512" version="1.1" xmlns="http://www.w3.org/2000/svg" xmlns:xlink="http://www.w3.org/1999/xlink" xml:space="preserve" xmlns:serif="http://www.serif.com/" style="fill-rule:evenodd;clip-rule:evenodd;stroke-linecap:round;stroke-miterlimit:10;">
    <g>
        <path id="fill" d="M80,480C71.223,480 64,472.777 64,464L64,68.13C64.002,59.61 68.542,51.706 75.9,47.41C88,40.38 112.38,32 160,32C197.21,32 238.83,46.71 275.55,59.68C305.12,70.13 333.05,80 352,80C376.394,79.925 400.53,74.996 423,65.5C425.215,64.565 427.596,64.083 430,64.083C439.873,64.083 447.998,72.207 448,82.08L448,301.44C447.992,309.37 443.268,316.578 436,319.75C427.29,323.56 395.49,336 352,336C327.86,336 297.62,328.86 265.61,321.29C229.63,312.79 192.43,304 160,304C123.13,304 104.26,309.58 96,313.11L96,464C96,472.777 88.777,480 80,480Z" style="fill-rule:nonzero;"/>
        <g id="_1" serif:id="1" transform="matrix(1.21335,0,0,1.21335,185.153,276.453)">
            <g transform="matrix(250,0,0,250,0,0)">
                <path d="M0.47,-0.121L0.47,0L0.064,0L0.064,-0.121L0.206,-0.121L0.206,-0.424C0.2,-0.416 0.191,-0.408 0.178,-0.4C0.165,-0.391 0.15,-0.383 0.135,-0.376C0.12,-0.369 0.104,-0.363 0.088,-0.358C0.071,-0.353 0.057,-0.351 0.044,-0.351L0.044,-0.476C0.056,-0.476 0.071,-0.48 0.088,-0.488C0.105,-0.495 0.122,-0.504 0.139,-0.515C0.156,-0.526 0.17,-0.536 0.183,-0.547C0.195,-0.557 0.203,-0.565 0.206,-0.571L0.343,-0.571L0.343,-0.121L0.47,-0.121Z" style="fill:white;fill-rule:nonzero;"/>
            </g>
        </g>
        <path id="flag0" d="M80,464L80,68.14C80.01,65.295 81.537,62.662 84,61.24C91.81,56.66 112.92,48 160,48C224,48 305,96 352,96C378.535,95.931 404.792,90.57 429.23,80.23C429.474,80.128 429.736,80.076 430,80.076C431.097,80.076 432,80.979 432,82.076C432,82.077 432,82.079 432,82.08L432,301.44C431.995,303.019 431.056,304.454 429.61,305.09C421.37,308.7 392.33,320 352,320C304,320 224,288 160,288C96,288 80,304 80,304" style="fill:none;fill-rule:nonzero;stroke:black;stroke-width:32px;"/>
    </g>
</svg>
