<?xml version="1.0" encoding="UTF-8" standalone="no"?>
<!DOCTYPE svg PUBLIC "-//W3C//DTD SVG 1.1//EN" "http://www.w3.org/Graphics/SVG/1.1/DTD/svg11.dtd">
<svg width="100%" height="100%" viewBox="0 0 512 512" version="1.1" xmlns="http://www.w3.org/2000/svg" xmlns:xlink="http://www.w3.org/1999/xlink" xml:space="preserve" xmlns:serif="http://www.serif.com/" style="fill-rule:evenodd;clip-rule:evenodd;stroke-linecap:round;stroke-miterlimit:10;">
    <g>
        <path id="fill" d="M80,480C71.223,480 64,472.777 64,464L64,68.13C64.002,59.61 68.542,51.706 75.9,47.41C88,40.38 112.38,32 160,32C197.21,32 238.83,46.71 275.55,59.68C305.12,70.13 333.05,80 352,80C376.394,79.925 400.53,74.996 423,65.5C425.215,64.565 427.596,64.083 430,64.083C439.873,64.083 447.998,72.207 448,82.08L448,301.44C447.992,309.37 443.268,316.578 436,319.75C427.29,323.56 395.49,336 352,336C327.86,336 297.62,328.86 265.61,321.29C229.63,312.79 192.43,304 160,304C123.13,304 104.26,309.58 96,313.11L96,464C96,472.777 88.777,480 80,480Z" style="fill-rule:nonzero;"/>
        <g id="_2" serif:id="2" transform="matrix(1.21335,0,0,1.21335,185.153,276.453)">
            <g transform="matrix(250,0,0,250,0,0)">
                <path d="M0.038,0C0.038,-0.03 0.04,-0.057 0.045,-0.082C0.05,-0.106 0.058,-0.128 0.07,-0.149C0.081,-0.17 0.097,-0.189 0.118,-0.207C0.138,-0.225 0.164,-0.243 0.195,-0.26C0.222,-0.275 0.247,-0.288 0.268,-0.299C0.289,-0.31 0.306,-0.32 0.32,-0.329C0.334,-0.338 0.345,-0.348 0.352,-0.358C0.359,-0.367 0.363,-0.378 0.363,-0.391C0.363,-0.411 0.355,-0.428 0.339,-0.443C0.323,-0.457 0.3,-0.464 0.27,-0.464C0.254,-0.464 0.239,-0.462 0.226,-0.458C0.213,-0.453 0.2,-0.447 0.189,-0.44C0.177,-0.433 0.166,-0.425 0.157,-0.416C0.147,-0.407 0.138,-0.397 0.13,-0.387L0.044,-0.486C0.053,-0.495 0.065,-0.505 0.081,-0.517C0.097,-0.528 0.116,-0.538 0.138,-0.548C0.159,-0.557 0.183,-0.565 0.21,-0.572C0.236,-0.578 0.264,-0.581 0.294,-0.581C0.328,-0.581 0.358,-0.577 0.385,-0.569C0.412,-0.56 0.434,-0.549 0.453,-0.534C0.471,-0.519 0.485,-0.501 0.495,-0.48C0.504,-0.459 0.509,-0.436 0.509,-0.411C0.509,-0.388 0.505,-0.367 0.496,-0.349C0.487,-0.331 0.476,-0.315 0.463,-0.301C0.45,-0.287 0.435,-0.275 0.42,-0.265C0.404,-0.254 0.389,-0.245 0.374,-0.237C0.362,-0.23 0.348,-0.223 0.333,-0.214C0.318,-0.205 0.303,-0.196 0.288,-0.186C0.273,-0.175 0.259,-0.165 0.246,-0.154C0.233,-0.142 0.224,-0.132 0.217,-0.121L0.52,-0.121L0.52,0L0.038,0Z" style="fill:white;fill-rule:nonzero;"/>
            </g>
        </g>
        <path id="flag0" d="M80,464L80,68.14C80.01,65.295 81.537,62.662 84,61.24C91.81,56.66 112.92,48 160,48C224,48 305,96 352,96C378.535,95.931 404.792,90.57 429.23,80.23C429.474,80.128 429.736,80.076 430,80.076C431.097,80.076 432,80.979 432,82.076C432,82.077 432,82.079 432,82.08L432,301.44C431.995,303.019 431.056,304.454 429.61,305.09C421.37,308.7 392.33,320 352,320C304,320 224,288 160,288C96,288 80,304 80,304" style="fill:none;fill-rule:nonzero;stroke:black;stroke-width:32px;"/>
    </g>
</svg>
