<?xml version="1.0" encoding="UTF-8" standalone="no"?>
<!DOCTYPE svg PUBLIC "-//W3C//DTD SVG 1.1//EN" "http://www.w3.org/Graphics/SVG/1.1/DTD/svg11.dtd">
<svg width="100%" height="100%" viewBox="0 0 512 512" version="1.1" xmlns="http://www.w3.org/2000/svg" xmlns:xlink="http://www.w3.org/1999/xlink" xml:space="preserve" xmlns:serif="http://www.serif.com/" style="fill-rule:evenodd;clip-rule:evenodd;stroke-linecap:round;stroke-miterlimit:10;">
    <g>
        <path id="fill" d="M80,480C71.223,480 64,472.777 64,464L64,68.13C64.002,59.61 68.542,51.706 75.9,47.41C88,40.38 112.38,32 160,32C197.21,32 238.83,46.71 275.55,59.68C305.12,70.13 333.05,80 352,80C376.394,79.925 400.53,74.996 423,65.5C425.215,64.565 427.596,64.083 430,64.083C439.873,64.083 447.998,72.207 448,82.08L448,301.44C447.992,309.37 443.268,316.578 436,319.75C427.29,323.56 395.49,336 352,336C327.86,336 297.62,328.86 265.61,321.29C229.63,312.79 192.43,304 160,304C123.13,304 104.26,309.58 96,313.11L96,464C96,472.777 88.777,480 80,480Z" style="fill-rule:nonzero;"/>
        <g id="_3" serif:id="3" transform="matrix(0.968107,0,0,0.968107,204.115,240.624)">
            <g transform="matrix(250,0,0,250,0,0)">
                <path d="M0.381,-0.236C0.422,-0.229 0.456,-0.209 0.482,-0.177C0.507,-0.144 0.52,-0.105 0.52,-0.058C0.52,-0.027 0.514,0.002 0.502,0.027C0.489,0.052 0.472,0.074 0.45,0.092C0.427,0.109 0.4,0.123 0.368,0.133C0.336,0.142 0.3,0.147 0.26,0.147C0.209,0.147 0.165,0.139 0.126,0.123C0.087,0.106 0.054,0.082 0.028,0.051L0.104,-0.044C0.121,-0.022 0.142,-0.005 0.166,0.007C0.19,0.019 0.22,0.025 0.256,0.025C0.297,0.025 0.328,0.017 0.349,0.001C0.37,-0.015 0.381,-0.04 0.381,-0.073C0.381,-0.108 0.369,-0.134 0.344,-0.153C0.319,-0.172 0.282,-0.181 0.232,-0.181L0.204,-0.181L0.204,-0.281L0.235,-0.281C0.276,-0.281 0.308,-0.29 0.331,-0.309C0.354,-0.327 0.365,-0.35 0.365,-0.379C0.365,-0.406 0.356,-0.427 0.337,-0.44C0.318,-0.453 0.294,-0.46 0.264,-0.46C0.233,-0.46 0.206,-0.453 0.182,-0.439C0.157,-0.425 0.137,-0.405 0.122,-0.38L0.038,-0.474C0.048,-0.489 0.061,-0.503 0.078,-0.516C0.095,-0.528 0.114,-0.539 0.135,-0.548C0.156,-0.557 0.178,-0.564 0.203,-0.569C0.228,-0.574 0.253,-0.576 0.279,-0.576C0.313,-0.576 0.344,-0.572 0.372,-0.563C0.4,-0.554 0.424,-0.542 0.445,-0.527C0.465,-0.512 0.481,-0.493 0.492,-0.472C0.503,-0.45 0.508,-0.426 0.508,-0.399C0.508,-0.379 0.505,-0.36 0.499,-0.342C0.493,-0.324 0.484,-0.308 0.473,-0.293C0.462,-0.278 0.448,-0.266 0.433,-0.256C0.417,-0.246 0.4,-0.239 0.381,-0.236Z" style="fill:white;fill-rule:nonzero;"/>
            </g>
        </g>
        <path id="flag0" d="M80,464L80,68.14C80.01,65.295 81.537,62.662 84,61.24C91.81,56.66 112.92,48 160,48C224,48 305,96 352,96C378.535,95.931 404.792,90.57 429.23,80.23C429.474,80.128 429.736,80.076 430,80.076C431.097,80.076 432,80.979 432,82.076C432,82.077 432,82.079 432,82.08L432,301.44C431.995,303.019 431.056,304.454 429.61,305.09C421.37,308.7 392.33,320 352,320C304,320 224,288 160,288C96,288 80,304 80,304" style="fill:none;fill-rule:nonzero;stroke:black;stroke-width:32px;"/>
    </g>
</svg>
